# 3ds Max Wavefront OBJ Exporter v0.99 - (c)2007 guruware
# File Created: 04.12.2025 17:44:46

mtllib RoomCeiling.mtl

#
# object RoomCeiling_00
#

v  6.9936 3.4890 -7.4327
v  6.9936 3.4890 7.3493
v  -6.9936 3.4890 7.3493
v  -6.9936 3.4890 -7.4327
# 4 vertices

vn -0.0000 -1.0000 0.0000
# 1 vertex normals

vt 0.0000 1.0000 0.0000
vt 0.0000 0.0000 0.0000
vt 1.0000 0.0000 0.0000
vt 1.0000 1.0000 0.0000
# 4 texture coords

o RoomCeiling_00
g RoomCeiling_00
usemtl Lit
s 1
f 1/1/1 2/2/1 3/3/1 4/4/1 
# 1 polygons

