# 3ds Max Wavefront OBJ Exporter v0.99 - (c)2007 guruware
# File Created: 01.12.2025 11:58:31

mtllib NDummy_Props.mtl

#
# object TV_01
#

v  -8.7109 0.8031 -21.9798
v  -8.6491 0.8104 -22.9146
v  -8.6516 0.9145 -22.9139
v  -8.7099 0.9071 -21.9827
v  -9.5805 0.9148 -22.9135
v  -9.5861 0.8107 -22.9143
v  -9.5176 0.8034 -21.9796
v  -9.5158 0.9074 -21.9824
v  -9.1148 0.9065 -21.8341
v  -9.1148 0.8023 -21.8225
v  -8.7115 0.8173 -23.8494
v  -8.7105 0.9212 -23.8450
v  -9.5182 0.8176 -23.8492
v  -9.5164 0.9215 -23.8447
v  -9.1155 0.8188 -24.0065
v  -9.1155 0.9229 -23.9933
v  -8.9055 1.1064 -22.2292
v  -9.1149 1.0180 -22.1208
v  -9.1152 0.9112 -22.9137
v  -8.9034 1.0239 -22.9129
v  -9.3244 1.1065 -22.2290
v  -9.3269 1.0240 -22.9128
v  -8.9051 2.1014 -22.2216
v  -8.9030 2.1998 -22.9040
v  -9.1147 2.3197 -22.9030
v  -9.1145 2.1938 -22.1119
v  -9.3240 2.1015 -22.2215
v  -9.3265 2.1999 -22.9039
v  -9.3265 1.6051 -22.1163
v  -9.3297 1.6112 -22.9083
v  -9.1147 1.6040 -21.9764
v  -8.9029 1.6050 -22.1165
v  -8.9059 1.1168 -23.5954
v  -9.1154 1.0300 -23.7049
v  -9.3248 1.1169 -23.5952
v  -8.9056 2.1118 -23.5878
v  -9.1150 2.2059 -23.6960
v  -9.3245 2.1119 -23.5877
v  -9.3270 1.6172 -23.7004
v  -9.1153 1.6182 -23.8405
v  -8.9034 1.6170 -23.7005
v  -8.9035 1.1025 -22.9123
v  -8.9053 1.1739 -22.3202
v  -8.9050 2.0356 -22.3137
v  -8.9032 2.1208 -22.9046
v  -8.9031 1.6057 -22.2226
v  -8.9057 1.1829 -23.5033
v  -8.9054 2.0445 -23.4968
v  -8.9036 1.6161 -23.5943
v  -8.9449 1.1025 -22.9123
v  -8.9468 1.1740 -22.3202
v  -8.9465 2.0356 -22.3137
v  -8.9446 2.1208 -22.9046
v  -8.9445 1.6057 -22.2226
v  -8.9471 1.1829 -23.5033
v  -8.9469 2.0446 -23.4967
v  -8.9450 1.6161 -23.5943
v  -9.4304 1.2229 -22.3857
v  -9.4328 1.6065 -22.2990
v  -9.4362 1.6111 -22.9083
v  -9.4331 1.1595 -22.9117
v  -9.4301 1.9884 -22.3799
v  -9.4328 2.0641 -22.9049
v  -9.4307 1.2309 -23.4367
v  -9.4332 1.6158 -23.5176
v  -9.4305 1.9963 -23.4309
v  -9.2891 1.2229 -22.3858
v  -9.2915 1.6065 -22.2991
v  -9.2919 1.1594 -22.9118
v  -9.2889 1.9883 -22.3800
v  -9.2916 2.0640 -22.9049
v  -9.2895 1.2309 -23.4368
v  -9.2919 1.6157 -23.5176
v  -9.2892 1.9963 -23.4310
v  -8.8864 1.1191 -23.4552
v  -8.9085 1.1153 -23.4517
v  -8.9085 1.1106 -23.4771
v  -8.8833 1.1155 -23.4771
v  -8.8864 1.1622 -23.4549
v  -8.8832 1.1664 -23.4767
v  -8.9085 1.1716 -23.4766
v  -8.9085 1.1662 -23.4514
v  -8.8792 1.1409 -23.4769
v  -8.8832 1.1407 -23.4516
v  -8.9085 1.1407 -23.4471
v  -8.8865 1.1195 -23.4989
v  -8.9085 1.1157 -23.5024
v  -8.8864 1.1625 -23.4985
v  -8.9085 1.1666 -23.5020
v  -8.8833 1.1411 -23.5022
v  -8.9085 1.1411 -23.5066
v  -8.8864 1.1062 -23.3601
v  -8.9084 1.1024 -23.3566
v  -8.9085 1.0977 -23.3819
v  -8.8832 1.1026 -23.3819
v  -8.8864 1.1493 -23.3597
v  -8.8832 1.1535 -23.3815
v  -8.9084 1.1587 -23.3815
v  -8.9084 1.1533 -23.3562
v  -8.8791 1.1280 -23.3817
v  -8.8832 1.1278 -23.3564
v  -8.9084 1.1278 -23.3519
v  -8.8864 1.1066 -23.4037
v  -8.9085 1.1028 -23.4072
v  -8.8864 1.1496 -23.4034
v  -8.9084 1.1537 -23.4068
v  -8.8832 1.1282 -23.4070
v  -8.9085 1.1282 -23.4115
v  -8.8864 1.0976 -23.2717
v  -8.9084 1.0938 -23.2683
v  -8.9084 1.0891 -23.2936
v  -8.8832 1.0940 -23.2936
v  -8.8864 1.1407 -23.2714
v  -8.8832 1.1449 -23.2932
v  -8.9084 1.1501 -23.2931
v  -8.9084 1.1447 -23.2679
v  -8.8791 1.1194 -23.2934
v  -8.8832 1.1192 -23.2681
v  -8.9084 1.1192 -23.2636
v  -8.8864 1.0980 -23.3154
v  -8.9084 1.0942 -23.3189
v  -8.8864 1.1410 -23.3150
v  -8.9084 1.1451 -23.3185
v  -8.8832 1.1196 -23.3187
v  -8.9084 1.1196 -23.3232
v  -8.6761 0.7194 -22.1351
v  -8.6777 0.3277 -22.1319
v  -8.6231 0.3336 -22.9183
v  -8.6272 0.7256 -22.9153
v  -8.6766 0.7313 -23.6954
v  -8.6783 0.3396 -23.7046
v  -8.7452 0.7195 -22.1351
v  -8.7469 0.3277 -22.1319
v  -8.6923 0.3336 -22.9183
v  -8.6964 0.7256 -22.9153
v  -8.7458 0.7313 -23.6954
v  -8.7475 0.3396 -23.7046
v  -8.7120 0.2635 -21.9803
v  -8.6468 0.2706 -22.9187
v  -9.5918 0.2710 -22.9184
v  -9.5195 0.2638 -21.9800
v  -9.1149 0.2624 -21.8142
v  -8.7126 0.2778 -23.8572
v  -9.5201 0.2781 -23.8569
v  -9.1157 0.2792 -24.0230
v  -8.6141 0.6622 -22.7489
v  -8.6144 0.5969 -22.7481
v  -8.6028 0.5982 -22.9163
v  -8.6036 0.6635 -22.9158
v  -8.6142 0.6648 -23.0826
v  -8.6146 0.5995 -23.0844
v  -8.6567 0.6623 -22.7489
v  -8.6571 0.5969 -22.7481
v  -8.6454 0.5982 -22.9163
v  -8.6463 0.6636 -22.9158
v  -8.6568 0.6648 -23.0826
v  -8.6572 0.5995 -23.0844
v  -8.9965 0.8646 -22.7172
v  -8.9783 0.8664 -22.9141
v  -8.9790 1.0396 -22.9128
v  -8.9962 1.0374 -22.7166
v  -9.2514 1.0397 -22.9127
v  -9.2531 0.8665 -22.9140
v  -9.2330 0.8647 -22.7171
v  -9.2324 1.0375 -22.7166
v  -9.1149 1.0379 -22.6853
v  -9.1149 0.8647 -22.6840
v  -8.9966 0.8676 -23.1110
v  -8.9963 1.0404 -23.1089
v  -9.2331 0.8677 -23.1110
v  -9.2325 1.0405 -23.1089
v  -9.1151 0.8682 -23.1441
v  -9.1150 1.0413 -23.1402
# 173 vertices

vn -0.0647 0.9979 0.0029
vn -0.0006 0.9999 -0.0139
vn 0.0000 0.9998 -0.0219
vn -0.0628 0.9980 0.0068
vn 0.0000 -0.9987 -0.0509
vn 0.0006 -0.9995 -0.0312
vn -0.0723 -0.9973 -0.0137
vn -0.0690 -0.9974 -0.0193
vn -0.9284 0.3582 -0.0987
vn -0.9286 0.3660 -0.0608
vn -0.9347 0.3547 -0.0241
vn -0.9385 0.3441 -0.0301
vn -0.9338 -0.3566 -0.0287
vn -0.9284 -0.3665 -0.0611
vn -0.9278 -0.3595 -0.0996
vn -0.9370 -0.3470 -0.0390
vn 0.0658 0.9978 0.0019
vn 0.0628 0.9980 0.0068
vn 0.0711 -0.9974 -0.0126
vn 0.0690 -0.9974 -0.0193
vn 0.9347 0.3547 -0.0241
vn 0.9286 0.3660 -0.0608
vn 0.9284 0.3582 -0.0987
vn 0.9385 0.3441 -0.0301
vn 0.9278 -0.3595 -0.0996
vn 0.9284 -0.3665 -0.0611
vn 0.9338 -0.3566 -0.0287
vn 0.9370 -0.3470 -0.0390
vn -0.1246 0.4432 0.8877
vn -0.1267 0.4384 0.8898
vn -0.0000 0.4640 0.8858
vn -0.0000 0.4699 0.8827
vn -0.1246 -0.4432 0.8877
vn 0.0000 -0.4700 0.8827
vn 0.0000 -0.4641 0.8858
vn -0.1267 -0.4384 0.8898
vn -0.1306 0.4649 -0.8757
vn -0.0000 0.4925 -0.8703
vn -0.0000 0.4865 -0.8737
vn -0.1329 0.4599 -0.8780
vn -0.1306 -0.4648 -0.8757
vn -0.1329 -0.4598 -0.8780
vn -0.0000 -0.4865 -0.8737
vn 0.0000 -0.4926 -0.8703
vn -0.0039 -1.0000 0.0053
vn -0.0037 -1.0000 -0.0000
vn 0.0000 -1.0000 -0.0000
vn 0.0000 -1.0000 0.0050
vn -0.0039 -1.0000 -0.0053
vn 0.0000 -1.0000 -0.0050
vn -0.8301 -0.5226 0.1946
vn -0.8330 -0.5163 0.1987
vn -0.8385 -0.5449 -0.0004
vn -0.8341 -0.5516 -0.0007
vn -0.8300 0.5227 0.1946
vn -0.8341 0.5516 -0.0007
vn -0.8385 0.5449 -0.0004
vn -0.8330 0.5164 0.1987
vn -0.8284 0.5254 -0.1941
vn -0.8309 0.5201 -0.1976
vn -0.8284 -0.5254 -0.1941
vn -0.8310 -0.5200 -0.1976
vn 0.1246 0.4432 0.8877
vn 0.1267 0.4384 0.8898
vn 0.1246 -0.4432 0.8877
vn 0.1267 -0.4384 0.8898
vn 0.1306 0.4649 -0.8757
vn 0.1329 0.4599 -0.8780
vn 0.1306 -0.4648 -0.8757
vn 0.1329 -0.4598 -0.8780
vn 0.0039 -1.0000 0.0053
vn 0.0037 -1.0000 -0.0000
vn 0.0039 -1.0000 -0.0053
vn 0.8301 -0.5226 0.1946
vn 0.8341 -0.5516 -0.0007
vn 0.8385 -0.5449 -0.0004
vn 0.8330 -0.5163 0.1987
vn 0.8300 0.5227 0.1946
vn 0.8330 0.5164 0.1987
vn 0.8385 0.5449 -0.0004
vn 0.8341 0.5516 -0.0007
vn 0.8284 0.5254 -0.1941
vn 0.8309 0.5201 -0.1976
vn 0.8284 -0.5254 -0.1941
vn 0.8310 -0.5200 -0.1976
vn -0.0004 1.0000 0.0019
vn -0.0000 1.0000 -0.0020
vn -0.0011 1.0000 0.0009
vn -0.0000 1.0000 0.0020
vn -0.0004 1.0000 -0.0019
vn -0.0011 1.0000 -0.0009
vn 0.0015 1.0000 -0.0000
vn 0.0004 1.0000 0.0019
vn 0.0011 1.0000 0.0009
vn 0.0004 1.0000 -0.0019
vn 0.0011 1.0000 -0.0009
vn -0.0015 1.0000 -0.0000
vn 0.1273 0.0000 -0.9919
vn -0.0000 0.0000 -1.0000
vn 0.0000 -0.0000 -1.0000
vn -0.0000 0.0000 1.0000
vn 0.1352 0.0000 0.9908
vn 1.0000 0.0000 0.0008
vn 0.9770 0.0000 -0.2131
vn 0.9767 0.0000 0.2147
vn -0.1273 0.0000 -0.9919
vn -0.1352 0.0000 0.9908
vn -0.9770 0.0000 -0.2131
vn -1.0000 0.0000 0.0008
vn -0.9767 0.0000 0.2147
vn -0.0022 1.0000 -0.0000
vn -0.0042 1.0000 0.0056
vn 0.0042 1.0000 0.0056
vn 0.0022 1.0000 -0.0000
vn 0.0042 1.0000 -0.0057
vn -0.0042 1.0000 -0.0057
vn -0.0055 -1.0000 0.0075
vn -0.0053 -1.0000 -0.0000
vn 0.0000 -1.0000 0.0072
vn -0.0055 -1.0000 -0.0076
vn 0.0000 -1.0000 -0.0072
vn 0.0055 -1.0000 0.0075
vn 0.0053 -1.0000 -0.0000
vn 0.0055 -1.0000 -0.0076
vn -1.0000 0.0000 -0.0008
vn -0.9770 0.0000 0.2131
vn -0.1273 0.0000 0.9919
vn 0.0000 0.0000 1.0000
vn 0.0000 0.0000 -1.0000
vn -0.1352 0.0000 -0.9908
vn -0.9767 0.0000 -0.2147
vn 0.1273 0.0000 0.9919
vn 0.9770 0.0000 0.2131
vn 1.0000 0.0000 -0.0008
vn 0.9767 0.0000 -0.2147
vn 0.1352 0.0000 -0.9908
vn -0.1901 0.1908 0.9630
vn -0.1856 0.1952 0.9630
vn -0.0000 0.1943 0.9809
vn -0.0000 0.1900 0.9818
vn -0.2012 0.2019 -0.9585
vn -0.0000 0.2015 -0.9795
vn -0.0000 0.2061 -0.9785
vn -0.1964 0.2066 -0.9585
vn -0.1635 0.9730 0.1630
vn -0.0000 0.9872 0.1593
vn -0.0000 1.0000 -0.0002
vn -0.1599 0.9871 -0.0006
vn -0.1643 0.9728 -0.1634
vn -0.0000 0.9873 -0.1589
vn -0.9683 0.1771 0.1759
vn -0.9846 0.1747 -0.0006
vn -0.9836 0.1804 -0.0002
vn -0.9683 0.1824 0.1706
vn -0.9681 0.1780 -0.1763
vn -0.9681 0.1841 -0.1700
vn 0.1901 0.1908 0.9630
vn 0.1856 0.1952 0.9630
vn 0.2011 0.2019 -0.9585
vn 0.1964 0.2066 -0.9585
vn 0.1635 0.9730 0.1630
vn 0.1599 0.9871 -0.0006
vn 0.1643 0.9728 -0.1634
vn 0.9683 0.1771 0.1759
vn 0.9683 0.1824 0.1706
vn 0.9836 0.1804 -0.0002
vn 0.9846 0.1747 -0.0006
vn 0.9681 0.1780 -0.1763
vn 0.9681 0.1841 -0.1700
vn -0.2011 0.2019 -0.9585
vn 0.0000 -0.0066 -1.0000
vn -0.0026 0.0000 -1.0000
vn 0.0000 0.0060 -1.0000
vn 0.0026 0.0000 -1.0000
vn -0.0677 0.9977 -0.0011
vn -0.0696 0.9976 0.0029
vn 0.0000 1.0000 -0.0067
vn 0.0000 0.9999 -0.0107
vn 0.0677 0.9977 -0.0011
vn 0.0696 0.9976 0.0029
vn -0.9999 0.0000 -0.0157
vn -0.0003 0.0000 -1.0000
vn 0.0003 0.0000 -1.0000
vn 0.9999 0.0000 -0.0157
vn -0.0674 0.9977 -0.0007
vn -0.0011 1.0000 -0.0037
vn 0.0012 -1.0000 -0.0092
vn -0.0765 -0.9971 -0.0038
vn -0.9245 0.3806 -0.0213
vn -0.9277 0.3729 -0.0146
vn -0.9278 -0.3727 -0.0153
vn -0.9250 -0.3794 -0.0212
vn 0.0696 0.9976 0.0013
vn 0.0740 -0.9972 -0.0059
vn 0.9277 0.3729 -0.0146
vn 0.9245 0.3806 -0.0213
vn 0.9250 -0.3794 -0.0212
vn 0.9278 -0.3727 -0.0153
vn -0.0681 0.9977 -0.0004
vn -0.0696 0.9976 0.0037
vn -0.0000 1.0000 -0.0096
vn 0.0000 0.9999 -0.0138
vn 0.0681 0.9977 -0.0004
vn 0.0696 0.9976 0.0037
vn -0.9998 0.0000 -0.0201
vn -0.0002 0.0000 -1.0000
vn 0.0002 0.0000 -1.0000
vn 0.9998 0.0000 -0.0201
vn -0.0895 0.9960 -0.0013
vn 0.0000 1.0000 -0.0043
vn 0.0000 1.0000 -0.0018
vn -0.0873 0.9962 0.0012
vn -0.0000 -1.0000 -0.0067
vn 0.0000 -1.0000 -0.0094
vn -0.0983 -0.9951 -0.0061
vn -0.0959 -0.9954 -0.0034
vn -0.9654 0.2605 -0.0081
vn -0.9630 0.2693 -0.0146
vn -0.9646 0.2636 -0.0104
vn -0.9670 0.2547 -0.0039
vn -0.9642 -0.2650 -0.0108
vn -0.9627 -0.2701 -0.0145
vn -0.9650 -0.2622 -0.0088
vn -0.9664 -0.2572 -0.0051
vn 0.0895 0.9960 -0.0013
vn 0.0873 0.9962 0.0012
vn 0.0983 -0.9951 -0.0061
vn 0.0959 -0.9954 -0.0034
vn 0.9646 0.2636 -0.0104
vn 0.9630 0.2693 -0.0146
vn 0.9654 0.2605 -0.0081
vn 0.9670 0.2547 -0.0039
vn 0.9650 -0.2622 -0.0088
vn 0.9627 -0.2701 -0.0145
vn 0.9642 -0.2650 -0.0108
vn 0.9664 -0.2572 -0.0051
# 236 vertex normals

vt 0.0957 0.9592 0.0000
vt 0.1013 0.9575 0.0000
vt 0.1013 0.9585 0.0000
vt 0.0962 0.9600 0.0000
vt 0.1013 0.9827 0.0000
vt 0.1013 0.9837 0.0000
vt 0.0957 0.9819 0.0000
vt 0.0962 0.9810 0.0000
vt 0.0954 0.9705 0.0000
vt 0.0948 0.9705 0.0000
vt 0.1069 0.9592 0.0000
vt 0.1064 0.9600 0.0000
vt 0.1069 0.9819 0.0000
vt 0.1064 0.9810 0.0000
vt 0.1078 0.9705 0.0000
vt 0.1072 0.9705 0.0000
vt 0.2778 0.9670 0.0000
vt 0.2771 0.9745 0.0000
vt 0.2822 0.9745 0.0000
vt 0.2822 0.9660 0.0000
vt 0.2778 0.9819 0.0000
vt 0.2822 0.9830 0.0000
vt 0.2771 0.9830 0.0000
vt 0.2822 0.9846 0.0000
vt 0.2762 0.9745 0.0000
vt 0.2771 0.9660 0.0000
vt 0.2866 0.9670 0.0000
vt 0.2873 0.9745 0.0000
vt 0.2866 0.9819 0.0000
vt 0.2873 0.9830 0.0000
vt 0.2882 0.9745 0.0000
vt 0.2873 0.9660 0.0000
vt 0.2120 0.9600 0.0000
vt 0.2163 0.9589 0.0000
vt 0.2113 0.9589 0.0000
vt 0.2207 0.9600 0.0000
vt 0.2214 0.9589 0.0000
vt 0.9064 0.9652 0.0000
vt 0.9014 0.9652 0.0000
vt 0.9021 0.9663 0.0000
vt 0.9108 0.9663 0.0000
vt 0.9115 0.9652 0.0000
vt 0.2118 0.9578 0.0000
vt 0.2111 0.9590 0.0000
vt 0.2162 0.9605 0.0000
vt 0.2162 0.9590 0.0000
vt 0.2206 0.9578 0.0000
vt 0.2213 0.9590 0.0000
vt 0.4096 0.8949 0.0000
vt 0.4089 0.9023 0.0000
vt 0.4139 0.9023 0.0000
vt 0.4139 0.8938 0.0000
vt 0.4139 0.8924 0.0000
vt 0.4089 0.8938 0.0000
vt 0.4080 0.9023 0.0000
vt 0.4183 0.8949 0.0000
vt 0.4190 0.9023 0.0000
vt 0.4190 0.8938 0.0000
vt 0.4199 0.9023 0.0000
vt 0.3937 0.9017 0.0000
vt 0.3930 0.9092 0.0000
vt 0.3981 0.9092 0.0000
vt 0.3981 0.9007 0.0000
vt 0.3981 0.8993 0.0000
vt 0.3930 0.9007 0.0000
vt 0.3921 0.9092 0.0000
vt 0.4025 0.9017 0.0000
vt 0.4032 0.9092 0.0000
vt 0.4032 0.9007 0.0000
vt 0.4041 0.9092 0.0000
vt 0.0913 0.9687 0.0000
vt 0.0905 0.9673 0.0000
vt 0.0964 0.9653 0.0000
vt 0.0964 0.9673 0.0000
vt 0.1016 0.9687 0.0000
vt 0.1024 0.9673 0.0000
vt 0.2851 0.7755 0.0000
vt 0.2901 0.7741 0.0000
vt 0.2901 0.7748 0.0000
vt 0.2854 0.7761 0.0000
vt 0.2901 0.7941 0.0000
vt 0.2851 0.7926 0.0000
vt 0.2854 0.7920 0.0000
vt 0.2901 0.7934 0.0000
vt 0.2846 0.7841 0.0000
vt 0.2842 0.7841 0.0000
vt 0.2952 0.7755 0.0000
vt 0.2949 0.7761 0.0000
vt 0.2952 0.7926 0.0000
vt 0.2949 0.7920 0.0000
vt 0.2961 0.7841 0.0000
vt 0.2957 0.7841 0.0000
vt 0.2858 0.7766 0.0000
vt 0.2901 0.7755 0.0000
vt 0.2945 0.7766 0.0000
vt 0.2901 0.7926 0.0000
vt 0.2858 0.7914 0.0000
vt 0.2851 0.7841 0.0000
vt 0.2945 0.7914 0.0000
vt 0.2952 0.7841 0.0000
# 100 texture coords

o TV_01
g TV_01
usemtl Material__20
s off
f 1/1/1 2/2/2 3/3/3 4/4/4 
f 5/5/5 6/6/6 7/7/7 8/8/8 
f 9/9/9 10/10/10 1/1/11 4/4/12 
f 7/7/13 10/10/14 9/9/15 8/8/16 
f 3/3/3 2/2/2 11/11/17 12/12/18 
f 13/13/19 6/6/6 5/5/5 14/14/20 
f 11/11/21 15/15/22 16/16/23 12/12/24 
f 16/16/25 15/15/26 13/13/27 14/14/28 
f 17/17/29 18/18/30 19/19/31 20/20/32 
f 21/21/33 22/22/34 19/19/35 18/18/36 
f 23/17/37 24/20/38 25/19/39 26/18/40 
f 27/21/41 26/18/42 25/19/43 28/22/44 
f 21/21/45 29/23/46 30/24/47 22/22/48 
f 27/21/49 28/22/50 30/24/47 29/23/46 
f 21/21/51 18/18/52 31/25/53 29/23/54 
f 17/17/55 32/26/56 31/25/57 18/18/58 
f 23/17/59 26/18/60 31/25/57 32/26/56 
f 27/21/61 29/23/54 31/25/53 26/18/62 
f 33/27/63 20/20/32 19/19/31 34/28/64 
f 35/29/65 34/28/66 19/19/35 22/22/34 
f 36/27/67 37/28/68 25/19/39 24/20/38 
f 38/29/69 28/22/44 25/19/43 37/28/70 
f 35/29/71 22/22/48 30/24/47 39/30/72 
f 38/29/73 39/30/72 30/24/47 28/22/50 
f 35/29/74 39/30/75 40/31/76 34/28/77 
f 33/27/78 34/28/79 40/31/80 41/32/81 
f 36/27/82 41/32/81 40/31/80 37/28/83 
f 38/29/84 37/28/85 40/31/76 39/30/75 
f 17/33/86 20/34/87 42/34/87 43/33/88 
f 24/34/89 23/33/90 44/33/91 45/34/89 
f 32/35/92 17/33/86 43/33/88 46/35/92 
f 23/33/90 32/35/92 46/35/92 44/33/91 
f 20/34/87 33/36/93 47/36/94 42/34/87 
f 36/36/95 24/34/89 45/34/89 48/36/96 
f 33/36/93 41/37/97 49/37/97 47/36/94 
f 41/37/97 36/36/95 48/36/96 49/37/97 
f 43/33/98 42/34/99 50/34/100 51/33/98 
f 45/34/101 44/33/102 52/33/102 53/34/101 
f 46/35/103 43/33/104 51/33/104 54/35/103 
f 44/33/105 46/35/103 54/35/103 52/33/105 
f 42/34/99 47/36/106 55/36/106 50/34/100 
f 48/36/107 45/34/101 53/34/101 56/36/107 
f 47/36/108 49/37/109 57/37/109 55/36/108 
f 49/37/109 48/36/110 56/36/110 57/37/109 
f 50/38/89 54/39/111 51/40/112 
f 50/38/89 55/41/113 57/42/114 
f 57/42/114 56/41/115 53/38/87 
f 53/38/87 52/40/116 54/39/111 
f 50/38/89 57/42/114 53/38/87 
f 50/38/89 53/38/87 54/39/111 
f 58/43/117 59/44/118 60/45/47 61/46/119 
f 62/43/120 63/46/121 60/45/47 59/44/118 
f 64/47/122 61/46/119 60/45/47 65/48/123 
f 66/47/124 65/48/123 60/45/47 63/46/121 
f 59/44/125 58/43/126 67/43/126 68/44/125 
f 58/43/127 61/46/101 69/46/128 67/43/127 
f 63/46/129 62/43/130 70/43/130 71/46/129 
f 62/43/131 59/44/125 68/44/125 70/43/131 
f 61/46/101 64/47/132 72/47/132 69/46/128 
f 64/47/133 65/48/134 73/48/134 72/47/133 
f 65/48/134 66/47/135 74/47/135 73/48/134 
f 66/47/136 63/46/129 71/46/129 74/47/136 
f 75/49/137 76/50/138 77/51/139 78/52/140 
f 79/49/141 80/52/142 81/51/143 82/50/144 
f 75/49/145 78/52/146 83/53/147 84/54/148 
f 79/49/149 84/54/148 83/53/147 80/52/150 
f 75/49/151 84/54/152 85/55/153 76/50/154 
f 79/49/155 82/50/156 85/55/153 84/54/152 
f 86/56/157 78/52/140 77/51/139 87/57/158 
f 88/56/159 89/57/160 81/51/143 80/52/142 
f 86/56/161 90/58/162 83/53/147 78/52/146 
f 88/56/163 80/52/150 83/53/147 90/58/162 
f 86/56/164 87/57/165 91/59/166 90/58/167 
f 88/56/168 90/58/167 91/59/166 89/57/169 
f 92/60/137 93/61/138 94/62/139 95/63/140 
f 96/60/170 97/63/142 98/62/143 99/61/144 
f 92/60/145 95/63/146 100/64/147 101/65/148 
f 96/60/149 101/65/148 100/64/147 97/63/150 
f 92/60/151 101/65/152 102/66/153 93/61/154 
f 96/60/155 99/61/156 102/66/153 101/65/152 
f 103/67/157 95/63/140 94/62/139 104/68/158 
f 105/67/159 106/68/160 98/62/143 97/63/142 
f 103/67/161 107/69/162 100/64/147 95/63/146 
f 105/67/163 97/63/150 100/64/147 107/69/162 
f 103/67/164 104/68/165 108/70/166 107/69/167 
f 105/67/168 107/69/167 108/70/166 106/68/169 
f 109/60/137 110/61/138 111/62/139 112/63/140 
f 113/60/170 114/63/142 115/62/143 116/61/144 
f 109/60/145 112/63/146 117/64/147 118/65/148 
f 113/60/149 118/65/148 117/64/147 114/63/150 
f 109/60/151 118/65/152 119/66/153 110/61/154 
f 113/60/155 116/61/156 119/66/153 118/65/152 
f 120/67/157 112/63/140 111/62/139 121/68/158 
f 122/67/159 123/68/160 115/62/143 114/63/142 
f 120/67/161 124/69/162 117/64/147 112/63/146 
f 122/67/163 114/63/150 117/64/147 124/69/162 
f 120/67/164 121/68/165 125/70/166 124/69/167 
f 122/67/168 124/69/167 125/70/166 123/68/169 
f 3/3/171 12/12/171 4/4/171 
f 12/12/172 16/16/172 14/14/172 
f 14/14/173 5/5/173 8/8/173 
f 8/8/174 9/9/174 4/4/174 
f 14/14/129 8/8/129 4/4/129 
f 12/12/129 14/14/129 4/4/129 
f 126/71/175 127/72/176 128/73/177 129/74/178 
f 130/75/179 129/74/178 128/73/177 131/76/180 
f 127/72/181 126/71/181 132/71/181 133/72/181 
f 128/73/101 127/72/101 133/72/101 134/73/101 
f 126/71/182 129/74/182 135/74/182 132/71/182 
f 129/74/183 130/75/183 136/75/183 135/74/183 
f 131/76/128 128/73/128 134/73/128 137/76/128 
f 130/75/184 131/76/184 137/76/184 136/75/184 
f 138/77/185 139/78/186 2/79/2 1/80/1 
f 140/81/187 141/82/188 7/83/7 6/84/6 
f 10/85/10 142/86/189 138/77/190 1/80/11 
f 141/82/191 142/86/192 10/85/14 7/83/13 
f 139/78/186 143/87/193 11/88/17 2/79/2 
f 144/89/194 140/81/187 6/84/6 13/90/19 
f 143/87/195 145/91/196 15/92/22 11/88/21 
f 15/92/26 145/91/197 144/89/198 13/90/27 
f 146/93/199 147/77/200 148/78/201 149/94/202 
f 150/95/203 149/94/202 148/78/201 151/87/204 
f 147/77/205 146/93/205 152/93/205 153/77/205 
f 148/78/128 147/77/128 153/77/128 154/78/128 
f 146/93/206 149/94/206 155/94/206 152/93/206 
f 149/94/207 150/95/207 156/95/207 155/94/207 
f 151/87/128 148/78/128 154/78/128 157/87/128 
f 150/95/208 151/87/208 157/87/208 156/95/208 
f 158/80/209 159/79/210 160/94/211 161/93/212 
f 162/96/213 163/84/214 164/83/215 165/97/216 
f 166/98/217 167/85/218 158/80/219 161/93/220 
f 164/83/221 167/85/222 166/98/223 165/97/224 
f 160/94/211 159/79/210 168/88/225 169/95/226 
f 170/90/227 163/84/214 162/96/213 171/99/228 
f 168/88/229 172/92/230 173/100/231 169/95/232 
f 173/100/233 172/92/234 170/90/235 171/99/236 
# 124 polygons - 12 triangles

#
# object Sofa_01
#

v  -4.8423 0.6077 -24.2061
v  -4.8959 0.6341 -23.0456
v  -4.4722 0.6680 -23.0456
v  -4.4722 0.6341 -24.2144
v  -4.0783 0.6077 -24.2061
v  -4.0744 0.6341 -23.0456
v  -4.8859 0.4936 -24.2128
v  -4.9533 0.4952 -23.0456
v  -4.8423 0.6077 -21.8686
v  -4.4722 0.6341 -21.8553
v  -4.0783 0.6077 -21.8686
v  -4.8859 0.4936 -21.8578
v  -4.9580 0.4384 -23.0456
v  -4.8901 0.4387 -24.2136
v  -4.8517 0.2462 -24.2081
v  -4.9134 0.2462 -23.0456
v  -4.8901 0.4387 -21.8566
v  -4.8517 0.2462 -21.8653
v  -4.9753 0.7235 -24.5583
v  -5.0097 0.7415 -24.3924
v  -4.4722 0.7647 -24.3924
v  -4.4722 0.7415 -24.5958
v  -3.9626 0.7235 -24.5583
v  -3.9342 0.7415 -24.3924
v  -5.0097 0.6275 -24.5958
v  -5.0541 0.6275 -24.3924
v  -3.8978 0.6275 -24.3924
v  -3.9342 0.6275 -24.5958
v  -4.4722 0.6275 -24.6441
v  -4.9753 0.7235 -24.2190
v  -4.4722 0.7415 -24.1767
v  -3.9626 0.7235 -24.2190
v  -5.0097 0.6275 -24.1767
v  -3.9342 0.6275 -24.1767
v  -4.4722 0.6275 -24.1224
v  -5.0097 0.2462 -24.5958
v  -5.0541 0.2462 -24.3924
v  -3.8978 0.2462 -24.3924
v  -3.9342 0.2462 -24.5958
v  -4.4722 0.2462 -24.6441
v  -5.0097 0.2462 -24.1767
v  -3.9342 0.2462 -24.1767
v  -4.4722 0.2462 -24.1224
v  -4.9753 0.7235 -21.5346
v  -4.4722 0.7415 -21.4970
v  -4.4722 0.7647 -21.7006
v  -5.0097 0.7415 -21.7006
v  -3.9626 0.7235 -21.5346
v  -3.9342 0.7415 -21.7006
v  -5.0541 0.6275 -21.7006
v  -5.0097 0.6275 -21.4970
v  -3.9342 0.6275 -21.4970
v  -3.8978 0.6275 -21.7006
v  -4.4722 0.6275 -21.4488
v  -4.9753 0.7235 -21.8744
v  -4.4722 0.7415 -21.9166
v  -3.9626 0.7235 -21.8744
v  -5.0097 0.6275 -21.9166
v  -3.9342 0.6275 -21.9166
v  -4.4722 0.6275 -21.9710
v  -5.0541 0.2462 -21.7006
v  -5.0097 0.2462 -21.4970
v  -3.9342 0.2462 -21.4970
v  -3.8978 0.2462 -21.7006
v  -4.4722 0.2462 -21.4488
v  -5.0097 0.2462 -21.9166
v  -3.9342 0.2462 -21.9166
v  -4.4722 0.2462 -21.9710
v  -3.8167 1.1687 -24.1752
v  -3.9506 1.1868 -24.2526
v  -3.9506 1.2100 -23.0458
v  -3.7953 1.1868 -23.0458
v  -3.8167 1.1687 -21.9038
v  -3.9506 1.1868 -21.8402
v  -3.7953 1.0728 -24.2526
v  -3.9506 1.0728 -24.3520
v  -3.9506 1.0728 -21.7584
v  -3.7953 1.0728 -21.8402
v  -3.7679 1.0728 -23.0458
v  -4.0845 1.1687 -24.1752
v  -4.1058 1.1868 -23.0458
v  -4.0845 1.1687 -21.9038
v  -4.1058 1.0728 -24.2526
v  -4.1058 1.0728 -21.8402
v  -4.1333 1.0728 -23.0458
v  -3.7953 0.2462 -24.2526
v  -3.9506 0.2462 -24.3520
v  -3.9506 0.2462 -21.7584
v  -3.7953 0.2462 -21.8402
v  -3.7679 0.2462 -23.0458
v  -4.1058 0.2462 -24.2526
v  -4.1058 0.2462 -21.8402
v  -4.1333 0.2462 -23.0458
# 93 vertices

vn -0.0758 0.0758 -0.9942
vn -0.0006 0.0761 -0.9971
vn -0.0007 -0.0001 -1.0000
vn -0.0738 -0.0001 -0.9973
vn -0.0713 -0.0760 -0.9946
vn -0.0006 -0.0762 -0.9971
vn -0.1439 0.9185 -0.3683
vn -0.1523 0.9618 -0.2277
vn -0.0014 0.9742 -0.2257
vn -0.0012 0.9280 -0.3725
vn 0.0744 0.0759 -0.9943
vn 0.0725 -0.0001 -0.9974
vn 0.0701 -0.0761 -0.9946
vn 0.1414 0.9186 -0.3691
vn 0.1496 0.9622 -0.2275
vn -0.0014 0.9978 0.0660
vn -0.1545 0.9857 0.0667
vn -0.1483 0.9665 0.2095
vn -0.0014 0.9773 0.2120
vn 0.1517 0.9862 0.0667
vn 0.1457 0.9668 0.2100
vn -0.2013 0.0418 -0.9786
vn -0.0000 0.0426 -0.9991
vn -0.0000 0.0001 -1.0000
vn -0.2009 0.0001 -0.9796
vn -0.2001 -0.0415 -0.9789
vn -0.0000 -0.0423 -0.9991
vn -0.3587 0.8650 -0.3509
vn -0.3700 0.9119 -0.1775
vn -0.0000 0.9830 -0.1834
vn -0.0000 0.9267 -0.3759
vn -0.3079 -0.9025 -0.3012
vn -0.0000 -0.9486 -0.3166
vn -0.0000 -0.9878 -0.1555
vn -0.3130 -0.9379 -0.1496
vn -0.9847 0.0361 -0.1704
vn -0.9855 0.0001 -0.1699
vn -0.9964 0.0001 -0.0851
vn -0.9965 0.0366 -0.0753
vn -0.9849 -0.0359 -0.1693
vn -0.9964 -0.0364 -0.0767
vn 0.2013 0.0418 -0.9786
vn 0.2009 0.0001 -0.9796
vn 0.2001 -0.0415 -0.9789
vn 0.3587 0.8650 -0.3509
vn 0.3700 0.9119 -0.1775
vn 0.3079 -0.9025 -0.3012
vn 0.3130 -0.9379 -0.1496
vn 0.9847 0.0361 -0.1704
vn 0.9965 0.0366 -0.0753
vn 0.9964 0.0001 -0.0851
vn 0.9855 0.0001 -0.1699
vn 0.9849 -0.0359 -0.1693
vn 0.9964 -0.0364 -0.0767
vn -0.3694 0.9293 -0.0000
vn -0.0000 1.0000 -0.0000
vn 0.0000 -1.0000 0.0000
vn -0.3108 -0.9505 0.0000
vn -1.0000 0.0000 0.0000
vn -0.9993 0.0367 -0.0000
vn -0.9993 -0.0366 0.0000
vn 0.3694 0.9293 -0.0000
vn 0.3108 -0.9505 0.0000
vn 0.9993 0.0367 -0.0000
vn 1.0000 0.0000 -0.0000
vn 0.9993 -0.0366 0.0000
vn 0.0000 0.0001 -1.0000
vn 0.0000 0.0426 -0.9991
vn 0.0000 -0.0423 -0.9991
vn 0.0000 0.9267 -0.3759
vn 0.0000 0.9830 -0.1834
vn 0.0000 -0.9878 -0.1555
vn 0.0000 -0.9486 -0.3166
vn 1.0000 0.0000 0.0000
vn -1.0000 0.0000 -0.0000
vn -0.0518 -0.1460 -0.9879
vn -0.0524 0.0000 -0.9986
vn -0.0002 -0.0000 -1.0000
vn -0.0002 -0.1457 -0.9893
vn 0.0514 -0.1451 -0.9881
vn 0.0520 0.0000 -0.9986
vn -0.9254 -0.2243 -0.3055
vn -0.9624 -0.2281 -0.1473
vn -0.9879 -0.0000 -0.1553
vn -0.9496 -0.0000 -0.3135
vn 0.9476 -0.1890 -0.2574
vn 0.9650 0.0000 -0.2621
vn 0.9915 0.0000 -0.1302
vn 0.9741 -0.1899 -0.1226
vn -0.0609 -0.9704 -0.2337
vn -0.0002 -0.9724 -0.2334
vn -0.0001 -0.9931 -0.1170
vn -0.0623 -0.9923 -0.1069
vn 0.0605 -0.9708 -0.2323
vn 0.0620 -0.9922 -0.1083
vn -0.0518 0.1460 -0.9879
vn -0.0002 0.1457 -0.9893
vn 0.0514 0.1451 -0.9881
vn -0.9254 0.2243 -0.3055
vn -0.9624 0.2281 -0.1473
vn 0.9476 0.1890 -0.2574
vn 0.9741 0.1900 -0.1226
vn -0.0609 0.9704 -0.2337
vn -0.0623 0.9923 -0.1069
vn -0.0001 0.9931 -0.1170
vn -0.0002 0.9724 -0.2334
vn 0.0605 0.9708 -0.2323
vn 0.0620 0.9922 -0.1083
vn -0.9741 -0.2263 0.0000
vn -1.0000 -0.0000 -0.0000
vn 0.9822 -0.1878 0.0000
vn -0.0000 -1.0000 0.0000
vn -0.0626 -0.9980 0.0000
vn 0.0626 -0.9980 0.0000
vn -0.9741 0.2263 -0.0000
vn 0.9822 0.1878 0.0000
vn -0.0626 0.9980 -0.0000
vn 0.0626 0.9980 -0.0000
# 118 vertex normals

vt 0.7003 0.7685 0.0000
vt 0.7046 0.7674 0.0000
vt 0.7046 0.7760 0.0000
vt 0.6996 0.7760 0.0000
vt 0.7003 0.7833 0.0000
vt 0.7046 0.7845 0.0000
vt 0.6997 0.7676 0.0000
vt 0.7046 0.7663 0.0000
vt 0.7090 0.7685 0.0000
vt 0.7097 0.7760 0.0000
vt 0.7090 0.7833 0.0000
vt 0.7096 0.7676 0.0000
vt 0.7046 0.7660 0.0000
vt 0.6996 0.7674 0.0000
vt 0.7097 0.7674 0.0000
vt 0.7046 0.7860 0.0000
vt 0.6996 0.7845 0.0000
vt 0.6987 0.7760 0.0000
vt 0.7097 0.7845 0.0000
vt 0.7106 0.7760 0.0000
# 20 texture coords

o Sofa_01
g Sofa_01
usemtl Material__20
s off
f 174/101/237 175/102/238 176/103/239 177/104/240 
f 178/105/241 177/104/240 176/103/239 179/106/242 
f 174/101/243 180/107/244 181/108/245 175/102/246 
f 182/109/247 183/110/248 176/103/239 175/102/238 
f 184/111/249 179/106/242 176/103/239 183/110/248 
f 182/109/250 175/102/246 181/108/245 185/112/251 
f 186/113/252 187/114/253 188/114/254 189/113/255 
f 190/115/256 186/113/252 189/113/255 191/115/257 
f 192/101/258 193/102/259 194/103/260 195/104/261 
f 196/105/262 195/104/261 194/103/260 197/106/263 
f 192/101/264 198/114/265 199/113/266 193/102/267 
f 196/105/268 197/106/269 200/116/270 201/117/271 
f 192/101/272 195/104/273 202/118/274 198/114/275 
f 196/105/276 201/117/277 202/118/274 195/104/273 
f 203/109/278 204/110/279 194/103/260 193/102/259 
f 205/111/280 197/106/263 194/103/260 204/110/279 
f 203/109/281 193/102/267 199/113/266 206/115/282 
f 205/111/283 207/119/284 200/116/270 197/106/269 
f 203/109/285 206/115/286 208/120/287 204/110/288 
f 205/111/289 204/110/288 208/120/287 207/119/290 
f 199/113/266 198/114/265 209/114/291 210/113/292 
f 201/117/271 200/116/270 211/116/293 212/117/294 
f 198/114/275 202/118/274 213/118/295 209/114/296 
f 202/118/274 201/117/277 212/117/297 213/118/295 
f 206/115/282 199/113/266 210/113/292 214/115/298 
f 200/116/270 207/119/284 215/119/299 211/116/293 
f 208/120/287 206/115/286 214/115/300 216/120/301 
f 207/119/290 208/120/287 216/120/301 215/119/302 
f 217/101/278 218/104/279 219/103/303 220/102/304 
f 221/105/280 222/106/305 219/103/303 218/104/279 
f 217/101/281 220/102/306 223/113/307 224/114/282 
f 221/105/283 225/117/284 226/116/308 222/106/309 
f 217/101/285 224/114/286 227/118/287 218/104/288 
f 221/105/289 218/104/288 227/118/287 225/117/290 
f 228/109/258 220/102/304 219/103/303 229/110/261 
f 230/111/262 229/110/261 219/103/303 222/106/305 
f 228/109/264 231/115/265 223/113/307 220/102/306 
f 230/111/268 222/106/309 226/116/308 232/119/271 
f 228/109/272 229/110/273 233/120/274 231/115/275 
f 230/111/276 232/119/277 233/120/274 229/110/273 
f 223/113/307 234/113/292 235/114/298 224/114/282 
f 225/117/284 236/117/299 237/116/293 226/116/308 
f 224/114/286 235/114/300 238/118/310 227/118/287 
f 227/118/287 238/118/310 236/117/302 225/117/290 
f 231/115/265 239/115/291 234/113/292 223/113/307 
f 226/116/308 237/116/293 240/119/294 232/119/271 
f 233/120/274 241/120/311 239/115/296 231/115/275 
f 232/119/277 240/119/297 241/120/311 233/120/274 
f 242/101/312 243/102/313 244/103/314 245/104/315 
f 246/105/316 245/104/315 244/103/314 247/106/317 
f 242/101/318 248/114/319 249/113/320 243/102/321 
f 246/105/322 247/106/323 250/116/324 251/117/325 
f 242/101/326 245/104/327 252/118/328 248/114/329 
f 246/105/330 251/117/331 252/118/328 245/104/327 
f 253/109/332 254/110/333 244/103/314 243/102/313 
f 255/111/334 247/106/317 244/103/314 254/110/333 
f 253/109/335 243/102/321 249/113/320 256/115/336 
f 255/111/337 257/119/338 250/116/324 247/106/323 
f 253/109/339 256/115/340 258/120/341 254/110/342 
f 255/111/343 254/110/342 258/120/341 257/119/344 
f 249/113/320 248/114/319 259/114/345 260/113/346 
f 251/117/325 250/116/324 261/116/310 262/117/347 
f 248/114/329 252/118/328 263/118/348 259/114/349 
f 252/118/328 251/117/331 262/117/350 263/118/348 
f 256/115/336 249/113/320 260/113/346 264/115/351 
f 250/116/324 257/119/338 265/119/352 261/116/310 
f 258/120/341 256/115/340 264/115/353 266/120/292 
f 257/119/344 258/120/341 266/120/292 265/119/354 
f 180/107/244 187/114/253 186/113/252 181/108/245 
f 181/108/245 186/113/252 190/115/256 185/112/251 
# 70 polygons

#
# object Side_Table_01
#

v  -7.3917 0.9605 -22.4436
v  -6.9148 0.9607 -22.3740
v  -6.9148 0.9609 -22.9249
v  -7.4678 0.9607 -22.9249
v  -7.3917 0.9605 -23.4013
v  -6.9148 0.9607 -23.4779
v  -7.4492 0.9199 -22.3893
v  -6.9148 0.9200 -22.3067
v  -6.9148 0.9200 -23.5498
v  -7.4492 0.9199 -23.4590
v  -7.5393 0.9200 -22.9249
v  -6.4378 0.9605 -22.4436
v  -6.3617 0.9607 -22.9249
v  -6.4378 0.9605 -23.4013
v  -6.3804 0.9199 -22.3893
v  -6.3804 0.9199 -23.4590
v  -6.2902 0.9200 -22.9249
v  -7.4573 0.8044 -22.3844
v  -6.9148 0.8044 -22.2965
v  -6.9148 0.8044 -23.5640
v  -7.4573 0.8044 -23.4674
v  -7.5532 0.8044 -22.9249
v  -6.3722 0.8044 -22.3844
v  -6.3722 0.8044 -23.4674
v  -6.2763 0.8044 -22.9249
v  -7.3490 0.8211 -22.6058
v  -7.2194 0.8211 -22.6058
v  -7.2194 0.2765 -22.6058
v  -7.3490 0.2765 -22.6058
v  -7.3490 0.2765 -22.4757
v  -7.3490 0.8211 -22.4757
v  -7.2194 0.8211 -22.4757
v  -7.2194 0.2765 -22.4757
v  -6.5921 0.8211 -22.6058
v  -6.4626 0.8211 -22.6058
v  -6.4626 0.2765 -22.6058
v  -6.5921 0.2765 -22.6058
v  -6.5921 0.2765 -22.4757
v  -6.5921 0.8211 -22.4757
v  -6.4626 0.8211 -22.4757
v  -6.4626 0.2765 -22.4757
v  -7.3490 0.8211 -23.3366
v  -7.2194 0.8211 -23.3366
v  -7.2194 0.2765 -23.3366
v  -7.3490 0.2765 -23.3366
v  -7.3490 0.2765 -23.2065
v  -7.3490 0.8211 -23.2065
v  -7.2194 0.8211 -23.2065
v  -7.2194 0.2765 -23.2065
v  -6.5921 0.8211 -23.3366
v  -6.4626 0.8211 -23.3366
v  -6.4626 0.2765 -23.3366
v  -6.5921 0.2765 -23.3366
v  -6.5921 0.2765 -23.2065
v  -6.5921 0.8211 -23.2065
v  -6.4626 0.8211 -23.2065
v  -6.4626 0.2765 -23.2065
# 57 vertices

vn -0.0004 0.0004 -1.0000
vn 0.0000 0.0004 -1.0000
vn -0.0000 -0.0000 -1.0000
vn -0.0004 -0.0000 -1.0000
vn -0.0004 -0.0004 -1.0000
vn 0.0000 -0.0004 -1.0000
vn -0.0827 0.5364 -0.8399
vn -0.0833 0.5380 -0.8388
vn 0.0000 0.5196 -0.8544
vn 0.0000 0.5172 -0.8559
vn -0.0867 -0.5118 -0.8547
vn 0.0000 -0.4923 -0.8704
vn 0.0000 -0.4949 -0.8690
vn -0.0874 -0.5135 -0.8536
vn -0.5162 0.0867 -0.8520
vn -0.4941 -0.0004 -0.8694
vn -0.4967 -0.0003 -0.8679
vn -0.5182 0.0874 -0.8508
vn -0.5132 -0.0864 -0.8539
vn -0.5149 -0.0870 -0.8528
vn 0.0004 0.0004 -1.0000
vn 0.0004 -0.0000 -1.0000
vn 0.0004 -0.0004 -1.0000
vn 0.0827 0.5364 -0.8399
vn 0.0833 0.5380 -0.8388
vn 0.0867 -0.5118 -0.8547
vn 0.0874 -0.5135 -0.8536
vn 0.5162 0.0867 -0.8520
vn 0.5182 0.0874 -0.8508
vn 0.4967 -0.0003 -0.8679
vn 0.4941 -0.0004 -0.8694
vn 0.5132 -0.0864 -0.8539
vn 0.5149 -0.0870 -0.8528
vn -0.1587 0.9857 -0.0572
vn -0.1597 0.9858 -0.0528
vn 0.0000 0.9965 -0.0830
vn 0.0000 0.9962 -0.0876
vn -0.0000 -0.9931 -0.1171
vn -0.1747 -0.9811 -0.0837
vn -0.1736 -0.9808 -0.0885
vn 0.0000 -0.9925 -0.1222
vn -0.9935 -0.0002 -0.1140
vn -0.9817 0.1742 -0.0763
vn -0.9815 0.1730 -0.0818
vn -0.9929 -0.0002 -0.1193
vn -0.9812 -0.1725 -0.0863
vn -0.9814 -0.1735 -0.0816
vn 0.1597 0.9858 -0.0528
vn 0.1587 0.9857 -0.0572
vn 0.1736 -0.9808 -0.0885
vn 0.1747 -0.9811 -0.0837
vn 0.9815 0.1730 -0.0818
vn 0.9817 0.1742 -0.0763
vn 0.9935 -0.0002 -0.1140
vn 0.9929 -0.0002 -0.1193
vn 0.9814 -0.1735 -0.0816
vn 0.9812 -0.1725 -0.0863
vn 0.0000 -1.0000 0.0000
vn -1.0000 -0.0000 0.0000
vn -1.0000 0.0000 -0.0000
vn 0.0000 1.0000 -0.0000
vn 1.0000 0.0000 -0.0000
# 62 vertex normals

vt 0.9018 0.4628 0.0000
vt 0.9062 0.4617 0.0000
vt 0.9062 0.4703 0.0000
vt 0.9011 0.4703 0.0000
vt 0.9018 0.4776 0.0000
vt 0.9062 0.4788 0.0000
vt 0.9015 0.4623 0.0000
vt 0.9062 0.4611 0.0000
vt 0.9062 0.4796 0.0000
vt 0.9015 0.4782 0.0000
vt 0.9007 0.4703 0.0000
vt 0.9106 0.4628 0.0000
vt 0.9113 0.4703 0.0000
vt 0.9106 0.4776 0.0000
vt 0.9109 0.4623 0.0000
vt 0.9109 0.4782 0.0000
vt 0.9117 0.4703 0.0000
vt 0.9005 0.4615 0.0000
vt 0.9002 0.4610 0.0000
vt 0.9053 0.4596 0.0000
vt 0.9053 0.4603 0.0000
vt 0.9053 0.4796 0.0000
vt 0.9002 0.4781 0.0000
vt 0.9005 0.4775 0.0000
vt 0.9053 0.4788 0.0000
vt 0.8993 0.4695 0.0000
vt 0.8997 0.4695 0.0000
vt 0.9104 0.4610 0.0000
vt 0.9100 0.4615 0.0000
vt 0.9100 0.4775 0.0000
vt 0.9104 0.4781 0.0000
vt 0.9113 0.4695 0.0000
vt 0.9108 0.4695 0.0000
vt 0.9009 0.4769 0.0000
vt 0.9097 0.4769 0.0000
vt 0.9009 0.4621 0.0000
vt 0.9097 0.4621 0.0000
# 37 texture coords

o Side_Table_01
g Side_Table_01
usemtl Material__20
s off
f 267/121/355 268/122/356 269/123/357 270/124/358 
f 271/125/359 270/124/358 269/123/357 272/126/360 
f 267/121/361 273/127/362 274/128/363 268/122/364 
f 271/125/365 272/126/366 275/129/367 276/130/368 
f 267/121/369 270/124/370 277/131/371 273/127/372 
f 271/125/373 276/130/374 277/131/371 270/124/370 
f 278/132/375 279/133/376 269/123/357 268/122/356 
f 280/134/377 272/126/360 269/123/357 279/133/376 
f 278/132/378 268/122/364 274/128/363 281/135/379 
f 280/134/380 282/136/381 275/129/367 272/126/366 
f 278/132/382 281/135/383 283/137/384 279/133/385 
f 280/134/386 279/133/385 283/137/384 282/136/387 
f 273/138/388 284/139/389 285/140/390 274/141/391 
f 286/142/392 287/143/393 276/144/394 275/145/395 
f 288/146/396 284/139/397 273/138/398 277/147/399 
f 276/144/400 287/143/401 288/146/396 277/147/399 
f 285/140/390 289/148/402 281/149/403 274/141/391 
f 282/150/404 290/151/405 286/142/392 275/145/395 
f 281/149/406 289/148/407 291/152/408 283/153/409 
f 291/152/408 290/151/410 282/150/411 283/153/409 
f 292/154/412 293/155/412 294/155/412 295/154/412 
f 296/156/413 297/156/413 292/154/413 295/154/414 
f 298/157/415 297/156/415 296/156/415 299/157/415 
f 293/155/416 298/157/416 299/157/416 294/155/416 
f 300/154/412 301/155/412 302/155/412 303/154/412 
f 304/156/413 305/156/413 300/154/413 303/154/414 
f 306/157/415 305/156/415 304/156/415 307/157/415 
f 301/155/416 306/157/416 307/157/416 302/155/416 
f 308/154/412 309/155/412 310/155/412 311/154/412 
f 312/156/413 313/156/413 308/154/413 311/154/414 
f 314/157/415 313/156/415 312/156/415 315/157/415 
f 309/155/416 314/157/416 315/157/416 310/155/416 
f 316/154/412 317/155/412 318/155/412 319/154/412 
f 320/156/413 321/156/413 316/154/413 319/154/414 
f 322/157/415 321/156/415 320/156/415 323/157/415 
f 317/155/416 322/157/416 323/157/416 318/155/416 
# 36 polygons

#
# object Radio001
#

v  -6.6869 1.0438 -23.3406
v  -6.8008 1.0438 -23.3506
v  -6.8008 1.1697 -23.3506
v  -6.6869 1.1697 -23.3406
v  -6.6948 0.9588 -23.2504
v  -6.8087 0.9588 -23.2604
v  -6.8038 0.9912 -23.3161
v  -6.6899 0.9912 -23.3062
v  -6.6869 1.2956 -23.3406
v  -6.8008 1.2956 -23.3506
v  -6.8038 1.3482 -23.3161
v  -6.6899 1.3482 -23.3062
v  -6.6981 1.1697 -23.3181
v  -6.6981 1.2894 -23.3181
v  -6.7045 1.2894 -23.2446
v  -6.7045 1.1697 -23.2446
v  -6.7245 1.3806 -22.9106
v  -6.6947 1.3806 -23.2522
v  -6.8085 1.3806 -23.2621
v  -6.8384 1.3806 -22.9206
v  -6.7045 0.9808 -23.2446
v  -6.7006 1.0072 -23.2900
v  -6.6981 1.0500 -23.3181
v  -6.7045 1.0500 -23.2446
v  -6.7006 1.3322 -23.2900
v  -6.7045 1.3586 -23.2446
v  -6.7338 1.3586 -22.9097
v  -6.7338 1.2894 -22.9097
v  -6.7338 1.1697 -22.9097
v  -6.7338 1.0500 -22.9097
v  -6.7338 0.9808 -22.9097
v  -6.7247 0.9588 -22.9089
v  -6.8386 0.9588 -22.9188
v  -6.7625 1.0438 -22.4771
v  -6.7625 1.1697 -22.4771
v  -6.8764 1.1697 -22.4871
v  -6.8764 1.0438 -22.4871
v  -6.7546 0.9588 -22.5673
v  -6.7594 0.9912 -22.5116
v  -6.8733 0.9912 -22.5215
v  -6.8685 0.9588 -22.5773
v  -6.7625 1.2956 -22.4771
v  -6.7594 1.3482 -22.5116
v  -6.8733 1.3482 -22.5215
v  -6.8764 1.2956 -22.4871
v  -6.7696 1.1697 -22.5013
v  -6.7631 1.1697 -22.5747
v  -6.7631 1.2894 -22.5747
v  -6.7696 1.2894 -22.5013
v  -6.8683 1.3806 -22.5790
v  -6.7546 1.3806 -22.5673
v  -6.7631 0.9808 -22.5747
v  -6.7631 1.0500 -22.5747
v  -6.7696 1.0500 -22.5013
v  -6.7671 1.0072 -22.5293
v  -6.7631 1.3586 -22.5747
v  -6.7671 1.3322 -22.5293
v  -6.9147 1.0438 -23.3605
v  -6.9147 1.1697 -23.3605
v  -6.9226 0.9588 -23.2703
v  -6.9177 0.9912 -23.3261
v  -6.9147 1.2956 -23.3605
v  -6.9177 1.3482 -23.3261
v  -6.9076 1.1697 -23.3364
v  -6.9140 1.1697 -23.2629
v  -6.9140 1.2894 -23.2629
v  -6.9076 1.2894 -23.3364
v  -6.9523 1.3806 -22.9305
v  -6.9224 1.3806 -23.2721
v  -6.9140 0.9808 -23.2629
v  -6.9140 1.0500 -23.2629
v  -6.9076 1.0500 -23.3364
v  -6.9100 1.0072 -23.3083
v  -6.9140 1.3586 -23.2629
v  -6.9100 1.3322 -23.3083
v  -6.9433 1.2894 -22.9280
v  -6.9433 1.3586 -22.9280
v  -6.9433 1.1697 -22.9280
v  -6.9433 1.0500 -22.9280
v  -6.9433 0.9808 -22.9280
v  -6.9525 0.9588 -22.9288
v  -6.9902 1.0438 -22.4970
v  -6.9902 1.1697 -22.4970
v  -6.9824 0.9588 -22.5872
v  -6.9872 0.9912 -22.5315
v  -6.9902 1.2956 -22.4970
v  -6.9872 1.3482 -22.5315
v  -6.9791 1.1697 -22.5196
v  -6.9791 1.2894 -22.5196
v  -6.9726 1.2894 -22.5931
v  -6.9726 1.1697 -22.5931
v  -6.9822 1.3806 -22.5890
v  -6.9726 0.9808 -22.5931
v  -6.9766 1.0072 -22.5477
v  -6.9791 1.0500 -22.5196
v  -6.9726 1.0500 -22.5931
v  -6.9766 1.3322 -22.5477
v  -6.9726 1.3586 -22.5931
v  -6.7247 0.9698 -22.9089
v  -6.6951 0.9698 -23.2471
v  -6.7543 0.9698 -22.5706
v  -6.7587 0.9992 -22.5200
v  -6.7614 1.0469 -22.4888
v  -6.7614 1.1697 -22.4888
v  -6.7614 1.2925 -22.4888
v  -6.7587 1.3402 -22.5200
v  -6.7543 1.3696 -22.5706
v  -6.7247 1.3696 -22.9089
v  -6.6951 1.3696 -23.2471
v  -6.6907 1.3402 -23.2977
v  -6.6879 1.2925 -23.3289
v  -6.6879 1.1697 -23.3289
v  -6.6879 1.0469 -23.3289
v  -6.6907 0.9992 -23.2977
v  -6.9157 1.1697 -23.3489
v  -6.9157 1.0469 -23.3489
v  -6.9157 1.2925 -23.3489
v  -6.9185 1.3402 -23.3176
v  -6.9229 1.3696 -23.2670
v  -6.9525 1.3696 -22.9288
v  -6.9821 1.3696 -22.5905
v  -6.9865 1.3402 -22.5400
v  -6.9892 1.2925 -22.5087
v  -6.9892 1.1697 -22.5087
v  -6.9892 1.0469 -22.5087
v  -6.9865 0.9992 -22.5400
v  -6.9821 0.9698 -22.5905
v  -6.9525 0.9698 -22.9288
v  -6.9229 0.9698 -23.2670
v  -6.9185 0.9992 -23.3176
v  -6.6547 1.1682 -23.2724
v  -6.6555 1.1213 -23.2631
v  -6.8931 1.1213 -23.2839
v  -6.8923 1.1682 -23.2932
v  -6.6578 1.0815 -23.2366
v  -6.8954 1.0815 -23.2574
v  -6.6613 1.0549 -23.1969
v  -6.8989 1.0549 -23.2177
v  -6.6654 1.0455 -23.1502
v  -6.9030 1.0455 -23.1710
v  -6.6694 1.0549 -23.1034
v  -6.9071 1.0549 -23.1242
v  -6.6729 1.0815 -23.0638
v  -6.9105 1.0815 -23.0845
v  -6.6752 1.1213 -23.0373
v  -6.9128 1.1213 -23.0581
v  -6.6760 1.1682 -23.0280
v  -6.9137 1.1682 -23.0488
v  -6.6752 1.2152 -23.0373
v  -6.9128 1.2152 -23.0581
v  -6.6729 1.2550 -23.0638
v  -6.9105 1.2550 -23.0845
v  -6.6694 1.2816 -23.1034
v  -6.9071 1.2816 -23.1242
v  -6.6654 1.2909 -23.1502
v  -6.9030 1.2909 -23.1710
v  -6.6613 1.2816 -23.1969
v  -6.8989 1.2816 -23.2177
v  -6.6578 1.2550 -23.2366
v  -6.8954 1.2550 -23.2574
v  -6.6555 1.2152 -23.2631
v  -6.8931 1.2152 -23.2839
v  -6.6483 1.1264 -23.2501
v  -6.6476 1.1682 -23.2584
v  -6.6486 1.1682 -23.2471
v  -6.6492 1.1307 -23.2397
v  -6.6504 1.0909 -23.2265
v  -6.6511 1.0989 -23.2185
v  -6.6535 1.0671 -23.1912
v  -6.6538 1.0777 -23.1868
v  -6.6571 1.0588 -23.1495
v  -6.6571 1.0702 -23.1495
v  -6.6608 1.0671 -23.1077
v  -6.6604 1.0777 -23.1121
v  -6.6639 1.0909 -23.0724
v  -6.6632 1.0989 -23.0804
v  -6.6659 1.1264 -23.0488
v  -6.6650 1.1307 -23.0592
v  -6.6666 1.1682 -23.0405
v  -6.6657 1.1682 -23.0518
v  -6.6659 1.2101 -23.0488
v  -6.6650 1.2057 -23.0592
v  -6.6639 1.2456 -23.0724
v  -6.6632 1.2375 -23.0804
v  -6.6608 1.2693 -23.1077
v  -6.6604 1.2588 -23.1121
v  -6.6571 1.2776 -23.1495
v  -6.6571 1.2662 -23.1495
v  -6.6535 1.2693 -23.1912
v  -6.6538 1.2588 -23.1868
v  -6.6504 1.2456 -23.2265
v  -6.6511 1.2375 -23.2185
v  -6.6483 1.2101 -23.2501
v  -6.6492 1.2057 -23.2397
v  -6.6725 1.1682 -23.2421
v  -6.6731 1.1334 -23.2352
v  -6.6749 1.1039 -23.2156
v  -6.6774 1.0842 -23.1862
v  -6.6805 1.0772 -23.1515
v  -6.6835 1.0842 -23.1168
v  -6.6861 1.1039 -23.0874
v  -6.6878 1.1334 -23.0678
v  -6.6884 1.1682 -23.0609
v  -6.6878 1.2030 -23.0678
v  -6.6861 1.2325 -23.0874
v  -6.6835 1.2523 -23.1168
v  -6.6805 1.2592 -23.1515
v  -6.6774 1.2523 -23.1862
v  -6.6749 1.2325 -23.2156
v  -6.6731 1.2030 -23.2352
v  -6.6805 1.1682 -23.1515
v  -6.6929 1.0493 -23.0491
v  -6.6932 1.0364 -23.0456
v  -6.7285 1.0364 -23.0487
v  -6.7282 1.0493 -23.0522
v  -6.6940 1.0270 -23.0362
v  -6.7293 1.0270 -23.0393
v  -6.6951 1.0235 -23.0234
v  -6.7305 1.0235 -23.0265
v  -6.6962 1.0270 -23.0106
v  -6.7316 1.0270 -23.0137
v  -6.6971 1.0364 -23.0012
v  -6.7324 1.0364 -23.0043
v  -6.6974 1.0493 -22.9978
v  -6.7327 1.0493 -23.0008
v  -6.6971 1.0622 -23.0012
v  -6.7324 1.0622 -23.0043
v  -6.6962 1.0716 -23.0106
v  -6.7316 1.0716 -23.0137
v  -6.6951 1.0751 -23.0234
v  -6.7305 1.0751 -23.0265
v  -6.6940 1.0716 -23.0362
v  -6.7293 1.0716 -23.0393
v  -6.6932 1.0622 -23.0456
v  -6.7285 1.0622 -23.0487
v  -6.6951 1.0493 -23.0234
v  -6.7022 1.0434 -22.9669
v  -6.7025 1.0354 -22.9643
v  -6.7212 1.0354 -22.9660
v  -6.7209 1.0434 -22.9686
v  -6.7031 1.0304 -22.9576
v  -6.7218 1.0304 -22.9592
v  -6.7038 1.0304 -22.9492
v  -6.7225 1.0304 -22.9508
v  -6.7044 1.0354 -22.9424
v  -6.7231 1.0354 -22.9440
v  -6.7046 1.0434 -22.9398
v  -6.7233 1.0434 -22.9414
v  -6.7044 1.0514 -22.9424
v  -6.7231 1.0514 -22.9440
v  -6.7038 1.0563 -22.9492
v  -6.7225 1.0563 -22.9508
v  -6.7031 1.0563 -22.9576
v  -6.7218 1.0563 -22.9592
v  -6.7025 1.0514 -22.9643
v  -6.7212 1.0514 -22.9660
v  -6.7034 1.0434 -22.9534
v  -6.7062 1.2591 -23.0351
v  -6.7062 1.3206 -23.0351
v  -6.7173 1.3206 -22.9082
v  -6.7173 1.2591 -22.9082
v  -6.7208 1.2591 -23.0364
v  -6.7208 1.3206 -23.0364
v  -6.7319 1.3206 -22.9095
v  -6.7319 1.2591 -22.9095
v  -6.7111 1.2222 -23.0269
v  -6.7111 1.2369 -23.0269
v  -6.7131 1.2369 -23.0037
v  -6.7131 1.2222 -23.0037
v  -6.7257 1.2222 -23.0281
v  -6.7257 1.2369 -23.0281
v  -6.7277 1.2222 -23.0049
v  -6.7164 1.2369 -22.9667
v  -6.7184 1.2369 -22.9435
v  -6.7184 1.2222 -22.9435
v  -6.7164 1.2222 -22.9667
v  -6.7158 1.2369 -22.9738
v  -6.7137 1.2369 -22.9970
v  -6.7283 1.2369 -22.9983
v  -6.7304 1.2369 -22.9751
v  -6.7330 1.2222 -22.9447
v  -6.7310 1.2222 -22.9679
v  -6.7310 1.2369 -22.9679
v  -6.7330 1.2369 -22.9447
v  -6.7158 1.2222 -22.9738
v  -6.7137 1.2222 -22.9970
v  -6.7304 1.2222 -22.9751
v  -6.7283 1.2222 -22.9983
v  -6.7277 1.2369 -23.0049
v  -6.7115 1.1784 -22.9748
v  -6.7115 1.1875 -22.9748
v  -6.7173 1.1875 -22.9082
v  -6.7173 1.1784 -22.9082
v  -6.7261 1.1784 -22.9761
v  -6.7261 1.1875 -22.9761
v  -6.7319 1.1875 -22.9095
v  -6.7319 1.1784 -22.9095
v  -6.7189 1.1682 -22.5387
v  -6.9565 1.1682 -22.5595
v  -6.9556 1.1213 -22.5688
v  -6.7180 1.1213 -22.5480
v  -6.9533 1.0815 -22.5953
v  -6.7157 1.0815 -22.5745
v  -6.9499 1.0549 -22.6349
v  -6.7123 1.0549 -22.6141
v  -6.9458 1.0455 -22.6817
v  -6.7082 1.0455 -22.6609
v  -6.9417 1.0549 -22.7285
v  -6.7041 1.0549 -22.7077
v  -6.9382 1.0815 -22.7681
v  -6.7006 1.0815 -22.7473
v  -6.9359 1.1213 -22.7946
v  -6.6983 1.1213 -22.7738
v  -6.9351 1.1682 -22.8039
v  -6.6975 1.1682 -22.7831
v  -6.9359 1.2152 -22.7946
v  -6.6983 1.2152 -22.7738
v  -6.9382 1.2550 -22.7681
v  -6.7006 1.2550 -22.7473
v  -6.9417 1.2816 -22.7285
v  -6.7041 1.2816 -22.7077
v  -6.9458 1.2909 -22.6817
v  -6.7082 1.2909 -22.6609
v  -6.9499 1.2816 -22.6349
v  -6.7123 1.2816 -22.6141
v  -6.9533 1.2550 -22.5953
v  -6.7157 1.2550 -22.5745
v  -6.9556 1.2152 -22.5688
v  -6.7180 1.2152 -22.5480
v  -6.7087 1.1264 -22.5595
v  -6.7078 1.1307 -22.5700
v  -6.7085 1.1682 -22.5625
v  -6.7095 1.1682 -22.5512
v  -6.7067 1.0909 -22.5831
v  -6.7060 1.0989 -22.5911
v  -6.7036 1.0671 -22.6185
v  -6.7032 1.0777 -22.6228
v  -6.6999 1.0588 -22.6602
v  -6.6999 1.0702 -22.6602
v  -6.6963 1.0671 -22.7019
v  -6.6966 1.0777 -22.6976
v  -6.6932 1.0909 -22.7373
v  -6.6939 1.0989 -22.7292
v  -6.6911 1.1264 -22.7609
v  -6.6920 1.1307 -22.7504
v  -6.6904 1.1682 -22.7692
v  -6.6914 1.1682 -22.7578
v  -6.6911 1.2101 -22.7609
v  -6.6920 1.2057 -22.7504
v  -6.6932 1.2456 -22.7373
v  -6.6939 1.2375 -22.7292
v  -6.6963 1.2693 -22.7019
v  -6.6966 1.2588 -22.6976
v  -6.6999 1.2776 -22.6602
v  -6.6999 1.2662 -22.6602
v  -6.7036 1.2693 -22.6185
v  -6.7032 1.2588 -22.6228
v  -6.7067 1.2456 -22.5831
v  -6.7060 1.2375 -22.5911
v  -6.7087 1.2101 -22.5595
v  -6.7078 1.2057 -22.5700
v  -6.7306 1.1334 -22.5785
v  -6.7312 1.1682 -22.5716
v  -6.7289 1.1039 -22.5981
v  -6.7263 1.0842 -22.6275
v  -6.7233 1.0772 -22.6622
v  -6.7202 1.0842 -22.6969
v  -6.7177 1.1039 -22.7263
v  -6.7159 1.1334 -22.7460
v  -6.7153 1.1682 -22.7529
v  -6.7159 1.2030 -22.7460
v  -6.7177 1.2325 -22.7263
v  -6.7202 1.2523 -22.6969
v  -6.7233 1.2592 -22.6622
v  -6.7263 1.2523 -22.6275
v  -6.7289 1.2325 -22.5981
v  -6.7306 1.2030 -22.5785
v  -6.7233 1.1682 -22.6622
v  -6.7177 1.0493 -22.7652
v  -6.7531 1.0493 -22.7683
v  -6.7528 1.0364 -22.7718
v  -6.7174 1.0364 -22.7687
v  -6.7519 1.0270 -22.7812
v  -6.7166 1.0270 -22.7781
v  -6.7508 1.0235 -22.7940
v  -6.7155 1.0235 -22.7909
v  -6.7497 1.0270 -22.8068
v  -6.7143 1.0270 -22.8037
v  -6.7489 1.0364 -22.8162
v  -6.7135 1.0364 -22.8131
v  -6.7486 1.0493 -22.8197
v  -6.7132 1.0493 -22.8166
v  -6.7489 1.0622 -22.8162
v  -6.7135 1.0622 -22.8131
v  -6.7497 1.0716 -22.8068
v  -6.7143 1.0716 -22.8037
v  -6.7508 1.0751 -22.7940
v  -6.7155 1.0751 -22.7909
v  -6.7519 1.0716 -22.7812
v  -6.7166 1.0716 -22.7781
v  -6.7528 1.0622 -22.7718
v  -6.7174 1.0622 -22.7687
v  -6.7155 1.0493 -22.7909
v  -6.7127 1.0434 -22.8478
v  -6.7314 1.0434 -22.8494
v  -6.7311 1.0354 -22.8520
v  -6.7124 1.0354 -22.8504
v  -6.7305 1.0304 -22.8588
v  -6.7118 1.0304 -22.8571
v  -6.7298 1.0304 -22.8672
v  -6.7111 1.0304 -22.8655
v  -6.7292 1.0354 -22.8740
v  -6.7105 1.0354 -22.8723
v  -6.7290 1.0434 -22.8766
v  -6.7103 1.0434 -22.8749
v  -6.7292 1.0514 -22.8740
v  -6.7105 1.0514 -22.8723
v  -6.7298 1.0563 -22.8672
v  -6.7111 1.0563 -22.8655
v  -6.7305 1.0563 -22.8588
v  -6.7118 1.0563 -22.8571
v  -6.7311 1.0514 -22.8520
v  -6.7124 1.0514 -22.8504
v  -6.7115 1.0434 -22.8613
v  -6.7284 1.2591 -22.7813
v  -6.7284 1.3206 -22.7813
v  -6.7430 1.3206 -22.7826
v  -6.7430 1.2591 -22.7826
v  -6.7318 1.2222 -22.7903
v  -6.7298 1.2222 -22.8135
v  -6.7298 1.2369 -22.8135
v  -6.7318 1.2369 -22.7903
v  -6.7464 1.2369 -22.7916
v  -6.7464 1.2222 -22.7916
v  -6.7444 1.2222 -22.8148
v  -6.7265 1.2369 -22.8505
v  -6.7265 1.2222 -22.8505
v  -6.7245 1.2222 -22.8737
v  -6.7245 1.2369 -22.8737
v  -6.7272 1.2369 -22.8434
v  -6.7418 1.2369 -22.8446
v  -6.7438 1.2369 -22.8214
v  -6.7292 1.2369 -22.8202
v  -6.7411 1.2222 -22.8518
v  -6.7391 1.2222 -22.8750
v  -6.7391 1.2369 -22.8750
v  -6.7411 1.2369 -22.8518
v  -6.7292 1.2222 -22.8202
v  -6.7272 1.2222 -22.8434
v  -6.7438 1.2222 -22.8214
v  -6.7418 1.2222 -22.8446
v  -6.7444 1.2369 -22.8148
v  -6.7232 1.1784 -22.8416
v  -6.7232 1.1875 -22.8416
v  -6.7378 1.1875 -22.8429
v  -6.7378 1.1784 -22.8429
v  -6.7797 1.3887 -22.9154
v  -6.7643 1.3887 -23.0916
v  -6.8230 1.3887 -23.0967
v  -6.8384 1.3887 -22.9205
v  -6.8538 1.3887 -22.7443
v  -6.7952 1.3887 -22.7383
v  -6.8972 1.3887 -22.9257
v  -6.8818 1.3887 -23.1019
v  -6.9126 1.3887 -22.7495
v  -6.7797 1.3738 -22.9154
v  -6.7643 1.3738 -23.0916
v  -6.8230 1.3738 -23.0967
v  -6.8538 1.3738 -22.7443
v  -6.7952 1.3738 -22.7383
v  -6.8818 1.3738 -23.1019
v  -6.8972 1.3738 -22.9257
v  -6.9126 1.3738 -22.7495
v  -6.7148 1.2369 -22.9366
v  -6.7169 1.2369 -22.9134
v  -6.7169 1.2222 -22.9134
v  -6.7148 1.2222 -22.9366
v  -6.7198 1.2369 -22.8798
v  -6.7198 1.2222 -22.8798
v  -6.7178 1.2222 -22.9030
v  -6.7178 1.2369 -22.9030
v  -6.7361 1.2369 -22.9151
v  -6.7361 1.2222 -22.9151
v  -6.7341 1.2222 -22.9383
v  -6.7341 1.2369 -22.9383
v  -6.7370 1.2369 -22.9047
v  -6.7390 1.2369 -22.8815
v  -6.7370 1.2222 -22.9047
v  -6.7390 1.2222 -22.8815
v  -6.8037 1.3938 -23.2040
v  -6.8044 1.3865 -23.1953
v  -6.8147 1.3828 -23.1918
v  -6.8242 1.3865 -23.1970
v  -6.8234 1.3938 -23.2058
v  -6.8132 1.3975 -23.2093
v  -6.8456 1.7336 -22.9194
v  -6.8383 1.7362 -22.9219
v  -6.8461 1.7283 -22.9132
v  -6.8394 1.7257 -22.9095
v  -6.8321 1.7283 -22.9119
v  -6.8316 1.7336 -22.9182
v  -6.8435 1.7327 -22.9182
v  -6.8385 1.7345 -22.9199
v  -6.8438 1.7292 -22.9140
v  -6.8392 1.7274 -22.9114
v  -6.8342 1.7292 -22.9131
v  -6.8339 1.7327 -22.9174
v  -6.8501 1.8377 -22.8296
v  -6.8463 1.8391 -22.8309
v  -6.8504 1.8349 -22.8263
v  -6.8468 1.8336 -22.8243
v  -6.8430 1.8349 -22.8256
v  -6.8427 1.8377 -22.8289
v  -6.8468 1.8395 -22.8249
v  -6.8127 1.3723 -23.2148
v  -6.8319 1.3723 -23.2058
v  -6.8319 1.4073 -23.2058
v  -6.8127 1.4073 -23.2148
v  -6.8338 1.3723 -23.1847
v  -6.8338 1.4073 -23.1847
v  -6.8164 1.3723 -23.1725
v  -6.8164 1.4073 -23.1725
v  -6.7972 1.3723 -23.1815
v  -6.7972 1.4073 -23.1815
v  -6.7953 1.3723 -23.2026
v  -6.7953 1.4073 -23.2026
v  -6.8145 1.4149 -23.1937
# 527 vertices

vn 0.7090 -0.2187 -0.6705
vn 0.0835 -0.2871 -0.9543
vn 0.0872 0.0000 -0.9962
vn 0.7660 0.0000 -0.6428
vn 0.6677 -0.7313 -0.1391
vn 0.0226 -0.9656 -0.2589
vn 0.0599 -0.7268 -0.6842
vn 0.7015 -0.5467 -0.4572
vn 0.7090 0.2187 -0.6705
vn 0.0835 0.2871 -0.9543
vn 0.0603 0.7220 -0.6892
vn 0.7031 0.5422 -0.4601
vn 0.9133 0.0000 0.4073
vn 0.8950 -0.1080 0.4328
vn 0.9962 0.0000 0.0872
vn 0.7044 0.7071 0.0616
vn 0.6669 0.7310 -0.1446
vn 0.0232 0.9638 -0.2656
vn 0.0000 1.0000 -0.0000
vn 0.9138 0.3656 0.1768
vn 0.9039 0.2704 0.3313
vn 0.8950 0.1080 0.4328
vn 0.9039 -0.2704 0.3313
vn 0.9138 -0.3656 0.1768
vn 0.9366 -0.3407 0.0819
vn 0.9366 0.3407 0.0819
vn 0.7044 -0.7071 0.0616
vn 0.0000 -1.0000 -0.0000
vn 0.5818 -0.2187 0.7834
vn 0.6428 0.0000 0.7660
vn -0.0872 0.0000 0.9962
vn -0.0835 -0.2871 0.9543
vn 0.6334 -0.7313 0.2530
vn 0.6114 -0.5467 0.5721
vn -0.0599 -0.7268 0.6842
vn -0.0226 -0.9656 0.2589
vn 0.5818 0.2187 0.7834
vn 0.6114 0.5467 0.5721
vn -0.0594 0.7314 0.6794
vn -0.0835 0.2871 0.9543
vn 0.9702 0.0000 -0.2425
vn 0.9565 -0.1080 -0.2708
vn -0.0239 0.9677 0.2511
vn 0.6317 0.7321 0.2550
vn 0.9306 0.3656 -0.0154
vn 0.9565 0.1080 -0.2709
vn 0.9477 0.2704 -0.1693
vn 0.9306 -0.3656 -0.0154
vn 0.9477 -0.2704 -0.1693
vn -0.5818 -0.2187 -0.7834
vn -0.6428 0.0000 -0.7660
vn -0.6334 -0.7313 -0.2530
vn -0.6114 -0.5467 -0.5721
vn -0.5818 0.2187 -0.7834
vn -0.6125 0.5422 -0.5752
vn -0.9702 0.0000 0.2425
vn -0.9962 0.0000 -0.0872
vn -0.9565 -0.1080 0.2708
vn -0.7044 0.7071 -0.0616
vn -0.6316 0.7310 -0.2582
vn -0.9306 0.3656 0.0154
vn -0.9565 0.1080 0.2709
vn -0.9477 0.2704 0.1693
vn -0.9306 -0.3656 0.0154
vn -0.9477 -0.2704 0.1693
vn -0.9366 -0.3407 -0.0819
vn -0.9366 0.3407 -0.0819
vn -0.7044 -0.7071 -0.0616
vn -0.7090 -0.2187 0.6705
vn -0.7660 0.0000 0.6428
vn -0.6677 -0.7313 0.1391
vn -0.7015 -0.5467 0.4572
vn -0.7090 0.2187 0.6705
vn -0.7000 0.5509 0.4545
vn -0.9133 0.0000 -0.4073
vn -0.8950 -0.1080 -0.4328
vn -0.6685 0.7316 0.1339
vn -0.9138 0.3656 -0.1768
vn -0.9039 0.2704 -0.3313
vn -0.8950 0.1080 -0.4328
vn -0.9039 -0.2704 -0.3313
vn -0.9138 -0.3656 -0.1768
vn 0.9500 0.2699 0.1570
vn 0.9628 0.2699 0.0103
vn 0.9725 0.2045 -0.1112
vn 0.9830 0.0747 -0.1677
vn 0.9830 -0.0747 -0.1677
vn 0.9725 -0.2045 -0.1112
vn 0.9628 -0.2699 0.0103
vn 0.9500 -0.2699 0.1570
vn 0.9384 -0.2045 0.2784
vn 0.9390 -0.0747 0.3358
vn 0.9390 0.0747 0.3358
vn 0.9384 0.2045 0.2784
vn -0.9830 0.0747 0.1677
vn -0.9830 -0.0747 0.1677
vn -0.9725 -0.2045 0.1112
vn -0.9628 -0.2699 -0.0103
vn -0.9500 -0.2699 -0.1570
vn -0.9384 -0.2045 -0.2784
vn -0.9390 -0.0747 -0.3358
vn -0.9390 0.0747 -0.3358
vn -0.9384 0.2045 -0.2784
vn -0.9500 0.2699 -0.1570
vn -0.9628 0.2699 -0.0103
vn -0.9725 0.2045 0.1112
vn 0.5369 -0.0000 -0.8436
vn 0.5310 -0.3395 -0.7764
vn 0.0805 -0.3827 -0.9204
vn 0.5143 -0.6274 -0.5848
vn 0.0616 -0.7071 -0.7044
vn 0.4891 -0.8197 -0.2980
vn 0.0334 -0.9239 -0.3812
vn 0.4596 -0.8872 0.0402
vn 0.4300 -0.8197 0.3784
vn -0.0334 -0.9239 0.3812
vn 0.4049 -0.6274 0.6652
vn -0.0616 -0.7071 0.7044
vn 0.3881 -0.3395 0.8568
vn -0.0805 -0.3827 0.9204
vn 0.3822 -0.0000 0.9241
vn -0.0872 -0.0000 0.9962
vn 0.3882 0.3395 0.8568
vn -0.0805 0.3827 0.9204
vn 0.4049 0.6274 0.6652
vn -0.0616 0.7071 0.7044
vn 0.4300 0.8197 0.3785
vn -0.0334 0.9239 0.3812
vn 0.4595 0.8873 0.0402
vn 0.4892 0.8197 -0.2980
vn 0.0334 0.9239 -0.3812
vn 0.5143 0.6274 -0.5848
vn 0.0616 0.7071 -0.7044
vn 0.5310 0.3395 -0.7763
vn 0.0805 0.3827 -0.9204
vn 0.9730 -0.1172 -0.1989
vn 0.9750 -0.0000 -0.2222
vn 0.7881 0.0000 0.6155
vn 0.7918 0.2084 0.5742
vn 0.9672 -0.2166 -0.1328
vn 0.8020 0.3850 0.4566
vn 0.9585 -0.2830 -0.0338
vn 0.8174 0.5030 0.2807
vn 0.9483 -0.3063 0.0830
vn 0.8356 0.5445 0.0731
vn 0.9381 -0.2830 0.1997
vn 0.8538 0.5030 -0.1345
vn 0.9294 -0.2166 0.2987
vn 0.8691 0.3850 -0.3104
vn 0.9237 -0.1172 0.3649
vn 0.8794 0.2084 -0.4280
vn 0.9216 -0.0000 0.3881
vn 0.8830 0.0000 -0.4693
vn 0.9237 0.1172 0.3649
vn 0.8794 -0.2084 -0.4280
vn 0.9294 0.2166 0.2987
vn 0.8691 -0.3850 -0.3104
vn 0.9381 0.2830 0.1997
vn 0.8538 -0.5030 -0.1345
vn 0.9483 0.3063 0.0830
vn 0.8356 -0.5445 0.0731
vn 0.9585 0.2830 -0.0338
vn 0.8174 -0.5030 0.2807
vn 0.9672 0.2166 -0.1328
vn 0.8020 -0.3850 0.4566
vn 0.9730 0.1172 -0.1989
vn 0.7918 -0.2084 0.5742
vn 0.7090 0.0000 0.7052
vn 0.7133 0.2452 0.6566
vn 0.7254 0.4530 0.5182
vn 0.7435 0.5919 0.3112
vn 0.7649 0.6407 0.0669
vn 0.7862 0.5919 -0.1773
vn 0.8044 0.4530 -0.3844
vn 0.8165 0.2452 -0.5227
vn 0.8207 0.0000 -0.5713
vn 0.8165 -0.2452 -0.5227
vn 0.8044 -0.4530 -0.3844
vn 0.7862 -0.5919 -0.1773
vn 0.7649 -0.6407 0.0669
vn 0.7435 -0.5919 0.3112
vn 0.7254 -0.4530 0.5182
vn 0.7133 -0.2452 0.6566
vn 0.9962 -0.0000 0.0872
vn 0.7167 -0.0000 -0.6973
vn 0.7079 -0.3786 -0.5963
vn 0.0755 -0.5000 -0.8627
vn 0.0872 -0.0000 -0.9962
vn 0.6837 -0.6557 -0.3202
vn 0.0436 -0.8660 -0.4981
vn 0.6507 -0.7572 0.0569
vn -0.0000 -1.0000 0.0000
vn 0.6177 -0.6557 0.4341
vn -0.0436 -0.8660 0.4981
vn 0.5936 -0.3786 0.7102
vn -0.0755 -0.5000 0.8627
vn 0.5848 -0.0000 0.8112
vn 0.5936 0.3785 0.7101
vn -0.0755 0.5000 0.8627
vn 0.6178 0.6557 0.4340
vn -0.0436 0.8660 0.4981
vn 0.6508 0.7571 0.0569
vn 0.6837 0.6557 -0.3202
vn 0.0436 0.8660 -0.4981
vn 0.7079 0.3786 -0.5963
vn 0.0755 0.5000 -0.8627
vn 0.7080 0.0000 -0.7062
vn 0.6952 -0.4498 -0.5607
vn 0.0705 -0.5878 -0.8059
vn 0.6619 -0.7278 -0.1795
vn 0.0269 -0.9511 -0.3078
vn 0.6207 -0.7278 0.2917
vn -0.0269 -0.9511 0.3078
vn 0.5873 -0.4498 0.6729
vn -0.0705 -0.5878 0.8059
vn 0.5746 0.0000 0.8185
vn 0.5874 0.4498 0.6729
vn -0.0705 0.5878 0.8060
vn 0.6207 0.7278 0.2916
vn -0.0269 0.9511 0.3078
vn 0.6619 0.7278 -0.1794
vn 0.0269 0.9511 -0.3078
vn 0.6953 0.4498 -0.5606
vn 0.0705 0.5878 -0.8060
vn 0.6255 -0.5774 -0.5248
vn 0.6255 0.5774 -0.5248
vn 0.5248 0.5774 0.6255
vn 0.5248 -0.5774 0.6255
vn 0.3823 -0.0000 0.9240
vn 0.4892 -0.8197 -0.2980
vn 0.5370 -0.0000 -0.8436
vn 0.5311 0.3395 -0.7763
vn 0.5143 0.6274 -0.5847
vn 0.0000 1.0000 0.0000
vn 0.5848 0.0000 0.8112
vn 0.5937 -0.3785 0.7101
vn 0.6178 -0.6557 0.4340
vn 0.7079 0.3785 -0.5963
vn 0.6838 0.6557 -0.3202
vn -0.0000 1.0000 0.0000
vn 0.6508 0.7571 0.0570
vn 0.6177 0.6557 0.4341
vn 0.5936 0.3786 0.7102
vn 0.0705 0.5878 -0.8059
vn 0.6952 0.4498 -0.5607
vn 0.6619 0.7278 -0.1795
vn 0.6207 0.7278 0.2917
vn -0.0705 0.5878 0.8059
vn 0.5873 0.4498 0.6729
vn -0.0669 0.7089 0.7022
vn 0.5203 0.5765 0.6300
vn -0.5248 0.5774 -0.6255
vn -0.6255 0.5774 0.5248
vn -0.0948 0.0000 0.9955
vn 0.6370 0.0000 0.7709
vn 0.7460 -0.2098 -0.6320
vn 0.6930 -0.7205 -0.0257
vn -0.0190 -0.9759 0.2175
vn -0.6780 -0.7205 -0.1456
vn -0.6249 -0.2098 -0.7520
vn 0.0871 0.0456 -0.9952
vn -0.6897 0.7234 0.0312
vn 0.0184 0.9774 -0.2107
vn -0.7425 0.2154 0.6343
vn -0.0871 -0.0385 0.9955
vn 0.6211 0.2154 0.7536
vn 0.6738 0.7234 0.1505
vn -0.4960 0.8181 0.2910
vn -0.0110 0.9921 0.1253
vn -0.5322 0.4701 0.7041
vn -0.0832 0.2962 0.9515
vn 0.4018 0.4701 0.7858
vn 0.4380 0.8181 0.3727
vn -0.7950 0.5731 -0.1991
vn 0.0424 0.8734 -0.4851
vn -0.8573 -0.0276 0.5140
vn -0.0823 -0.3279 0.9411
vn 0.7551 -0.0276 0.6551
vn 0.8174 0.5731 -0.0580
vn -0.0560 0.7660 0.6403
vn -0.8192 0.0000 -0.5736
vn -0.7079 0.5033 -0.4956
vn 0.0753 0.5033 -0.8609
vn -0.9063 0.0000 0.4226
vn -0.7832 0.5033 0.3652
vn -0.0753 0.5033 0.8609
vn 0.8192 -0.0000 0.5736
vn 0.7079 0.5033 0.4956
vn 0.9063 -0.0000 -0.4226
vn 0.7832 0.5033 -0.3652
# 290 vertex normals

vt 0.9018 0.4892 0.0000
vt 0.9286 0.4892 0.0000
vt 0.9279 0.4509 0.0000
vt 0.8946 0.4502 0.0000
vt 0.8974 0.4490 0.0000
vt 0.9295 0.4470 0.0000
vt 0.7563 0.9677 0.0000
vt 0.7563 0.9827 0.0000
vt 0.7658 0.9827 0.0000
vt 0.7658 0.9677 0.0000
vt 0.9284 0.4496 0.0000
vt 0.8978 0.4496 0.0000
vt 0.7658 0.9440 0.0000
vt 0.7600 0.9473 0.0000
vt 0.7563 0.9527 0.0000
vt 0.7658 0.9527 0.0000
vt 0.7600 0.9880 0.0000
vt 0.7658 0.9914 0.0000
vt 0.8088 0.9914 0.0000
vt 0.8088 0.9827 0.0000
vt 0.8088 0.9677 0.0000
vt 0.8088 0.9527 0.0000
vt 0.8088 0.9440 0.0000
vt 0.9271 0.4495 0.0000
vt 0.8980 0.4496 0.0000
vt 0.9285 0.4496 0.0000
vt 0.9287 0.4496 0.0000
vt 0.8982 0.4496 0.0000
vt 0.9287 0.4523 0.0000
vt 0.8986 0.4892 0.0000
vt 0.9285 0.4892 0.0000
vt 0.9285 0.4694 0.0000
vt 0.8983 0.4694 0.0000
vt 0.9253 0.4855 0.0000
vt 0.8982 0.4850 0.0000
vt 0.8964 0.4676 0.0000
vt 0.9266 0.4682 0.0000
vt 0.9279 0.4831 0.0000
vt 0.9018 0.4847 0.0000
vt 0.8996 0.4668 0.0000
vt 0.9287 0.4651 0.0000
vt 0.9031 0.4510 0.0000
vt 0.9286 0.4510 0.0000
vt 0.9286 0.4701 0.0000
vt 0.9024 0.4701 0.0000
vt 0.9230 0.4564 0.0000
vt 0.9221 0.4518 0.0000
vt 0.9194 0.4479 0.0000
vt 0.9154 0.4452 0.0000
vt 0.9107 0.4443 0.0000
vt 0.9060 0.4452 0.0000
vt 0.9020 0.4479 0.0000
vt 0.8993 0.4518 0.0000
vt 0.8983 0.4564 0.0000
vt 0.8993 0.4610 0.0000
vt 0.9020 0.4650 0.0000
vt 0.9060 0.4676 0.0000
vt 0.9107 0.4685 0.0000
vt 0.9154 0.4676 0.0000
vt 0.9194 0.4650 0.0000
vt 0.9221 0.4610 0.0000
vt 0.9208 0.4523 0.0000
vt 0.9217 0.4564 0.0000
vt 0.9205 0.4564 0.0000
vt 0.9198 0.4527 0.0000
vt 0.9184 0.4488 0.0000
vt 0.9176 0.4496 0.0000
vt 0.9149 0.4464 0.0000
vt 0.9144 0.4475 0.0000
vt 0.9107 0.4456 0.0000
vt 0.9107 0.4467 0.0000
vt 0.9065 0.4464 0.0000
vt 0.9069 0.4475 0.0000
vt 0.9029 0.4488 0.0000
vt 0.9037 0.4496 0.0000
vt 0.9005 0.4523 0.0000
vt 0.9016 0.4527 0.0000
vt 0.8997 0.4564 0.0000
vt 0.9008 0.4564 0.0000
vt 0.9005 0.4605 0.0000
vt 0.9016 0.4601 0.0000
vt 0.9029 0.4640 0.0000
vt 0.9037 0.4632 0.0000
vt 0.9065 0.4664 0.0000
vt 0.9069 0.4653 0.0000
vt 0.9107 0.4672 0.0000
vt 0.9107 0.4661 0.0000
vt 0.9149 0.4664 0.0000
vt 0.9144 0.4653 0.0000
vt 0.9184 0.4640 0.0000
vt 0.9176 0.4632 0.0000
vt 0.9208 0.4605 0.0000
vt 0.9198 0.4601 0.0000
vt 0.9198 0.4564 0.0000
vt 0.9191 0.4530 0.0000
vt 0.9171 0.4501 0.0000
vt 0.9142 0.4481 0.0000
vt 0.9107 0.4474 0.0000
vt 0.9072 0.4481 0.0000
vt 0.9042 0.4501 0.0000
vt 0.9022 0.4530 0.0000
vt 0.9015 0.4564 0.0000
vt 0.9022 0.4598 0.0000
vt 0.9042 0.4628 0.0000
vt 0.9072 0.4647 0.0000
vt 0.9107 0.4654 0.0000
vt 0.9142 0.4647 0.0000
vt 0.9171 0.4628 0.0000
vt 0.9191 0.4598 0.0000
vt 0.0524 0.9658 0.0000
vt 0.0538 0.9726 0.0000
vt 0.0357 0.9726 0.0000
vt 0.0485 0.9601 0.0000
vt 0.0426 0.9562 0.0000
vt 0.0357 0.9549 0.0000
vt 0.0288 0.9562 0.0000
vt 0.0230 0.9601 0.0000
vt 0.0191 0.9658 0.0000
vt 0.0177 0.9726 0.0000
vt 0.0191 0.9793 0.0000
vt 0.0230 0.9851 0.0000
vt 0.0288 0.9889 0.0000
vt 0.0357 0.9902 0.0000
vt 0.0426 0.9889 0.0000
vt 0.0485 0.9851 0.0000
vt 0.0524 0.9793 0.0000
vt 0.2292 0.9688 0.0000
vt 0.2274 0.9625 0.0000
vt 0.2227 0.9578 0.0000
vt 0.2163 0.9561 0.0000
vt 0.2098 0.9578 0.0000
vt 0.2051 0.9625 0.0000
vt 0.2033 0.9688 0.0000
vt 0.2051 0.9751 0.0000
vt 0.2098 0.9798 0.0000
vt 0.2163 0.9815 0.0000
vt 0.2227 0.9798 0.0000
vt 0.2274 0.9751 0.0000
vt 0.2163 0.9688 0.0000
vt 0.2407 0.9619 0.0000
vt 0.2394 0.9580 0.0000
vt 0.2360 0.9555 0.0000
vt 0.2318 0.9555 0.0000
vt 0.2284 0.9580 0.0000
vt 0.2271 0.9619 0.0000
vt 0.2284 0.9659 0.0000
vt 0.2318 0.9683 0.0000
vt 0.2360 0.9683 0.0000
vt 0.2394 0.9659 0.0000
vt 0.2339 0.9619 0.0000
vt 0.1373 0.9015 0.0000
vt 0.1373 0.9270 0.0000
vt 0.1777 0.9270 0.0000
vt 0.1777 0.9015 0.0000
vt 0.3591 0.9594 0.0000
vt 0.3591 0.9666 0.0000
vt 0.3475 0.9666 0.0000
vt 0.3475 0.9594 0.0000
vt 0.2624 0.8913 0.0000
vt 0.2624 0.8958 0.0000
vt 0.2959 0.8958 0.0000
vt 0.2959 0.8913 0.0000
vt 0.3305 0.9594 0.0000
vt 0.3422 0.9594 0.0000
vt 0.3422 0.9666 0.0000
vt 0.3305 0.9666 0.0000
vt 0.2331 0.4710 0.0000
vt 0.2120 0.4710 0.0000
vt 0.2121 0.4710 0.0000
vt 0.2331 0.4637 0.0000
vt 0.2120 0.4637 0.0000
vt 0.2121 0.4637 0.0000
vt 0.4596 0.9606 1.0000
vt 0.4625 0.9606 1.0000
vt 0.4653 0.9606 1.0000
vt 0.4681 0.9606 1.0000
vt 0.4710 0.9606 1.0000
vt 0.4738 0.9606 1.0000
vt 0.4710 0.9777 1.0000
vt 0.4738 0.9777 1.0000
vt 0.4681 0.9777 1.0000
vt 0.4653 0.9777 1.0000
vt 0.4625 0.9777 1.0000
vt 0.4596 0.9777 1.0000
vt 0.4767 0.9606 1.0000
vt 0.4767 0.9777 1.0000
vt 0.4667 0.9777 1.0000
# 187 texture coords

o Radio001
g Radio001
usemtl Material__20
s 1
f 324/158/417 325/158/418 326/159/419 327/159/420 
f 328/160/421 329/160/422 330/161/423 331/161/424 
f 332/162/425 333/162/426 334/163/427 335/163/428 
s 2
f 336/164/429 337/165/430 338/166/431 339/167/431 
s 1
f 340/168/432 341/169/433 342/169/434 343/168/435 
s 2
f 344/170/436 345/171/437 346/172/438 347/173/431 
f 337/165/430 348/174/439 349/175/440 338/166/431 
f 349/175/440 350/176/441 351/177/431 338/166/431 
f 338/166/431 351/177/431 352/178/431 339/167/431 
f 353/179/431 354/180/442 344/170/436 347/173/431 
f 346/172/438 336/164/429 339/167/431 347/173/431 
f 347/173/431 339/167/431 352/178/431 353/179/431 
s 1
f 342/181/434 341/181/433 335/161/428 334/161/427 
f 325/162/418 324/162/417 331/163/424 330/163/423 
f 333/158/426 332/158/425 327/159/420 326/159/419 
f 329/182/422 328/182/421 355/183/443 356/183/444 
f 357/158/445 358/159/446 359/159/447 360/158/448 
f 361/160/449 362/161/450 363/161/451 364/160/452 
f 365/162/453 366/163/454 367/163/455 368/162/456 
s 2
f 369/164/457 370/167/431 371/166/431 372/165/458 
s 1
f 340/184/432 343/184/435 373/185/459 374/182/460 
s 2
f 375/170/461 376/173/431 377/172/462 378/171/463 
f 372/165/458 371/166/431 379/175/464 380/174/465 
f 379/175/464 371/166/431 351/177/431 350/176/441 
f 371/166/431 370/167/431 352/178/431 351/177/431 
f 353/179/431 376/173/431 375/170/461 354/180/442 
f 377/172/462 376/173/431 370/167/431 369/164/457 
f 376/173/431 353/179/431 352/178/431 370/167/431 
s 1
f 373/186/459 367/161/455 366/161/454 374/160/460 
f 360/162/448 363/163/451 362/163/450 357/162/445 
f 368/158/456 359/159/447 358/159/446 365/158/453 
f 364/182/452 356/183/444 355/183/443 361/182/449 
f 381/158/466 382/159/467 326/159/419 325/158/418 
f 383/160/468 384/161/469 330/161/423 329/160/422 
f 385/162/470 386/163/471 334/163/427 333/162/426 
s 2
f 387/164/472 388/167/473 389/166/473 390/165/474 
s 1
f 391/168/475 343/168/435 342/169/434 392/169/476 
s 2
f 393/170/477 394/173/473 395/172/478 396/171/479 
f 390/165/474 389/166/473 397/175/480 398/174/481 
f 397/175/480 389/166/473 399/177/473 400/176/482 
f 389/166/473 388/167/473 401/178/473 399/177/473 
f 402/179/473 394/173/473 393/170/477 403/180/483 
f 395/172/478 394/173/473 388/167/473 387/164/472 
f 394/173/473 402/179/473 401/178/473 388/167/473 
s 1
f 342/181/434 334/161/427 386/161/471 392/181/476 
f 325/162/418 330/163/423 384/163/469 381/162/466 
f 333/158/426 326/159/419 382/159/467 385/158/470 
f 329/182/422 356/183/444 404/183/484 383/182/468 
f 405/158/485 360/158/448 359/159/447 406/159/486 
f 407/160/487 364/160/452 363/161/451 408/161/488 
f 409/162/489 368/162/456 367/163/455 410/163/490 
s 2
f 411/164/491 412/165/492 413/166/473 414/167/473 
s 1
f 391/184/475 415/185/493 373/185/459 343/184/435 
s 2
f 416/170/494 417/171/495 418/172/496 419/173/473 
f 412/165/492 420/174/497 421/175/498 413/166/473 
f 421/175/498 400/176/482 399/177/473 413/166/473 
f 413/166/473 399/177/473 401/178/473 414/167/473 
f 402/179/473 403/180/483 416/170/494 419/173/473 
f 418/172/496 411/164/491 414/167/473 419/173/473 
f 419/173/473 414/167/473 401/178/473 402/179/473 
s 1
f 373/186/459 415/186/493 410/161/490 367/161/455 
f 360/162/448 405/162/485 408/163/488 363/163/451 
f 368/158/456 409/158/489 406/159/486 359/159/447 
f 364/182/452 407/182/487 404/183/484 356/183/444 
f 344/187/436 354/188/442 422/189/442 423/190/499 
f 354/188/442 375/187/461 424/190/500 422/189/442 
f 375/191/461 378/192/463 425/193/501 424/194/500 
f 378/195/463 377/196/462 426/197/502 425/198/501 
f 377/199/462 369/200/457 427/201/457 426/202/502 
f 369/200/457 372/199/458 428/202/503 427/201/457 
f 372/196/458 380/195/465 429/198/504 428/197/503 
f 380/192/465 379/191/464 430/194/505 429/193/504 
f 379/187/464 350/188/441 431/189/441 430/190/505 
f 350/188/441 349/187/440 432/190/506 431/189/441 
f 349/191/440 348/192/439 433/193/507 432/194/506 
f 348/195/439 337/196/430 434/197/508 433/198/507 
f 337/199/430 336/200/429 435/201/429 434/202/508 
f 336/200/429 346/199/438 436/202/509 435/201/429 
f 346/196/438 345/195/437 437/198/510 436/197/509 
f 345/192/437 344/191/436 423/194/499 437/193/510 
f 395/199/478 387/200/472 438/201/472 439/202/511 
f 387/200/472 390/199/474 440/202/512 438/201/472 
f 390/196/474 398/195/481 441/198/513 440/197/512 
f 398/192/481 397/191/480 442/194/514 441/193/513 
f 397/187/480 400/188/482 443/189/482 442/190/514 
f 400/188/482 421/187/498 444/190/515 443/189/482 
f 421/191/498 420/192/497 445/193/516 444/194/515 
f 420/195/497 412/196/492 446/197/517 445/198/516 
f 412/199/492 411/200/491 447/201/491 446/202/517 
f 411/200/491 418/199/496 448/202/518 447/201/491 
f 418/196/496 417/195/495 449/198/519 448/197/518 
f 417/192/495 416/191/494 450/194/520 449/193/519 
f 416/187/494 403/188/483 451/189/483 450/190/520 
f 403/188/483 393/187/477 452/190/521 451/189/483 
f 393/191/477 396/192/479 453/193/522 452/194/521 
f 396/195/479 395/196/478 439/197/511 453/198/522 
f 423/190/499 422/189/442 355/183/443 328/182/421 
f 422/189/442 424/190/500 361/182/449 355/183/443 
f 424/194/500 425/193/501 362/161/450 361/160/449 
f 425/198/501 426/197/502 357/162/445 362/163/450 
f 426/202/502 427/201/457 358/159/446 357/158/445 
f 427/201/457 428/202/503 365/158/453 358/159/446 
f 428/197/503 429/198/504 366/163/454 365/162/453 
f 429/193/504 430/194/505 374/160/460 366/161/454 
f 430/190/505 431/189/441 340/184/432 374/182/460 
f 431/189/441 432/190/506 341/169/433 340/168/432 
f 432/194/506 433/193/507 335/161/428 341/181/433 
f 433/198/507 434/197/508 332/162/425 335/163/428 
f 434/202/508 435/201/429 327/159/420 332/158/425 
f 435/201/429 436/202/509 324/158/417 327/159/420 
f 436/197/509 437/198/510 331/163/424 324/162/417 
f 437/193/510 423/194/499 328/160/421 331/161/424 
f 439/202/511 438/201/472 382/159/467 381/158/466 
f 438/201/472 440/202/512 385/158/470 382/159/467 
f 440/197/512 441/198/513 386/163/471 385/162/470 
f 441/193/513 442/194/514 392/181/476 386/161/471 
f 442/190/514 443/189/482 391/168/475 392/169/476 
f 443/189/482 444/190/515 415/185/493 391/184/475 
f 444/194/515 445/193/516 410/161/490 415/186/493 
f 445/198/516 446/197/517 409/162/489 410/163/490 
f 446/202/517 447/201/491 406/159/486 409/158/489 
f 447/201/491 448/202/518 405/158/485 406/159/486 
f 448/197/518 449/198/519 408/163/488 405/162/485 
f 449/193/519 450/194/520 407/160/487 408/161/488 
f 450/190/520 451/189/483 404/183/484 407/182/487 
f 451/189/483 452/190/521 383/182/468 404/183/484 
f 452/194/521 453/193/522 384/161/469 383/160/468 
f 453/198/522 439/197/511 381/162/466 384/163/469 
f 454/203/523 455/204/524 456/204/525 457/203/419 
f 455/204/524 458/205/526 459/205/527 456/204/525 
f 458/205/526 460/206/528 461/206/529 459/205/527 
f 460/206/528 462/207/530 463/207/444 461/206/529 
f 462/207/530 464/208/531 465/208/532 463/207/444 
f 464/208/531 466/209/533 467/209/534 465/208/532 
f 466/209/533 468/210/535 469/210/536 467/209/534 
f 468/210/535 470/211/537 471/211/538 469/210/536 
f 470/211/537 472/212/539 473/212/540 471/211/538 
f 472/212/539 474/213/541 475/213/542 473/212/540 
f 474/213/541 476/214/543 477/214/544 475/213/542 
f 476/214/543 478/215/545 479/215/435 477/214/544 
f 478/215/545 480/216/546 481/216/547 479/215/435 
f 480/216/546 482/217/548 483/217/549 481/216/547 
f 482/217/548 484/218/550 485/218/551 483/217/549 
f 484/218/550 454/203/523 457/203/419 485/218/551 
f 486/219/552 487/220/553 488/221/554 489/222/555 
f 490/223/556 486/219/552 489/222/555 491/224/557 
f 492/225/558 490/223/556 491/224/557 493/226/559 
f 494/227/560 492/225/558 493/226/559 495/228/561 
f 496/229/562 494/227/560 495/228/561 497/230/563 
f 498/231/564 496/229/562 497/230/563 499/232/565 
f 500/233/566 498/231/564 499/232/565 501/234/567 
f 502/235/568 500/233/566 501/234/567 503/236/569 
f 504/237/570 502/235/568 503/236/569 505/238/571 
f 506/239/572 504/237/570 505/238/571 507/240/573 
f 508/241/574 506/239/572 507/240/573 509/242/575 
f 510/243/576 508/241/574 509/242/575 511/244/577 
f 512/245/578 510/243/576 511/244/577 513/246/579 
f 514/247/580 512/245/578 513/246/579 515/248/581 
f 516/249/582 514/247/580 515/248/581 517/250/583 
f 487/220/553 516/249/582 517/250/583 488/221/554 
f 489/222/555 488/221/554 518/251/584 519/252/585 
f 491/224/557 489/222/555 519/252/585 520/253/586 
f 493/226/559 491/224/557 520/253/586 521/254/587 
f 495/228/561 493/226/559 521/254/587 522/255/588 
f 497/230/563 495/228/561 522/255/588 523/256/589 
f 499/232/565 497/230/563 523/256/589 524/257/590 
f 501/234/567 499/232/565 524/257/590 525/258/591 
f 503/236/569 501/234/567 525/258/591 526/259/592 
f 505/238/571 503/236/569 526/259/592 527/260/593 
f 507/240/573 505/238/571 527/260/593 528/261/594 
f 509/242/575 507/240/573 528/261/594 529/262/595 
f 511/244/577 509/242/575 529/262/595 530/263/596 
f 513/246/579 511/244/577 530/263/596 531/264/597 
f 515/248/581 513/246/579 531/264/597 532/265/598 
f 517/250/583 515/248/581 532/265/598 533/266/599 
f 488/221/554 517/250/583 533/266/599 518/251/584 
s 2
f 519/267/585 518/268/584 534/269/600 
f 520/270/586 519/267/585 534/269/600 
f 521/271/587 520/270/586 534/269/600 
f 522/272/588 521/271/587 534/269/600 
f 523/273/589 522/272/588 534/269/600 
f 524/274/590 523/273/589 534/269/600 
f 525/275/591 524/274/590 534/269/600 
f 526/276/592 525/275/591 534/269/600 
f 527/277/593 526/276/592 534/269/600 
f 528/278/594 527/277/593 534/269/600 
f 529/279/595 528/278/594 534/269/600 
f 530/280/596 529/279/595 534/269/600 
f 531/281/597 530/280/596 534/269/600 
f 532/282/598 531/281/597 534/269/600 
f 533/283/599 532/282/598 534/269/600 
f 518/268/584 533/283/599 534/269/600 
s 1
f 455/204/524 454/203/523 487/220/553 486/219/552 
f 458/205/526 455/204/524 486/219/552 490/223/556 
f 460/206/528 458/205/526 490/223/556 492/225/558 
f 462/207/530 460/206/528 492/225/558 494/227/560 
f 464/208/531 462/207/530 494/227/560 496/229/562 
f 466/209/533 464/208/531 496/229/562 498/231/564 
f 468/210/535 466/209/533 498/231/564 500/233/566 
f 470/211/537 468/210/535 500/233/566 502/235/568 
f 472/212/539 470/211/537 502/235/568 504/237/570 
f 474/213/541 472/212/539 504/237/570 506/239/572 
f 476/214/543 474/213/541 506/239/572 508/241/574 
f 478/215/545 476/214/543 508/241/574 510/243/576 
f 480/216/546 478/215/545 510/243/576 512/245/578 
f 482/217/548 480/216/546 512/245/578 514/247/580 
f 484/218/550 482/217/548 514/247/580 516/249/582 
f 454/203/523 484/218/550 516/249/582 487/220/553 
f 535/284/601 536/285/602 537/285/603 538/284/604 
f 536/285/602 539/286/605 540/286/606 537/285/603 
f 539/286/605 541/287/607 542/287/608 540/286/606 
f 541/287/607 543/288/609 544/288/610 542/287/608 
f 543/288/609 545/289/611 546/289/612 544/288/610 
f 545/289/611 547/290/613 548/290/538 546/289/612 
f 547/290/613 549/291/614 550/291/615 548/290/538 
f 549/291/614 551/292/616 552/292/617 550/291/615 
f 551/292/616 553/293/618 554/293/435 552/292/617 
f 553/293/618 555/294/619 556/294/620 554/293/435 
f 555/294/619 557/295/621 558/295/622 556/294/620 
f 557/295/621 535/284/601 538/284/604 558/295/622 
s 2
f 536/285/602 535/284/601 559/296/431 
f 539/286/605 536/285/602 559/296/431 
f 541/287/607 539/286/605 559/296/431 
f 543/288/609 541/287/607 559/296/431 
f 545/289/611 543/288/609 559/296/431 
f 547/290/613 545/289/611 559/296/431 
f 549/291/614 547/290/613 559/296/431 
f 551/292/616 549/291/614 559/296/431 
f 553/293/618 551/292/616 559/296/431 
f 555/294/619 553/293/618 559/296/431 
f 557/295/621 555/294/619 559/296/431 
f 535/284/601 557/295/621 559/296/431 
s 1
f 560/297/623 561/298/624 562/298/625 563/297/419 
f 561/298/624 564/299/626 565/299/627 562/298/625 
f 564/299/626 566/300/628 567/300/629 565/299/627 
f 566/300/628 568/301/630 569/301/631 567/300/629 
f 568/301/630 570/302/632 571/302/447 569/301/631 
f 570/302/632 572/303/633 573/303/634 571/302/447 
f 572/303/633 574/304/635 575/304/636 573/303/634 
f 574/304/635 576/305/637 577/305/638 575/304/636 
f 576/305/637 578/306/639 579/306/640 577/305/638 
f 578/306/639 560/297/623 563/297/419 579/306/640 
s 2
f 561/298/624 560/297/623 580/307/431 
f 564/299/626 561/298/624 580/307/431 
f 566/300/628 564/299/626 580/307/431 
f 568/301/630 566/300/628 580/307/431 
f 570/302/632 568/301/630 580/307/431 
f 572/303/633 570/302/632 580/307/431 
f 574/304/635 572/303/633 580/307/431 
f 576/305/637 574/304/635 580/307/431 
f 578/306/639 576/305/637 580/307/431 
f 560/297/623 578/306/639 580/307/431 
f 581/308/641 582/309/642 583/310/432 584/311/443 
s 1
f 582/309/642 581/308/641 585/308/527 586/309/549 
f 583/310/432 582/309/642 586/309/549 587/310/435 
f 581/308/641 584/311/443 588/311/444 585/308/527 
s 2
f 589/312/641 590/313/642 591/314/643 592/315/644 
s 1
f 590/313/642 589/312/641 593/312/527 594/313/549 
f 589/312/641 592/315/644 595/315/534 593/312/527 
s 2
f 596/313/642 597/314/643 598/315/644 599/312/641 
s 1
f 600/314/643 601/313/642 602/313/549 603/314/542 
f 599/312/641 598/315/644 604/315/534 605/312/527 
f 597/314/643 596/313/642 606/313/549 607/314/542 
s 2
f 601/313/642 600/314/643 608/315/644 609/312/641 
s 1
f 609/312/641 608/315/644 610/315/534 611/312/527 
f 591/314/643 590/313/642 594/313/549 612/314/542 
f 591/314/643 612/314/542 595/315/534 592/315/644 
f 609/312/641 611/312/527 602/313/549 601/313/642 
f 599/312/641 605/312/527 606/313/549 596/313/642 
f 597/314/643 607/314/542 604/315/534 598/315/644 
f 600/314/643 603/314/542 610/315/534 608/315/644 
s 2
f 613/316/641 614/317/642 615/318/432 616/319/443 
s 1
f 614/317/642 613/316/641 617/316/527 618/317/549 
f 615/318/432 614/317/642 618/317/549 619/318/435 
f 613/316/641 616/319/443 620/319/444 617/316/527 
f 621/211/645 622/211/447 623/210/536 624/210/535 
f 624/210/535 623/210/536 625/209/534 626/209/533 
f 626/209/533 625/209/534 627/208/532 628/208/531 
f 628/208/531 627/208/532 629/207/444 630/207/530 
f 630/207/530 629/207/444 631/206/529 632/206/646 
f 632/206/646 631/206/529 633/205/527 634/205/526 
f 634/205/526 633/205/527 635/204/525 636/204/524 
f 636/204/524 635/204/525 637/203/604 638/203/647 
f 638/203/647 637/203/604 639/218/551 640/218/648 
f 640/218/648 639/218/551 641/217/549 642/217/649 
f 642/217/649 641/217/549 643/216/547 644/216/546 
f 644/216/546 643/216/547 645/215/650 646/215/545 
f 646/215/545 645/215/650 647/214/544 648/214/543 
f 648/214/543 647/214/544 649/213/542 650/213/541 
f 650/213/541 649/213/542 651/212/540 652/212/539 
f 652/212/539 651/212/540 622/211/447 621/211/645 
f 653/233/566 654/234/567 655/236/569 656/235/568 
f 657/231/564 658/232/565 654/234/567 653/233/566 
f 659/229/562 660/230/563 658/232/565 657/231/564 
f 661/227/560 662/228/561 660/230/563 659/229/562 
f 663/225/558 664/226/559 662/228/561 661/227/560 
f 665/223/556 666/224/557 664/226/559 663/225/558 
f 667/219/552 668/222/555 666/224/557 665/223/556 
f 669/220/553 670/221/554 668/222/555 667/219/552 
f 671/249/582 672/250/583 670/221/554 669/220/553 
f 673/247/580 674/248/581 672/250/583 671/249/582 
f 675/245/578 676/246/579 674/248/581 673/247/580 
f 677/243/576 678/244/577 676/246/579 675/245/578 
f 679/241/574 680/242/575 678/244/577 677/243/576 
f 681/239/572 682/240/573 680/242/575 679/241/574 
f 683/237/570 684/238/571 682/240/573 681/239/572 
f 656/235/568 655/236/569 684/238/571 683/237/570 
f 654/234/567 685/258/591 686/259/592 655/236/569 
f 658/232/565 687/257/590 685/258/591 654/234/567 
f 660/230/563 688/256/589 687/257/590 658/232/565 
f 662/228/561 689/255/588 688/256/589 660/230/563 
f 664/226/559 690/254/587 689/255/588 662/228/561 
f 666/224/557 691/253/586 690/254/587 664/226/559 
f 668/222/555 692/252/585 691/253/586 666/224/557 
f 670/221/554 693/251/584 692/252/585 668/222/555 
f 672/250/583 694/266/599 693/251/584 670/221/554 
f 674/248/581 695/265/598 694/266/599 672/250/583 
f 676/246/579 696/264/597 695/265/598 674/248/581 
f 678/244/577 697/263/596 696/264/597 676/246/579 
f 680/242/575 698/262/595 697/263/596 678/244/577 
f 682/240/573 699/261/594 698/262/595 680/242/575 
f 684/238/571 700/260/593 699/261/594 682/240/573 
f 655/236/569 686/259/592 700/260/593 684/238/571 
s 2
f 685/275/591 701/269/600 686/276/592 
f 687/274/590 701/269/600 685/275/591 
f 688/273/589 701/269/600 687/274/590 
f 689/272/588 701/269/600 688/273/589 
f 690/271/587 701/269/600 689/272/588 
f 691/270/586 701/269/600 690/271/587 
f 692/267/585 701/269/600 691/270/586 
f 693/268/584 701/269/600 692/267/585 
f 694/283/599 701/269/600 693/268/584 
f 695/282/598 701/269/600 694/283/599 
f 696/281/597 701/269/600 695/282/598 
f 697/280/596 701/269/600 696/281/597 
f 698/279/595 701/269/600 697/280/596 
f 699/278/594 701/269/600 698/279/595 
f 700/277/593 701/269/600 699/278/594 
f 686/276/592 701/269/600 700/277/593 
s 1
f 624/210/535 653/233/566 656/235/568 621/211/645 
f 626/209/533 657/231/564 653/233/566 624/210/535 
f 628/208/531 659/229/562 657/231/564 626/209/533 
f 630/207/530 661/227/560 659/229/562 628/208/531 
f 632/206/646 663/225/558 661/227/560 630/207/530 
f 634/205/526 665/223/556 663/225/558 632/206/646 
f 636/204/524 667/219/552 665/223/556 634/205/526 
f 638/203/647 669/220/553 667/219/552 636/204/524 
f 640/218/648 671/249/582 669/220/553 638/203/647 
f 642/217/649 673/247/580 671/249/582 640/218/648 
f 644/216/546 675/245/578 673/247/580 642/217/649 
f 646/215/545 677/243/576 675/245/578 644/216/546 
f 648/214/543 679/241/574 677/243/576 646/215/545 
f 650/213/541 681/239/572 679/241/574 648/214/543 
f 652/212/539 683/237/570 681/239/572 650/213/541 
f 621/211/645 656/235/568 683/237/570 652/212/539 
f 702/290/651 703/290/447 704/289/612 705/289/652 
f 705/289/652 704/289/612 706/288/610 707/288/653 
f 707/288/653 706/288/610 708/287/444 709/287/607 
f 709/287/607 708/287/444 710/286/606 711/286/605 
f 711/286/605 710/286/606 712/285/603 713/285/602 
f 713/285/602 712/285/603 714/284/604 715/284/601 
f 715/284/601 714/284/604 716/295/622 717/295/654 
f 717/295/654 716/295/622 718/294/620 719/294/655 
f 719/294/655 718/294/620 720/293/656 721/293/657 
f 721/293/657 720/293/656 722/292/617 723/292/658 
f 723/292/658 722/292/617 724/291/615 725/291/659 
f 725/291/659 724/291/615 703/290/447 702/290/651 
s 2
f 705/289/652 726/296/431 702/290/651 
f 707/288/653 726/296/431 705/289/652 
f 709/287/607 726/296/431 707/288/653 
f 711/286/605 726/296/431 709/287/607 
f 713/285/602 726/296/431 711/286/605 
f 715/284/601 726/296/431 713/285/602 
f 717/295/654 726/296/431 715/284/601 
f 719/294/655 726/296/431 717/295/654 
f 721/293/657 726/296/431 719/294/655 
f 723/292/658 726/296/431 721/293/657 
f 725/291/659 726/296/431 723/292/658 
f 702/290/651 726/296/431 725/291/659 
s 1
f 727/302/632 728/302/447 729/301/631 730/301/630 
f 730/301/630 729/301/631 731/300/629 732/300/628 
f 732/300/628 731/300/629 733/299/627 734/299/626 
f 734/299/626 733/299/627 735/298/625 736/298/624 
f 736/298/624 735/298/625 737/297/419 738/297/623 
f 738/297/623 737/297/419 739/306/660 740/306/661 
f 740/306/661 739/306/660 741/305/638 742/305/662 
f 742/305/662 741/305/638 743/304/636 744/304/663 
f 744/304/663 743/304/636 745/303/664 746/303/665 
f 746/303/665 745/303/664 728/302/447 727/302/632 
s 2
f 730/301/630 747/307/431 727/302/632 
f 732/300/628 747/307/431 730/301/630 
f 734/299/626 747/307/431 732/300/628 
f 736/298/624 747/307/431 734/299/626 
f 738/297/623 747/307/431 736/298/624 
f 740/306/661 747/307/431 738/297/623 
f 742/305/662 747/307/431 740/306/661 
f 744/304/663 747/307/431 742/305/662 
f 746/303/665 747/307/431 744/304/663 
f 727/302/632 747/307/431 746/303/665 
f 748/308/644 584/311/443 583/310/432 749/309/643 
s 1
f 749/309/643 750/309/542 751/308/534 748/308/644 
f 583/310/432 587/310/435 750/309/542 749/309/643 
f 748/308/644 751/308/534 588/311/444 584/311/443 
s 2
f 752/320/644 753/321/641 754/322/642 755/323/643 
s 1
f 755/323/643 756/323/542 757/320/534 752/320/644 
f 752/320/644 757/320/534 758/321/527 753/321/641 
s 2
f 759/323/643 760/320/644 761/321/641 762/322/642 
s 1
f 763/322/642 764/322/549 765/323/542 766/323/643 
f 760/320/644 767/320/534 768/321/527 761/321/641 
f 762/322/642 769/322/549 770/323/542 759/323/643 
s 2
f 766/323/643 771/320/644 772/321/641 763/322/642 
s 1
f 771/320/644 773/320/534 774/321/527 772/321/641 
f 754/322/642 775/322/549 756/323/542 755/323/643 
f 754/322/642 753/321/641 758/321/527 775/322/549 
f 771/320/644 766/323/643 765/323/542 773/320/534 
f 760/320/644 759/323/643 770/323/542 767/320/534 
f 762/322/642 761/321/641 768/321/527 769/322/549 
f 763/322/642 772/321/641 774/321/527 764/322/549 
s 2
f 776/316/644 616/319/443 615/318/432 777/317/643 
s 1
f 777/317/643 778/317/542 779/316/534 776/316/644 
f 615/318/432 619/318/435 778/317/542 777/317/643 
f 776/316/644 779/316/534 620/319/444 616/319/443 
s 2
f 780/324/432 781/325/642 782/325/549 783/324/435 
f 780/324/432 783/324/435 784/326/666 785/325/667 
f 786/324/475 783/324/435 782/325/549 787/325/668 
f 786/324/475 788/326/669 784/326/666 783/324/435 
s 1
f 781/325/642 780/324/432 789/327/431 790/328/420 
f 782/325/549 781/325/642 790/328/420 791/328/419 
f 785/325/667 784/326/666 792/329/670 793/328/671 
f 780/324/432 785/325/667 793/328/671 789/327/431 
f 787/325/668 782/325/549 791/328/419 794/328/467 
f 786/324/475 787/325/668 794/328/467 795/327/473 
f 788/326/669 786/324/475 795/327/473 796/329/486 
f 784/326/666 788/326/669 796/329/486 792/329/670 
s 2
f 797/313/642 798/314/643 799/315/644 800/312/641 
f 801/323/643 802/320/644 803/321/641 804/322/642 
s 1
f 799/315/644 798/314/643 805/314/542 806/315/534 
f 800/312/641 799/315/644 806/315/534 807/312/527 
f 798/314/643 797/313/642 808/313/549 805/314/542 
f 797/313/642 800/312/641 807/312/527 808/313/549 
f 801/323/643 804/322/642 809/322/549 810/323/542 
f 804/322/642 803/321/641 811/321/527 809/322/549 
f 803/321/641 802/320/644 812/320/534 811/321/527 
f 802/320/644 801/323/643 810/323/542 812/320/534 
f 813/330/672 814/331/673 815/332/674 816/333/675 817/334/676 818/335/677 
s 8
f 818/335/677 817/334/676 819/336/678 820/337/679 
f 817/334/676 816/333/675 821/338/680 819/336/678 
f 816/333/675 815/332/674 822/339/681 821/338/680 
f 815/332/674 814/331/673 823/340/682 822/339/681 
f 814/331/673 813/330/672 824/341/683 823/340/682 
f 813/342/672 818/335/677 820/337/679 824/343/683 
s off
f 820/337/679 819/336/678 825/336/684 826/337/685 
f 819/336/678 821/338/680 827/338/686 825/336/684 
f 821/338/680 822/339/681 828/339/687 827/338/686 
f 822/339/681 823/340/682 829/340/688 828/339/687 
f 823/340/682 824/341/683 830/341/689 829/340/688 
f 824/343/683 820/337/679 826/337/685 830/343/689 
f 826/337/685 825/336/684 831/336/690 832/337/691 
f 825/336/684 827/338/686 833/338/692 831/336/690 
f 827/338/686 828/339/687 834/339/693 833/338/692 
f 828/339/687 829/340/688 835/340/694 834/339/693 
f 829/340/688 830/341/689 836/341/695 835/340/694 
f 830/343/689 826/337/685 832/337/691 836/343/695 
f 832/337/691 831/336/690 837/344/696 
f 831/336/690 833/338/692 837/344/696 
f 833/338/692 834/339/693 837/344/696 
f 834/339/693 835/340/694 837/344/696 
f 835/340/694 836/341/695 837/344/696 
f 836/343/695 832/337/691 837/343/696 
s 8
f 838/335/604 839/334/697 840/336/698 841/337/699 
f 839/334/697 842/333/700 843/338/701 840/336/698 
f 842/333/700 844/332/447 845/339/702 843/338/701 
f 844/332/447 846/331/703 847/340/704 845/339/702 
f 846/331/703 848/330/705 849/341/706 847/340/704 
f 848/342/705 838/335/604 841/337/699 849/343/706 
s off
f 841/337/699 840/336/698 850/344/650 
f 840/336/698 843/338/701 850/344/650 
f 843/338/701 845/339/702 850/344/650 
f 845/339/702 847/340/704 850/344/650 
f 847/340/704 849/341/706 850/344/650 
f 849/343/706 841/337/699 850/343/650 
# 393 polygons - 88 triangles

