# 3ds Max Wavefront OBJ Exporter v0.99 - (c)2007 guruware
# File Created: 02.12.2025 11:19:01

mtllib Room (1).mtl

#
# object Room__1__Prefab
#

v  0.4186 3.4895 7.3493
v  0.2436 3.4895 6.9438
v  -6.6099 3.4895 6.9438
v  -6.9936 3.4895 7.3493
v  6.9936 3.4895 -7.4327
v  6.6099 3.4895 -7.0271
v  6.6099 3.4895 6.9438
v  6.9936 3.4895 7.3493
v  5.5238 3.4895 -7.4328
v  5.5238 3.4895 -7.0271
v  -6.9936 3.4895 0.8371
v  -6.6099 3.4895 0.6518
v  -6.6099 3.4895 -7.0271
v  -6.9936 3.4895 -7.4327
v  -6.6099 3.4895 1.0219
v  0.5941 3.4895 6.9438
v  0.5941 3.4895 0.6518
v  0.2436 3.4895 1.0219
v  -2.0359 3.4895 0.6518
v  -2.0359 3.4895 1.0219
v  2.8600 3.4895 7.3493
v  2.8603 3.4895 6.9438
v  4.3329 3.4895 7.3493
v  4.3331 3.4895 6.9438
v  -6.9936 0.1700 7.3493
v  0.4186 0.1700 7.3493
v  6.9936 0.1700 7.3493
v  6.9936 0.1700 -7.4327
v  -6.9936 0.1700 -7.4327
v  -6.9936 0.1700 0.8371
v  0.2436 0.1700 6.9438
v  -6.6099 0.1700 6.9438
v  -6.6099 0.1700 0.6518
v  -6.6099 0.1700 -7.0271
v  6.6099 0.1700 -7.0271
v  6.6099 0.1700 6.9438
v  -6.6099 0.1700 1.0219
v  -2.0359 0.1700 1.0219
v  0.2436 0.1700 1.0219
v  5.5238 0.1700 -7.0271
v  -4.1224 3.4895 0.6518
v  -4.1224 0.1700 0.6518
v  4.3331 0.1700 6.9438
v  2.8600 0.1700 7.3493
v  0.5941 0.1700 6.9438
v  0.5941 0.1700 0.6518
v  4.3329 0.1700 7.3493
v  2.8603 0.1700 6.9438
v  -4.1224 3.4895 1.0219
v  -4.1224 0.1700 1.0219
v  -2.0359 0.1700 0.6518
v  1.8335 3.4895 -7.4328
v  1.8332 3.4895 -7.0271
v  -5.5237 3.4895 -7.4328
v  -5.5238 3.4895 -7.0271
v  -1.8332 3.4895 -7.0271
v  -1.8333 3.4895 -7.4328
v  -5.5238 0.1700 -7.0271
v  2.6806 3.1088 -7.0271
v  4.6815 3.1088 -7.0271
v  1.8332 0.1700 -7.0271
v  2.6806 0.7345 -7.0271
v  4.6815 0.7345 -7.0271
v  -4.6815 3.1088 -7.0271
v  -2.6806 3.1088 -7.0271
v  -4.6815 0.7345 -7.0271
v  -1.8332 0.1700 -7.0271
v  -2.6806 0.7345 -7.0271
v  -0.9764 3.1088 -7.0271
v  0.9764 3.1088 -7.0271
v  -0.9764 0.7345 -7.0271
v  0.9764 0.7345 -7.0271
v  5.5238 0.1700 -7.4329
v  -5.5238 0.1700 -7.4329
v  4.6815 3.1088 -7.4329
v  2.6806 3.1088 -7.4329
v  2.6806 0.7345 -7.4329
v  1.8332 0.1700 -7.4329
v  4.6815 0.7345 -7.4329
v  -2.6806 3.1088 -7.4329
v  -4.6815 3.1088 -7.4329
v  -4.6815 0.7345 -7.4329
v  -2.6806 0.7345 -7.4329
v  -1.8332 0.1700 -7.4329
v  0.9764 3.1088 -7.4329
v  -0.9764 3.1088 -7.4329
v  -0.9764 0.7345 -7.4329
v  0.9764 0.7345 -7.4329
v  2.7000 0.0972 6.8964
v  2.7000 2.6655 6.8964
v  2.9223 2.6655 6.8964
v  2.9223 0.0972 6.8964
v  4.4915 0.0972 6.8964
v  4.2692 0.0972 6.8964
v  4.2692 2.6655 6.8964
v  4.4915 2.6655 6.8964
v  2.7000 3.5198 6.8964
v  2.9223 3.5198 6.8964
v  4.2692 3.5198 6.8964
v  4.4915 3.5198 6.8964
v  2.9223 2.6655 7.3986
v  2.7000 2.6655 7.3986
v  2.7000 0.0972 7.3986
v  2.9223 0.0972 7.3986
v  4.2692 2.6655 7.3986
v  4.2692 0.0972 7.3986
v  4.4915 0.0972 7.3986
v  4.4915 2.6655 7.3986
v  2.7000 3.5198 7.3986
v  2.9223 3.5198 7.3986
v  4.4915 3.5198 7.3986
v  4.2692 3.5198 7.3986
v  -4.2458 0.2200 0.5923
v  -4.2458 2.6655 0.5923
v  -3.8963 2.6655 0.5923
v  -3.8963 0.2200 0.5923
v  -1.9628 0.2200 0.5923
v  -2.3123 0.2200 0.5923
v  -2.3123 2.6655 0.5923
v  -1.9628 2.6655 0.5923
v  -4.2458 3.5198 0.5923
v  -3.8963 3.5198 0.5923
v  -2.3123 3.5198 0.5923
v  -1.9628 3.5198 0.5923
v  -3.8963 2.6655 1.0572
v  -4.2458 2.6655 1.0572
v  -4.2458 0.2200 1.0572
v  -3.8963 0.2200 1.0572
v  -2.3123 2.6655 1.0572
v  -2.3123 0.2200 1.0572
v  -1.9628 0.2200 1.0572
v  -1.9628 2.6655 1.0572
v  -4.2458 3.5198 1.0572
v  -3.8963 3.5198 1.0572
v  -1.9628 3.5198 1.0572
v  -2.3123 3.5198 1.0572
v  0.3446 0.2772 6.9438
v  0.3446 0.2772 0.7078
v  -6.6099 0.2772 0.7078
v  -6.6099 0.2772 6.9438
v  -6.9936 0.2772 0.7078
v  -6.9936 0.2772 7.3493
v  -6.6099 0.2772 -7.0271
v  0.3446 0.2772 -7.0271
v  0.3646 0.2772 -7.4327
v  -6.9936 0.2772 -7.4327
v  6.6099 0.2772 -7.0271
v  6.6099 0.2772 0.7078
v  6.9936 0.2772 0.7078
v  6.9936 0.2772 -7.4327
v  6.6099 0.2772 6.9438
v  0.3646 0.2772 7.3493
v  6.9936 0.2772 7.3493
v  4.4916 0.1150 7.5234
v  4.4916 0.1150 6.8979
v  4.4916 0.2861 6.9659
v  4.4916 0.2861 7.4074
v  2.6996 0.1150 7.5234
v  2.6996 0.2861 7.4074
v  2.6996 0.1150 6.8979
v  2.6996 0.2861 6.9659
v  4.6096 0.8198 -6.9366
v  4.6096 0.8198 -7.5234
v  2.7525 0.8198 -7.5234
v  2.7525 0.8198 -6.9366
v  4.6096 3.0235 -6.9366
v  4.6096 3.0235 -7.5234
v  2.7525 3.0235 -6.9366
v  2.7525 3.0235 -7.5234
v  0.9062 0.8198 -6.9366
v  0.9062 0.8198 -7.5234
v  -0.9062 0.8198 -7.5234
v  -0.9062 0.8198 -6.9366
v  0.9062 3.0235 -6.9366
v  0.9062 3.0235 -7.5234
v  -0.9062 3.0235 -6.9366
v  -0.9062 3.0235 -7.5234
v  -2.7525 0.8198 -6.9366
v  -2.7525 0.8198 -7.5234
v  -4.6096 0.8198 -7.5234
v  -4.6096 0.8198 -6.9366
v  -2.7525 3.0235 -6.9366
v  -2.7525 3.0235 -7.5234
v  -4.6096 3.0235 -6.9366
v  -4.6096 3.0235 -7.5234
v  2.5757 0.6431 -7.5234
v  4.7864 0.6431 -7.5234
v  4.7864 0.6431 -6.9366
v  2.5757 0.6431 -6.9366
v  4.7864 3.2003 -7.5234
v  4.7864 3.2003 -6.9366
v  2.5757 3.2003 -7.5234
v  2.5757 3.2003 -6.9366
v  -1.0830 0.6431 -7.5234
v  1.0830 0.6431 -7.5234
v  1.0830 0.6431 -6.9366
v  -1.0830 0.6431 -6.9366
v  1.0830 3.2003 -7.5234
v  1.0830 3.2003 -6.9366
v  -1.0830 3.2003 -7.5234
v  -1.0830 3.2003 -6.9366
v  -4.7864 0.6431 -7.5234
v  -2.5757 0.6431 -7.5234
v  -2.5757 0.6431 -6.9366
v  -4.7864 0.6431 -6.9366
v  -2.5757 3.2003 -7.5234
v  -2.5757 3.2003 -6.9366
v  -4.7864 3.2003 -7.5234
v  -4.7864 3.2003 -6.9366
# 209 vertices

vn -0.0000 1.0000 -0.0000
vn 0.0000 1.0000 -0.0000
vn 0.0000 0.0000 1.0000
vn 1.0000 0.0000 -0.0000
vn -1.0000 0.0000 -0.0000
vn 0.0000 0.0000 -1.0000
vn -1.0000 -0.0000 -0.0000
vn -0.0000 -0.0000 -1.0000
vn 1.0000 0.0000 0.0000
vn -0.0000 0.0000 1.0000
vn -1.0000 0.0000 -0.0004
vn 1.0000 0.0000 0.0007
vn 0.0000 -1.0000 -0.0000
vn -1.0000 -0.0000 0.0000
vn 1.0000 0.0002 -0.0000
vn 0.0000 0.9999 0.0115
vn 0.0000 0.9999 -0.0115
vn 0.0000 -0.0000 -1.0000
# 18 vertex normals

vt 0.5317 0.0000 0.0000
vt 0.5184 0.0000 0.0000
vt 0.0000 0.0000 0.0000
vt 1.0000 1.0000 0.0000
vt 1.0000 0.0000 0.0000
vt 0.8750 1.0000 0.0000
vt 0.0000 0.4371 0.0000
vt 0.0000 0.4504 0.0000
vt 0.0000 1.0000 0.0000
vt 0.0000 0.4239 0.0000
vt 0.5449 0.0000 0.0000
vt 0.5449 0.4239 0.0000
vt 0.5184 0.4239 0.0000
vt 0.3643 0.4327 0.0000
vt 0.3465 0.4239 0.0000
vt 0.7121 0.0000 0.0000
vt 0.8207 0.0000 0.0000
vt 0.1918 0.4410 0.0000
vt 0.1825 0.4239 0.0000
vt 0.6250 1.0000 0.0000
vt 0.1250 1.0000 0.0000
vt 0.3750 1.0000 0.0000
vt 0.7500 1.0000 0.0000
vt 0.2500 1.0000 0.0000
vt -0.0000 0.0000 0.0000
vt -0.0000 2.4455 0.0000
vt -0.7500 2.4455 0.0000
vt -0.7500 0.0000 0.0000
vt -4.8990 0.0000 0.0000
vt -4.1490 0.0000 0.0000
vt -4.1490 2.4455 0.0000
vt -4.8990 2.4455 0.0000
vt -0.0000 3.2998 0.0000
vt -0.7500 3.2998 0.0000
vt -4.1490 3.2998 0.0000
vt -4.8990 3.2998 0.0000
vt 0.7500 2.4455 0.0000
vt 0.7500 0.0000 0.0000
vt 4.1490 2.4455 0.0000
vt 4.1490 0.0000 0.0000
vt 4.8990 0.0000 0.0000
vt 4.8990 2.4455 0.0000
vt 0.7500 3.2998 0.0000
vt 4.8990 3.2998 0.0000
vt 4.1490 3.2998 0.0000
vt 0.7500 -2.2765 0.0000
vt 4.1490 -2.2765 0.0000
vt 4.1490 0.9063 0.0000
vt 0.7500 0.9063 0.0000
vt -2.2765 0.0000 0.0000
vt 0.9063 0.0000 0.0000
vt 0.9063 2.4455 0.0000
vt -2.2765 2.4455 0.0000
vt -0.9063 0.0000 0.0000
vt 2.2765 0.0000 0.0000
vt 2.2765 2.4455 0.0000
vt -0.9063 2.4455 0.0000
vt -0.7500 0.9063 0.0000
vt -4.1490 0.9063 0.0000
vt -4.1490 -2.2765 0.0000
vt -0.7500 -2.2765 0.0000
vt -4.8990 0.9063 0.0000
vt -4.8990 -2.2765 0.0000
vt -0.9063 3.2998 0.0000
vt 2.2765 3.2998 0.0000
vt 0.0000 0.9063 0.0000
vt -0.0000 -2.2765 0.0000
vt 0.9063 3.2998 0.0000
vt -2.2765 3.2998 0.0000
vt 0.4739 0.0000 0.0000
vt 0.4739 0.4503 0.0000
vt 1.0000 0.4503 0.0000
vt 0.4739 1.0000 0.0000
vt 0.0000 0.4503 0.0000
vt 11.2896 -0.0001 0.0000
vt 17.1185 -0.0001 0.0000
vt 15.9864 0.1274 0.0000
vt 12.4217 0.1274 0.0000
vt -11.2186 -10.3795 0.0000
vt -11.2186 9.3658 0.0000
vt -12.3579 9.3658 0.0000
vt -12.3579 -10.3795 0.0000
vt -17.1185 -0.0000 0.0000
vt -11.2896 -0.0000 0.0000
vt -12.4217 0.1276 0.0000
vt -15.9864 0.1276 0.0000
vt -17.0109 9.3658 0.0000
vt -17.0109 -10.3795 0.0000
vt -15.8716 -10.3795 0.0000
vt -15.8716 9.3658 0.0000
vt -12.4217 9.3658 0.0000
vt -15.9864 9.3658 0.0000
vt -15.9864 -10.3795 0.0000
vt -12.4217 -10.3795 0.0000
# 94 texture coords

o Room__1__Prefab
g Room__1__Prefab
usemtl Lit
s 1
f 1/1/1 2/2/1 3/3/2 
f 3/3/2 4/3/2 1/1/1 
f 5/4/2 6/4/2 7/5/2 
f 7/5/2 8/5/2 5/4/2 
f 9/6/2 10/6/2 6/4/2 
f 6/4/2 5/4/2 9/6/2 
f 11/7/2 12/8/2 13/9/2 
f 13/9/2 14/9/2 11/7/2 
f 11/7/2 15/10/2 12/8/2 
f 11/7/2 4/3/2 3/3/2 
f 3/3/2 15/10/2 11/7/2 
f 16/11/1 17/12/1 18/13/1 
f 18/13/1 2/2/1 16/11/1 
f 1/1/1 16/11/1 2/2/1 
f 19/14/2 20/15/2 18/13/1 
f 18/13/1 17/12/1 19/14/2 
f 21/16/1 22/16/1 16/11/1 
f 16/11/1 1/1/1 21/16/1 
f 23/17/2 8/5/2 7/5/2 
f 7/5/2 24/17/2 23/17/2 
s 2
f 1/1/3 4/3/3 25/3/3 
f 25/3/3 26/1/3 1/1/3 
f 5/4/4 8/5/4 27/5/4 
f 27/5/4 28/4/4 5/4/4 
s 4
f 11/7/5 14/9/5 29/9/5 
f 29/9/5 30/7/5 11/7/5 
s 2
f 3/3/6 2/2/6 31/2/6 
f 31/2/6 32/3/6 3/3/6 
f 13/9/4 12/8/4 33/8/4 
f 33/8/4 34/9/4 13/9/4 
f 7/5/7 6/4/7 35/4/7 
f 35/4/7 36/5/7 7/5/7 
s 4
f 15/10/4 3/3/4 32/3/4 
f 32/3/4 37/10/4 15/10/4 
f 4/3/5 11/7/5 30/7/5 
f 30/7/5 25/3/5 4/3/5 
s 2
f 20/15/3 38/15/3 39/13/3 
f 39/13/3 18/13/3 20/15/3 
s 4
f 10/6/3 40/6/3 35/4/3 
f 35/4/3 6/4/3 10/6/3 
f 41/18/6 42/18/6 33/8/6 
f 33/8/6 12/8/6 41/18/6 
f 2/2/5 18/13/5 39/13/5 
f 39/13/5 31/2/5 2/2/5 
f 24/17/8 7/5/8 36/5/8 
f 36/5/8 43/17/8 24/17/8 
s 2
f 21/16/3 1/1/3 26/1/3 
f 26/1/3 44/16/3 21/16/3 
f 17/12/9 16/11/9 45/11/9 
f 45/11/9 46/12/9 17/12/9 
s 4
f 8/5/10 23/17/10 47/17/10 
f 47/17/10 27/5/10 8/5/10 
s 2
f 23/17/11 24/17/11 43/17/11 
f 43/17/11 47/17/11 23/17/11 
s 4
f 16/11/6 22/16/6 48/16/6 
f 48/16/6 45/11/6 16/11/6 
s 8
f 22/16/12 21/16/12 44/16/12 
f 44/16/12 48/16/12 22/16/12 
s 1
f 12/8/2 15/10/2 49/19/2 
f 49/19/2 41/18/2 12/8/2 
s 2
f 15/10/3 37/10/3 50/19/3 
f 50/19/3 49/19/3 15/10/3 
s 4
f 17/12/6 46/12/6 51/14/6 
f 51/14/6 19/14/6 17/12/6 
s 1
f 52/20/2 53/20/2 10/6/2 
f 10/6/2 9/6/2 52/20/2 
f 54/21/2 55/21/2 56/22/2 
f 56/22/2 57/22/2 54/21/2 
f 57/22/2 56/22/2 53/20/2 
f 53/20/2 52/20/2 57/22/2 
f 54/21/2 14/9/2 13/9/2 
f 13/9/2 55/21/2 54/21/2 
s 4
f 13/9/3 34/9/3 58/21/10 
f 58/21/10 55/21/10 13/9/3 
f 10/6/3 53/20/10 59/20/10 
f 59/20/10 60/6/3 10/6/3 
f 53/20/10 61/20/10 62/20/10 
f 62/20/10 59/20/10 53/20/10 
f 61/20/10 40/6/3 63/6/3 
f 63/6/3 62/20/10 61/20/10 
f 40/6/3 10/6/3 60/6/3 
f 60/6/3 63/6/3 40/6/3 
f 56/22/3 55/21/10 64/21/10 
f 64/21/10 65/22/3 56/22/3 
f 55/21/10 58/21/10 66/21/10 
f 66/21/10 64/21/10 55/21/10 
f 58/21/10 67/22/3 68/22/3 
f 68/22/3 66/21/10 58/21/10 
f 67/22/3 56/22/3 65/22/3 
f 65/22/3 68/22/3 67/22/3 
f 53/20/10 56/22/3 69/22/10 
f 69/22/10 70/20/3 53/20/10 
f 56/22/3 67/22/3 71/22/10 
f 71/22/10 69/22/10 56/22/3 
f 67/22/3 61/20/10 72/20/3 
f 72/20/3 71/22/10 67/22/3 
f 61/20/10 53/20/10 70/20/3 
f 70/20/3 72/20/3 61/20/10 
s 8
f 9/6/6 5/4/6 28/4/6 
f 28/4/6 73/6/6 9/6/6 
f 14/9/6 54/21/6 74/21/6 
f 74/21/6 29/9/6 14/9/6 
f 75/6/6 76/20/6 52/20/6 
f 52/20/6 9/6/6 75/6/6 
f 52/20/6 76/20/6 77/20/6 
f 77/20/6 78/20/6 52/20/6 
f 78/20/6 77/20/6 79/6/6 
f 79/6/6 73/6/6 78/20/6 
f 73/6/6 79/6/6 75/6/6 
f 75/6/6 9/6/6 73/6/6 
f 80/22/6 81/21/6 54/21/6 
f 54/21/6 57/22/6 80/22/6 
f 54/21/6 81/21/6 82/21/6 
f 82/21/6 74/21/6 54/21/6 
f 74/21/6 82/21/6 83/22/6 
f 83/22/6 84/22/6 74/21/6 
f 84/22/6 83/22/6 80/22/6 
f 80/22/6 57/22/6 84/22/6 
f 85/20/6 86/22/6 57/22/6 
f 57/22/6 52/20/6 85/20/6 
f 57/22/6 86/22/6 87/22/6 
f 87/22/6 84/22/6 57/22/6 
f 84/22/6 87/22/6 88/20/6 
f 88/20/6 78/20/6 84/22/6 
f 78/20/6 88/20/6 85/20/6 
f 85/20/6 52/20/6 78/20/6 
s 1
f 77/9/2 62/6/2 63/6/2 
f 63/6/2 79/23/2 77/9/2 
s 2
f 79/23/5 63/6/5 60/22/5 
f 60/22/5 75/6/5 79/23/5 
s 1
f 75/6/13 60/22/13 59/22/13 
f 59/22/13 76/21/13 75/6/13 
s 2
f 76/21/4 59/22/4 62/6/4 
f 62/6/4 77/9/4 76/21/4 
s 1
f 87/22/2 71/21/2 72/22/2 
f 72/22/2 88/24/2 87/22/2 
s 2
f 88/24/14 72/22/14 70/22/14 
f 70/22/14 85/24/14 88/24/14 
s 1
f 85/24/13 70/22/13 69/21/13 
f 69/21/13 86/24/13 85/24/13 
s 2
f 86/24/4 69/21/4 71/21/4 
f 71/21/4 87/22/4 86/24/4 
s 1
f 82/20/2 66/20/2 68/6/2 
f 68/6/2 83/6/2 82/20/2 
s 2
f 83/6/7 68/6/7 65/6/7 
f 65/6/7 80/20/7 83/6/7 
s 1
f 80/20/13 65/6/13 64/20/13 
f 64/20/13 81/20/13 80/20/13 
s 2
f 81/20/4 64/20/4 66/20/4 
f 66/20/4 82/20/4 81/20/4 
s 1
f 89/25/6 90/26/6 91/27/6 
f 91/27/6 92/28/6 89/25/6 
f 93/29/6 94/30/6 95/31/6 
f 95/31/6 96/32/6 93/29/6 
f 91/27/6 90/26/6 97/33/6 
f 97/33/6 98/34/6 91/27/6 
f 95/31/6 99/35/6 100/36/6 
f 100/36/6 96/32/6 95/31/6 
f 95/31/6 91/27/6 98/34/6 
f 98/34/6 99/35/6 95/31/6 
f 101/37/3 102/26/3 103/25/3 
f 103/25/3 104/38/3 101/37/3 
f 105/39/3 106/40/3 107/41/3 
f 107/41/3 108/42/3 105/39/3 
f 109/33/3 102/26/3 101/37/3 
f 101/37/3 110/43/3 109/33/3 
f 111/44/3 112/45/3 105/39/3 
f 105/39/3 108/42/3 111/44/3 
f 110/43/3 101/37/3 105/39/3 
f 105/39/3 112/45/3 110/43/3 
s 2
f 91/46/13 95/47/13 105/48/13 
f 105/48/13 101/49/13 91/46/13 
s 4
f 94/50/5 106/51/5 105/52/5 
f 105/52/5 95/53/5 94/50/5 
f 104/54/4 92/55/4 91/56/4 
f 91/56/4 101/57/4 104/54/4 
s 2
f 110/58/2 112/59/2 99/60/2 
f 99/60/2 98/61/2 110/58/2 
f 112/59/2 111/62/2 100/63/2 
f 100/63/2 99/60/2 112/59/2 
s 4
f 111/64/4 108/57/4 96/56/4 
f 96/56/4 100/65/4 111/64/4 
f 108/57/4 107/54/4 93/55/4 
f 93/55/4 96/56/4 108/57/4 
s 2
f 109/66/2 110/58/2 98/61/2 
f 98/61/2 97/67/2 109/66/2 
s 4
f 102/52/5 109/68/5 97/69/5 
f 97/69/5 90/53/5 102/52/5 
f 103/51/5 102/52/5 90/53/5 
f 90/53/5 89/50/5 103/51/5 
s 1
f 113/25/6 114/26/6 115/27/6 
f 115/27/6 116/28/6 113/25/6 
f 117/29/6 118/30/6 119/31/6 
f 119/31/6 120/32/6 117/29/6 
f 115/27/6 114/26/6 121/33/6 
f 121/33/6 122/34/6 115/27/6 
f 119/31/6 123/35/6 124/36/6 
f 124/36/6 120/32/6 119/31/6 
f 119/31/6 115/27/6 122/34/6 
f 122/34/6 123/35/6 119/31/6 
f 125/37/3 126/26/3 127/25/3 
f 127/25/3 128/38/3 125/37/3 
f 129/39/3 130/40/3 131/41/3 
f 131/41/3 132/42/3 129/39/3 
f 133/33/3 126/26/3 125/37/3 
f 125/37/3 134/43/3 133/33/3 
f 135/44/3 136/45/3 129/39/3 
f 129/39/3 132/42/3 135/44/3 
f 134/43/3 125/37/3 129/39/3 
f 129/39/3 136/45/3 134/43/3 
s 2
f 115/46/13 119/47/13 129/40/13 
f 129/40/13 125/38/13 115/46/13 
s 4
f 118/50/5 130/25/5 129/26/5 
f 129/26/5 119/53/5 118/50/5 
f 128/25/4 116/55/4 115/56/4 
f 115/56/4 125/26/4 128/25/4 
s 2
f 134/28/2 136/30/2 123/60/2 
f 123/60/2 122/61/2 134/28/2 
f 136/30/2 135/29/2 124/63/2 
f 124/63/2 123/60/2 136/30/2 
s 4
f 135/33/4 132/26/4 120/56/4 
f 120/56/4 124/65/4 135/33/4 
f 132/26/4 131/25/4 117/55/4 
f 117/55/4 120/56/4 132/26/4 
s 2
f 133/25/2 134/28/2 122/61/2 
f 122/61/2 121/67/2 133/25/2 
s 4
f 126/26/5 133/33/5 121/69/5 
f 121/69/5 114/53/5 126/26/5 
f 127/25/5 126/26/5 114/53/5 
f 114/53/5 113/50/5 127/25/5 
s 1
f 137/70/2 138/71/2 139/72/2 
f 139/72/2 140/5/2 137/70/2 
f 140/5/2 139/72/2 141/72/2 
f 141/72/2 142/5/2 140/5/2 
f 143/4/2 144/73/2 145/73/2 
f 145/73/2 146/4/2 143/4/2 
f 147/9/2 148/74/2 149/74/2 
f 149/74/2 150/9/2 147/9/2 
f 151/3/2 137/70/2 152/70/2 
f 152/70/2 153/3/2 151/3/2 
f 147/9/2 144/73/2 138/71/2 
f 138/71/2 148/74/2 147/9/2 
f 143/4/2 146/4/2 141/72/2 
f 141/72/2 139/72/2 143/4/2 
f 151/3/2 153/3/2 149/74/2 
f 149/74/2 148/74/2 151/3/2 
f 151/3/2 148/74/2 138/71/2 
f 138/71/2 137/70/2 151/3/2 
f 147/9/2 150/9/2 145/73/2 
f 145/73/2 144/73/2 147/9/2 
f 140/5/2 142/5/2 152/70/2 
f 152/70/2 137/70/2 140/5/2 
f 143/4/2 139/72/2 138/71/2 
f 138/71/2 144/73/2 143/4/2 
f 154/75/15 155/76/15 156/77/15 
f 156/77/15 157/78/15 154/75/15 
s 2
f 158/79/16 154/80/16 157/81/16 
f 157/81/16 159/82/16 158/79/16 
s 1
f 160/83/5 158/84/5 159/85/5 
f 159/85/5 161/86/5 160/83/5 
s 2
f 155/87/17 160/88/17 161/89/17 
f 161/89/17 156/90/17 155/87/17 
s 4
f 157/91/2 156/92/2 161/93/2 
f 161/93/2 159/94/2 157/91/2 
s 1
f 162/6/2 163/23/2 164/9/2 
f 164/9/2 165/6/2 162/6/2 
s 2
f 166/22/5 167/6/5 163/23/5 
f 163/23/5 162/6/5 166/22/5 
s 1
f 168/22/13 169/21/13 167/6/13 
f 167/6/13 166/22/13 168/22/13 
s 2
f 165/6/4 164/9/4 169/21/4 
f 169/21/4 168/22/4 165/6/4 
s 1
f 170/22/2 171/24/2 172/22/2 
f 172/22/2 173/21/2 170/22/2 
s 2
f 174/22/14 175/24/14 171/24/14 
f 171/24/14 170/22/14 174/22/14 
s 1
f 176/21/13 177/24/13 175/24/13 
f 175/24/13 174/22/13 176/21/13 
s 2
f 173/21/4 172/22/4 177/24/4 
f 177/24/4 176/21/4 173/21/4 
s 1
f 178/6/2 179/6/2 180/20/2 
f 180/20/2 181/20/2 178/6/2 
s 2
f 182/6/5 183/20/5 179/6/5 
f 179/6/5 178/6/5 182/6/5 
s 1
f 184/20/13 185/20/13 183/20/13 
f 183/20/13 182/6/13 184/20/13 
s 2
f 181/20/4 180/20/4 185/20/4 
f 185/20/4 184/20/4 181/20/4 
s 1
f 186/9/13 187/23/13 188/6/13 
f 188/6/13 189/6/13 186/9/13 
s 2
f 187/23/4 190/6/4 191/22/4 
f 191/22/4 188/6/4 187/23/4 
s 1
f 190/6/2 192/21/2 193/22/2 
f 193/22/2 191/22/2 190/6/2 
s 2
f 192/21/5 186/9/5 189/6/5 
f 189/6/5 193/22/5 192/21/5 
s 1
f 194/22/13 195/24/13 196/22/13 
f 196/22/13 197/21/13 194/22/13 
s 2
f 195/24/4 198/24/4 199/22/4 
f 199/22/4 196/22/4 195/24/4 
s 1
f 198/24/2 200/24/2 201/21/2 
f 201/21/2 199/22/2 198/24/2 
s 2
f 200/24/7 194/22/7 197/21/7 
f 197/21/7 201/21/7 200/24/7 
s 1
f 202/20/13 203/6/13 204/6/13 
f 204/6/13 205/20/13 202/20/13 
s 2
f 203/6/4 206/20/4 207/6/4 
f 207/6/4 204/6/4 203/6/4 
s 1
f 206/20/2 208/20/2 209/20/2 
f 209/20/2 207/6/2 206/20/2 
s 2
f 208/20/5 202/20/5 205/20/5 
f 205/20/5 209/20/5 208/20/5 
s 4
f 189/6/10 188/6/3 162/6/3 
f 162/6/3 165/6/10 189/6/10 
f 187/23/18 186/9/18 164/9/18 
f 164/9/18 163/23/18 187/23/18 
f 188/6/3 191/22/3 166/22/3 
f 166/22/3 162/6/3 188/6/3 
f 190/6/18 187/23/18 163/23/18 
f 163/23/18 167/6/18 190/6/18 
f 191/22/3 193/22/10 168/22/10 
f 168/22/10 166/22/3 191/22/3 
f 192/21/18 190/6/18 167/6/18 
f 167/6/18 169/21/18 192/21/18 
f 193/22/10 189/6/10 165/6/10 
f 165/6/10 168/22/10 193/22/10 
f 186/9/18 192/21/18 169/21/18 
f 169/21/18 164/9/18 186/9/18 
f 197/21/10 196/22/3 170/22/3 
f 170/22/3 173/21/10 197/21/10 
f 195/24/18 194/22/18 172/22/18 
f 172/22/18 171/24/18 195/24/18 
f 196/22/3 199/22/3 174/22/3 
f 174/22/3 170/22/3 196/22/3 
f 198/24/18 195/24/18 171/24/18 
f 171/24/18 175/24/18 198/24/18 
f 199/22/3 201/21/10 176/21/10 
f 176/21/10 174/22/3 199/22/3 
f 200/24/18 198/24/18 175/24/18 
f 175/24/18 177/24/18 200/24/18 
f 201/21/10 197/21/10 173/21/10 
f 173/21/10 176/21/10 201/21/10 
f 194/22/18 200/24/18 177/24/18 
f 177/24/18 172/22/18 194/22/18 
f 205/20/10 204/6/3 178/6/3 
f 178/6/3 181/20/10 205/20/10 
f 203/6/18 202/20/18 180/20/18 
f 180/20/18 179/6/18 203/6/18 
f 204/6/3 207/6/3 182/6/3 
f 182/6/3 178/6/3 204/6/3 
f 206/20/18 203/6/18 179/6/18 
f 179/6/18 183/20/18 206/20/18 
f 207/6/3 209/20/10 184/20/10 
f 184/20/10 182/6/3 207/6/3 
f 208/20/18 206/20/18 183/20/18 
f 183/20/18 185/20/18 208/20/18 
f 209/20/10 205/20/10 181/20/10 
f 181/20/10 184/20/10 209/20/10 
f 202/20/18 208/20/18 185/20/18 
f 185/20/18 180/20/18 202/20/18 
# 360 faces

