# 3ds Max Wavefront OBJ Exporter v0.99 - (c)2007 guruware
# File Created: 04.12.2025 19:51:52

mtllib RoomNumber.mtl

#
# object RoomNumber
#

v  -0.3602 0.1445 0.0001
v  -0.3602 -0.1445 0.0001
v  0.3602 -0.1445 0.0001
v  0.3602 0.1445 0.0001
# 4 vertices

vn 0.0000 0.0000 1.0000
# 1 vertex normals

vt 0.8009 0.9686 0.0000
vt 0.8009 0.8009 0.0000
vt 0.9902 0.8009 0.0000
vt 0.9902 0.9686 0.0000
# 4 texture coords

o RoomNumber
g RoomNumber
usemtl RoomNumber
s 1
f 1/1/1 2/2/1 3/3/1 4/4/1 
# 1 polygons

