# 3ds Max Wavefront OBJ Exporter v0.99 - (c)2007 guruware
# File Created: 04.12.2025 19:43:02

mtllib RoomModule.mtl

#
# object RoomWall_01
#

v  4.3329 3.4895 7.3493
v  6.9936 3.4895 7.3493
v  6.6099 3.4895 6.9438
v  4.3331 3.4895 6.9438
v  6.6099 0.1700 6.9438
v  4.3331 0.1700 6.9438
v  4.3329 0.1700 7.3493
v  6.9936 0.1700 7.3493
v  4.2692 2.6655 6.8964
v  4.4915 2.6655 6.8964
v  4.4915 0.0972 6.8964
v  4.2692 0.0972 6.8964
v  4.4915 3.5198 6.8964
v  4.2692 3.5198 6.8964
v  4.4915 0.0972 7.3986
v  4.4915 2.6655 7.3986
v  4.2692 2.6655 7.3986
v  4.2692 0.0972 7.3986
v  4.4915 3.5198 7.3986
v  4.2692 3.5198 7.3986
# 20 vertices

vn 0.0000 1.0000 -0.0000
vn -0.0000 -0.0000 -1.0000
vn -0.0000 0.0000 1.0000
vn -1.0000 0.0000 -0.0004
vn 0.0000 0.0000 -1.0000
vn 0.0000 0.0000 1.0000
vn -1.0000 0.0000 -0.0000
vn 1.0000 0.0000 -0.0000
# 8 vertex normals

vt 0.8207 0.0000 0.0000
vt 1.0000 0.0000 0.0000
vt -4.1490 2.4455 0.0000
vt -4.8990 2.4455 0.0000
vt -4.8990 0.0000 0.0000
vt -4.1490 0.0000 0.0000
vt -4.8990 3.2998 0.0000
vt -4.1490 3.2998 0.0000
vt 4.8990 0.0000 0.0000
vt 4.8990 2.4455 0.0000
vt 4.1490 2.4455 0.0000
vt 4.1490 0.0000 0.0000
vt 4.8990 3.2998 0.0000
vt 4.1490 3.2998 0.0000
vt 0.9063 2.4455 0.0000
vt -2.2765 2.4455 0.0000
vt -2.2765 0.0000 0.0000
vt 0.9063 0.0000 0.0000
vt -4.8990 -2.2765 0.0000
vt -4.1490 -2.2765 0.0000
vt -4.1490 0.9063 0.0000
vt -4.8990 0.9063 0.0000
vt 2.2765 2.4455 0.0000
vt 2.2765 3.2998 0.0000
vt -0.9063 3.2998 0.0000
vt -0.9063 2.4455 0.0000
vt 2.2765 0.0000 0.0000
vt -0.9063 0.0000 0.0000
# 28 texture coords

o RoomWall_01
g RoomWall_01
usemtl RoomPrefab
s 1
f 1/1/1 2/2/1 3/2/1 4/1/1 
s 4
f 4/1/2 3/2/2 5/2/2 6/1/2 
f 2/2/3 1/1/3 7/1/3 8/2/3 
s 2
f 1/1/4 4/1/4 6/1/4 7/1/4 
s 1
f 9/3/5 10/4/5 11/5/5 12/6/5 
f 13/7/5 10/4/5 9/3/5 14/8/5 
f 15/9/6 16/10/6 17/11/6 18/12/6 
f 17/11/6 16/10/6 19/13/6 20/14/6 
s 4
f 17/15/7 9/16/7 12/17/7 18/18/7 
s 2
f 13/19/1 14/20/1 20/21/1 19/22/1 
s 4
f 10/23/8 13/24/8 19/25/8 16/26/8 
f 11/27/8 10/23/8 16/26/8 15/28/8 
# 12 polygons

#
# object RoomFloor
#

v  -6.6099 0.2772 6.9438
v  0.3446 0.2772 6.9438
v  0.3446 0.2772 0.7078
v  -6.6099 0.2772 0.7078
v  -6.9936 0.2772 7.3493
v  -6.9936 0.2772 0.7078
v  -6.9936 0.2772 -7.4327
v  -6.6099 0.2772 -7.0271
v  0.3446 0.2772 -7.0271
v  0.3646 0.2772 -7.4327
v  6.9936 0.2772 -7.4327
v  6.6099 0.2772 -7.0271
v  6.6099 0.2772 0.7078
v  6.9936 0.2772 0.7078
v  6.9936 0.2772 7.3493
v  6.6099 0.2772 6.9438
v  0.3646 0.2772 7.3493
v  4.4916 0.2861 7.4074
v  2.6996 0.2861 7.4074
v  2.6996 0.1150 7.5234
v  4.4916 0.1150 7.5234
v  2.6996 0.2861 6.9659
v  4.4916 0.2861 6.9659
v  4.4916 0.1150 6.8979
v  2.6996 0.1150 6.8979
# 25 vertices

vn 0.0000 1.0000 -0.0000
vn 0.0000 0.9999 0.0115
vn 0.0000 0.9999 -0.0114
vn -1.0000 0.0000 -0.0000
vn 1.0000 0.0002 -0.0000
# 5 vertex normals

vt 1.0000 0.0000 0.0000
vt 0.4739 0.0000 0.0000
vt 0.4739 0.4503 0.0000
vt 1.0000 0.4503 0.0000
vt 1.0000 1.0000 0.0000
vt 0.4739 1.0000 0.0000
vt 0.0000 1.0000 0.0000
vt 0.0000 0.4503 0.0000
vt 0.0000 0.0000 0.0000
vt -12.3579 9.3658 0.0000
vt -12.3579 -10.3795 0.0000
vt -11.2186 -10.3795 0.0000
vt -11.2186 9.3658 0.0000
vt -15.8716 -10.3795 0.0000
vt -15.8716 9.3658 0.0000
vt -17.0109 9.3658 0.0000
vt -17.0109 -10.3795 0.0000
vt -15.9864 -10.3795 0.0000
vt -12.4217 -10.3795 0.0000
vt -12.4217 9.3658 0.0000
vt -15.9864 9.3658 0.0000
vt -12.4217 0.1276 0.0000
vt -15.9864 0.1276 0.0000
vt -17.1185 -0.0000 0.0000
vt -11.2896 -0.0000 0.0000
vt 15.9864 0.1274 0.0000
vt 12.4217 0.1274 0.0000
vt 11.2896 -0.0001 0.0000
vt 17.1185 -0.0001 0.0000
# 29 texture coords

o RoomFloor
g RoomFloor
usemtl RoomPrefab
s 1
f 21/29/9 22/30/9 23/31/9 24/32/9 
f 25/29/9 21/29/9 24/32/9 26/32/9 
f 27/33/9 28/33/9 29/34/9 30/34/9 
f 31/35/9 32/35/9 33/36/9 34/36/9 
f 35/37/9 36/37/9 22/30/9 37/30/9 
f 33/36/9 32/35/9 29/34/9 23/31/9 
f 24/32/9 28/33/9 27/33/9 26/32/9 
f 33/36/9 36/37/9 35/37/9 34/36/9 
f 22/30/9 36/37/9 33/36/9 23/31/9 
f 29/34/9 32/35/9 31/35/9 30/34/9 
f 22/30/9 21/29/9 25/29/9 37/30/9 
f 29/34/9 28/33/9 24/32/9 23/31/9 
s 2
f 38/38/10 39/39/10 40/40/10 41/41/10 
f 42/42/11 43/43/11 44/44/11 45/45/11 
s 4
f 42/46/9 39/47/9 38/48/9 43/49/9 
s 1
f 39/50/12 42/51/12 45/52/12 40/53/12 
f 43/54/13 38/55/13 41/56/13 44/57/13 
# 17 polygons

#
# object RoomWall_08
#

v  0.5941 3.4895 0.6518
v  -2.0359 3.4895 0.6518
v  -2.0359 3.4895 1.0219
v  0.2436 3.4895 1.0219
v  -2.0359 0.1700 1.0219
v  0.2436 0.1700 1.0219
v  0.5941 0.1700 0.6518
v  -2.0359 0.1700 0.6518
v  -2.3123 2.6655 0.5923
v  -1.9628 2.6655 0.5923
v  -1.9628 0.2200 0.5923
v  -2.3123 0.2200 0.5923
v  -1.9628 3.5198 0.5923
v  -2.3123 3.5198 0.5923
v  -1.9628 0.2200 1.0572
v  -1.9628 2.6655 1.0572
v  -2.3123 2.6655 1.0572
v  -2.3123 0.2200 1.0572
v  -1.9628 3.5198 1.0572
v  -2.3123 3.5198 1.0572
# 20 vertices

vn 0.0000 1.0000 -0.0000
vn 0.0000 0.0000 1.0000
vn 0.0000 0.0000 -1.0000
vn -1.0000 0.0000 -0.0000
vn 1.0000 0.0000 -0.0000
# 5 vertex normals

vt 0.5449 0.4239 0.0000
vt 0.3643 0.4327 0.0000
vt 0.3465 0.4239 0.0000
vt 0.5184 0.4239 0.0000
vt -4.1490 2.4455 0.0000
vt -4.8990 2.4455 0.0000
vt -4.8990 0.0000 0.0000
vt -4.1490 0.0000 0.0000
vt -4.8990 3.2998 0.0000
vt -4.1490 3.2998 0.0000
vt 4.8990 0.0000 0.0000
vt 4.8990 2.4455 0.0000
vt 4.1490 2.4455 0.0000
vt 4.1490 0.0000 0.0000
vt 4.8990 3.2998 0.0000
vt 4.1490 3.2998 0.0000
vt -0.0000 2.4455 0.0000
vt -2.2765 2.4455 0.0000
vt -2.2765 0.0000 0.0000
vt -0.0000 0.0000 0.0000
vt -4.8990 -2.2765 0.0000
vt -4.1490 -2.2765 0.0000
vt 2.2765 2.4455 0.0000
vt 2.2765 3.2998 0.0000
vt -0.0000 3.2998 0.0000
vt 2.2765 0.0000 0.0000
# 26 texture coords

o RoomWall_08
g RoomWall_08
usemtl RoomPrefab
s 1
f 46/58/14 47/59/14 48/60/14 49/61/14 
s 2
f 49/61/15 48/60/15 50/60/15 51/61/15 
s 4
f 47/59/16 46/58/16 52/58/16 53/59/16 
s 1
f 54/62/16 55/63/16 56/64/16 57/65/16 
f 58/66/16 55/63/16 54/62/16 59/67/16 
f 60/68/15 61/69/15 62/70/15 63/71/15 
f 62/70/15 61/69/15 64/72/15 65/73/15 
s 4
f 62/74/17 54/75/17 57/76/17 63/77/17 
s 2
f 58/78/14 59/79/14 65/65/14 64/64/14 
s 4
f 55/80/18 58/81/18 64/82/18 61/74/18 
f 56/83/18 55/80/18 61/74/18 60/77/18 
# 11 polygons

#
# object RoomWall_06
#

v  6.9936 3.4895 -7.4327
v  5.5238 3.4895 -7.4328
v  5.5238 3.4895 -7.0271
v  6.6099 3.4895 -7.0271
v  5.5238 0.1700 -7.0271
v  6.6099 0.1700 -7.0271
v  1.8335 3.4895 -7.4328
v  1.8332 3.4895 -7.0271
v  -1.8333 3.4895 -7.4328
v  -5.5237 3.4895 -7.4328
v  -5.5238 3.4895 -7.0271
v  -1.8332 3.4895 -7.0271
v  -6.9936 3.4895 -7.4327
v  -6.6099 3.4895 -7.0271
v  -6.6099 0.1700 -7.0271
v  -5.5238 0.1700 -7.0271
v  2.6806 3.1088 -7.0271
v  4.6815 3.1088 -7.0271
v  1.8332 0.1700 -7.0271
v  2.6806 0.7345 -7.0271
v  4.6815 0.7345 -7.0271
v  -4.6815 3.1088 -7.0271
v  -2.6806 3.1088 -7.0271
v  -4.6815 0.7345 -7.0271
v  -1.8332 0.1700 -7.0271
v  -2.6806 0.7345 -7.0271
v  -0.9764 3.1088 -7.0271
v  0.9764 3.1088 -7.0271
v  -0.9764 0.7345 -7.0271
v  0.9764 0.7345 -7.0271
v  6.9936 0.1700 -7.4327
v  5.5238 0.1700 -7.4329
v  -5.5238 0.1700 -7.4329
v  -6.9936 0.1700 -7.4327
v  4.6815 3.1088 -7.4329
v  2.6806 3.1088 -7.4329
v  2.6806 0.7345 -7.4329
v  1.8332 0.1700 -7.4329
v  4.6815 0.7345 -7.4329
v  -2.6806 3.1088 -7.4329
v  -4.6815 3.1088 -7.4329
v  -4.6815 0.7345 -7.4329
v  -2.6806 0.7345 -7.4329
v  -1.8332 0.1700 -7.4329
v  0.9764 3.1088 -7.4329
v  -0.9764 3.1088 -7.4329
v  -0.9764 0.7345 -7.4329
v  0.9764 0.7345 -7.4329
v  2.7525 0.8198 -7.5234
v  2.7525 0.8198 -6.9366
v  4.6096 0.8198 -6.9366
v  4.6096 0.8198 -7.5234
v  4.6096 3.0235 -6.9366
v  4.6096 3.0235 -7.5234
v  2.7525 3.0235 -6.9366
v  2.7525 3.0235 -7.5234
v  -0.9062 0.8198 -7.5234
v  -0.9062 0.8198 -6.9366
v  0.9062 0.8198 -6.9366
v  0.9062 0.8198 -7.5234
v  0.9062 3.0235 -6.9366
v  0.9062 3.0235 -7.5234
v  -0.9062 3.0235 -6.9366
v  -0.9062 3.0235 -7.5234
v  -4.6096 0.8198 -7.5234
v  -4.6096 0.8198 -6.9366
v  -2.7525 0.8198 -6.9366
v  -2.7525 0.8198 -7.5234
v  -2.7525 3.0235 -6.9366
v  -2.7525 3.0235 -7.5234
v  -4.6096 3.0235 -6.9366
v  -4.6096 3.0235 -7.5234
v  4.7864 0.6431 -6.9366
v  2.5757 0.6431 -6.9366
v  2.5757 0.6431 -7.5234
v  4.7864 0.6431 -7.5234
v  4.7864 3.2003 -6.9366
v  4.7864 3.2003 -7.5234
v  2.5757 3.2003 -6.9366
v  2.5757 3.2003 -7.5234
v  1.0830 0.6431 -6.9366
v  -1.0830 0.6431 -6.9366
v  -1.0830 0.6431 -7.5234
v  1.0830 0.6431 -7.5234
v  1.0830 3.2003 -6.9366
v  1.0830 3.2003 -7.5234
v  -1.0830 3.2003 -6.9366
v  -1.0830 3.2003 -7.5234
v  -2.5757 0.6431 -6.9366
v  -4.7864 0.6431 -6.9366
v  -4.7864 0.6431 -7.5234
v  -2.5757 0.6431 -7.5234
v  -2.5757 3.2003 -6.9366
v  -2.5757 3.2003 -7.5234
v  -4.7864 3.2003 -6.9366
v  -4.7864 3.2003 -7.5234
# 96 vertices

vn 0.0000 1.0000 -0.0000
vn 0.0000 0.0000 1.0000
vn -0.0000 0.0000 1.0000
vn 0.0000 0.0000 -1.0000
vn -1.0000 0.0000 -0.0000
vn 0.0000 -1.0000 -0.0000
vn 1.0000 0.0000 -0.0000
vn -1.0000 -0.0000 0.0000
vn -1.0000 -0.0000 -0.0000
vn 0.0000 -0.0000 -1.0000
# 10 vertex normals

vt 1.0000 1.0000 0.0000
vt 0.8750 1.0000 0.0000
vt 0.6250 1.0000 0.0000
vt 0.3750 1.0000 0.0000
vt 0.1250 1.0000 0.0000
vt 0.0000 1.0000 0.0000
vt 0.7500 1.0000 0.0000
vt 0.2500 1.0000 0.0000
# 8 texture coords

o RoomWall_06
g RoomWall_06
usemtl RoomPrefab
s 1
f 66/84/19 67/85/19 68/85/19 69/84/19 
s 4
f 69/84/20 68/85/20 70/85/20 71/84/20 
s 1
f 67/85/19 72/86/19 73/86/19 68/85/19 
f 74/87/19 75/88/19 76/88/19 77/87/19 
f 72/86/19 74/87/19 77/87/19 73/86/19 
f 75/88/19 78/89/19 79/89/19 76/88/19 
s 4
f 76/88/21 79/89/20 80/89/20 81/88/21 
f 68/85/20 73/86/21 82/86/21 83/85/20 
f 73/86/21 84/86/21 85/86/21 82/86/21 
f 84/86/21 70/85/20 86/85/20 85/86/21 
f 70/85/20 68/85/20 83/85/20 86/85/20 
f 77/87/20 76/88/21 87/88/21 88/87/20 
f 76/88/21 81/88/21 89/88/21 87/88/21 
f 81/88/21 90/87/20 91/87/20 89/88/21 
f 90/87/20 77/87/20 88/87/20 91/87/20 
f 73/86/21 77/87/20 92/87/21 93/86/20 
f 77/87/20 90/87/20 94/87/21 92/87/21 
f 90/87/20 84/86/21 95/86/20 94/87/21 
f 84/86/21 73/86/21 93/86/20 95/86/20 
s 8
f 66/84/22 96/84/22 97/85/22 67/85/22 
f 75/88/22 98/88/22 99/89/22 78/89/22 
f 67/85/22 100/85/22 101/86/22 72/86/22 
f 72/86/22 101/86/22 102/86/22 103/86/22 
f 103/86/22 102/86/22 104/85/22 97/85/22 
f 97/85/22 104/85/22 100/85/22 67/85/22 
f 74/87/22 105/87/22 106/88/22 75/88/22 
f 75/88/22 106/88/22 107/88/22 98/88/22 
f 98/88/22 107/88/22 108/87/22 109/87/22 
f 109/87/22 108/87/22 105/87/22 74/87/22 
f 72/86/22 110/86/22 111/87/22 74/87/22 
f 74/87/22 111/87/22 112/87/22 109/87/22 
f 109/87/22 112/87/22 113/86/22 103/86/22 
f 103/86/22 113/86/22 110/86/22 72/86/22 
s 1
f 102/89/19 85/85/19 86/85/19 104/90/19 
s 2
f 100/85/23 104/90/23 86/85/23 83/87/23 
s 1
f 100/85/24 83/87/24 82/87/24 101/88/24 
s 2
f 102/89/25 101/88/25 82/87/25 85/85/25 
s 1
f 113/91/19 112/87/19 94/88/19 95/87/19 
s 2
f 110/91/26 113/91/26 95/87/26 93/87/26 
s 1
f 110/91/24 93/87/24 92/88/24 111/91/24 
s 2
f 112/87/25 111/91/25 92/88/25 94/88/25 
s 1
f 108/85/19 107/86/19 89/86/19 91/85/19 
s 2
f 105/86/27 108/85/27 91/85/27 88/85/27 
s 1
f 105/86/24 88/85/24 87/86/24 106/86/24 
s 2
f 107/86/25 106/86/25 87/86/25 89/86/25 
s 1
f 114/89/19 115/85/19 116/85/19 117/90/19 
s 2
f 117/90/23 116/85/23 118/87/23 119/85/23 
s 1
f 119/85/24 118/87/24 120/87/24 121/88/24 
s 2
f 121/88/25 120/87/25 115/85/25 114/89/25 
s 1
f 122/87/19 123/88/19 124/87/19 125/91/19 
s 2
f 125/91/26 124/87/26 126/87/26 127/91/26 
s 1
f 127/91/24 126/87/24 128/88/24 129/91/24 
s 2
f 129/91/25 128/88/25 123/88/25 122/87/25 
s 1
f 130/86/19 131/86/19 132/85/19 133/85/19 
s 2
f 133/85/23 132/85/23 134/85/23 135/86/23 
s 1
f 135/86/24 134/85/24 136/86/24 137/86/24 
s 2
f 137/86/25 136/86/25 131/86/25 130/86/25 
s 1
f 138/85/24 139/85/24 140/89/24 141/90/24 
s 2
f 142/87/25 138/85/25 141/90/25 143/85/25 
s 1
f 144/87/19 142/87/19 143/85/19 145/88/19 
s 2
f 139/85/23 144/87/23 145/88/23 140/89/23 
s 1
f 146/87/24 147/88/24 148/87/24 149/91/24 
s 2
f 150/87/25 146/87/25 149/91/25 151/91/25 
s 1
f 152/88/19 150/87/19 151/91/19 153/91/19 
s 2
f 147/88/27 152/88/27 153/91/27 148/87/27 
s 1
f 154/85/24 155/86/24 156/86/24 157/85/24 
s 2
f 158/85/25 154/85/25 157/85/25 159/86/25 
s 1
f 160/86/19 158/85/19 159/86/19 161/86/19 
s 2
f 155/86/23 160/86/23 161/86/23 156/86/23 
s 4
f 116/85/20 115/85/21 139/85/21 138/85/20 
f 114/89/28 117/90/28 141/90/28 140/89/28 
f 118/87/20 116/85/20 138/85/20 142/87/20 
f 117/90/28 119/85/28 143/85/28 141/90/28 
f 120/87/21 118/87/20 142/87/20 144/87/21 
f 119/85/28 121/88/28 145/88/28 143/85/28 
f 115/85/21 120/87/21 144/87/21 139/85/21 
f 121/88/28 114/89/28 140/89/28 145/88/28 
f 124/87/20 123/88/21 147/88/21 146/87/20 
f 122/87/28 125/91/28 149/91/28 148/87/28 
f 126/87/20 124/87/20 146/87/20 150/87/20 
f 125/91/28 127/91/28 151/91/28 149/91/28 
f 128/88/21 126/87/20 150/87/20 152/88/21 
f 127/91/28 129/91/28 153/91/28 151/91/28 
f 123/88/21 128/88/21 152/88/21 147/88/21 
f 129/91/28 122/87/28 148/87/28 153/91/28 
f 132/85/20 131/86/21 155/86/21 154/85/20 
f 130/86/28 133/85/28 157/85/28 156/86/28 
f 134/85/20 132/85/20 154/85/20 158/85/20 
f 133/85/28 135/86/28 159/86/28 157/85/28 
f 136/86/21 134/85/20 158/85/20 160/86/21 
f 135/86/28 137/86/28 161/86/28 159/86/28 
f 131/86/21 136/86/21 160/86/21 155/86/21 
f 137/86/28 130/86/28 156/86/28 161/86/28 
# 93 polygons

#
# object RoomWall_05
#

v  -6.9936 3.4895 -7.4327
v  -6.9936 3.4895 0.8371
v  -6.6099 3.4895 0.6518
v  -6.6099 3.4895 -7.0271
v  -6.6099 3.4895 1.0219
v  -6.9936 3.4895 7.3493
v  -6.6099 3.4895 6.9438
v  -6.9936 0.1700 -7.4327
v  -6.9936 0.1700 0.8371
v  -6.6099 0.1700 0.6518
v  -6.6099 0.1700 -7.0271
v  -6.6099 0.1700 6.9438
v  -6.6099 0.1700 1.0219
v  -6.9936 0.1700 7.3493
# 14 vertices

vn 0.0000 1.0000 -0.0000
vn -1.0000 0.0000 -0.0000
vn 1.0000 0.0000 -0.0000
# 3 vertex normals

vt 0.0000 1.0000 0.0000
vt 0.0000 0.4371 0.0000
vt 0.0000 0.4504 0.0000
vt 0.0000 0.4239 0.0000
vt 0.0000 0.0000 0.0000
# 5 texture coords

o RoomWall_05
g RoomWall_05
usemtl RoomPrefab
s 1
f 162/92/29 163/93/29 164/94/29 165/92/29 
f 163/93/29 166/95/29 164/94/29 
f 163/93/29 167/96/29 168/96/29 166/95/29 
s 4
f 163/93/30 162/92/30 169/92/30 170/93/30 
s 2
f 165/92/31 164/94/31 171/94/31 172/92/31 
s 4
f 166/95/31 168/96/31 173/96/31 174/95/31 
f 167/96/30 163/93/30 170/93/30 175/96/30 
# 6 polygons - 1 triangles

#
# object RoomWall_07
#

v  0.2436 3.4895 6.9438
v  0.5941 3.4895 6.9438
v  0.5941 3.4895 0.6518
v  0.2436 3.4895 1.0219
v  0.2436 0.1700 1.0219
v  0.2436 0.1700 6.9438
v  0.5941 0.1700 6.9438
v  0.5941 0.1700 0.6518
# 8 vertices

vn -0.0000 1.0000 -0.0000
vn -1.0000 0.0000 -0.0000
vn 1.0000 0.0000 0.0000
# 3 vertex normals

vt 0.5184 0.0000 0.0000
vt 0.5449 0.0000 0.0000
vt 0.5449 0.4239 0.0000
vt 0.5184 0.4239 0.0000
# 4 texture coords

o RoomWall_07
g RoomWall_07
usemtl RoomPrefab
s 1
f 176/97/32 177/98/32 178/99/32 179/100/32 
s 4
f 176/97/33 179/100/33 180/100/33 181/97/33 
s 2
f 178/99/34 177/98/34 182/98/34 183/99/34 
# 3 polygons

#
# object RoomWall_04
#

v  6.9936 3.4895 7.3493
v  6.9936 3.4895 -7.4327
v  6.6099 3.4895 -7.0271
v  6.6099 3.4895 6.9438
v  6.9936 0.1700 7.3493
v  6.9936 0.1700 -7.4327
v  6.6099 0.1700 -7.0271
v  6.6099 0.1700 6.9438
# 8 vertices

vn 0.0000 1.0000 -0.0000
vn 1.0000 0.0000 -0.0000
vn -1.0000 -0.0000 -0.0000
# 3 vertex normals

vt 1.0000 0.0000 0.0000
vt 1.0000 1.0000 0.0000
# 2 texture coords

o RoomWall_04
g RoomWall_04
usemtl RoomPrefab
s 1
f 184/101/35 185/102/35 186/102/35 187/101/35 
s 2
f 185/102/36 184/101/36 188/101/36 189/102/36 
f 187/101/37 186/102/37 190/102/37 191/101/37 
# 3 polygons

#
# object RoomWall_03
#

v  2.9223 3.5198 6.8964
v  4.2692 3.5198 6.8964
v  4.2692 2.6655 6.8964
v  2.9223 2.6655 6.8964
v  4.2692 2.6655 7.3986
v  4.2692 3.5198 7.3986
v  2.9223 3.5198 7.3986
v  2.9223 2.6655 7.3986
# 8 vertices

vn 0.0000 0.0000 -1.0000
vn 0.0000 0.0000 1.0000
vn 0.0000 -1.0000 -0.0000
vn 0.0000 1.0000 -0.0000
# 4 vertex normals

vt -0.7500 3.2998 0.0000
vt -4.1490 3.2998 0.0000
vt -4.1490 2.4455 0.0000
vt -0.7500 2.4455 0.0000
vt 4.1490 2.4455 0.0000
vt 4.1490 3.2998 0.0000
vt 0.7500 3.2998 0.0000
vt 0.7500 2.4455 0.0000
vt 4.1490 0.9063 0.0000
vt 0.7500 0.9063 0.0000
vt 0.7500 -2.2765 0.0000
vt 4.1490 -2.2765 0.0000
vt -4.1490 -2.2765 0.0000
vt -0.7500 -2.2765 0.0000
vt -0.7500 0.9063 0.0000
vt -4.1490 0.9063 0.0000
# 16 texture coords

o RoomWall_03
g RoomWall_03
usemtl RoomPrefab
s 1
f 192/103/38 193/104/38 194/105/38 195/106/38 
f 196/107/39 197/108/39 198/109/39 199/110/39 
s 2
f 196/111/40 199/112/40 195/113/40 194/114/40 
f 193/115/41 192/116/41 198/117/41 197/118/41 
# 4 polygons

#
# object RoomWall_02
#

v  -6.9936 3.4895 7.3493
v  0.4186 3.4895 7.3493
v  0.2436 3.4895 6.9438
v  -6.6099 3.4895 6.9438
v  0.5941 3.4895 6.9438
v  2.8600 3.4895 7.3493
v  2.8603 3.4895 6.9438
v  -6.9936 0.1700 7.3493
v  0.4186 0.1700 7.3493
v  0.2436 0.1700 6.9438
v  -6.6099 0.1700 6.9438
v  2.8600 0.1700 7.3493
v  2.8603 0.1700 6.9438
v  0.5941 0.1700 6.9438
v  2.9223 2.6655 6.8964
v  2.9223 0.0972 6.8964
v  2.7000 0.0972 6.8964
v  2.7000 2.6655 6.8964
v  2.7000 3.5198 6.8964
v  2.9223 3.5198 6.8964
v  2.7000 0.0972 7.3986
v  2.9223 0.0972 7.3986
v  2.9223 2.6655 7.3986
v  2.7000 2.6655 7.3986
v  2.9223 3.5198 7.3986
v  2.7000 3.5198 7.3986
# 26 vertices

vn 0.0000 1.0000 -0.0000
vn -0.0000 1.0000 -0.0000
vn 0.0000 0.0000 1.0000
vn 0.0000 0.0000 -1.0000
vn 1.0000 0.0000 0.0007
vn 1.0000 0.0000 -0.0000
vn -1.0000 0.0000 -0.0000
# 7 vertex normals

vt 0.0000 0.0000 0.0000
vt 0.5317 0.0000 0.0000
vt 0.5184 0.0000 0.0000
vt 0.5449 0.0000 0.0000
vt 0.7121 0.0000 0.0000
vt -0.7500 2.4455 0.0000
vt -0.7500 0.0000 0.0000
vt -0.0000 0.0000 0.0000
vt -0.0000 2.4455 0.0000
vt -0.0000 3.2998 0.0000
vt -0.7500 3.2998 0.0000
vt 0.7500 0.0000 0.0000
vt 0.7500 2.4455 0.0000
vt 0.7500 3.2998 0.0000
vt 2.2765 2.4455 0.0000
vt -0.9063 2.4455 0.0000
vt -0.9063 0.0000 0.0000
vt 2.2765 0.0000 0.0000
vt -0.7500 -2.2765 0.0000
vt -0.0000 -2.2765 0.0000
vt 0.0000 0.9063 0.0000
vt -0.7500 0.9063 0.0000
vt -2.2765 3.2998 0.0000
vt -2.2765 2.4455 0.0000
vt 0.9063 2.4455 0.0000
vt 0.9063 3.2998 0.0000
vt -2.2765 0.0000 0.0000
vt 0.9063 0.0000 0.0000
# 28 texture coords

o RoomWall_02
g RoomWall_02
usemtl RoomPrefab
s 1
f 200/119/42 201/120/43 202/121/42 203/119/42 
f 201/120/43 204/122/43 202/121/42 
f 201/120/43 205/123/43 206/123/43 204/122/43 
s 2
f 201/120/44 200/119/44 207/119/44 208/120/44 
f 203/119/45 202/121/45 209/121/45 210/119/45 
f 205/123/44 201/120/44 208/120/44 211/123/44 
s 4
f 204/122/45 206/123/45 212/123/45 213/122/45 
s 8
f 206/123/46 205/123/46 211/123/46 212/123/46 
s 1
f 214/124/45 215/125/45 216/126/45 217/127/45 
f 218/128/45 219/129/45 214/124/45 217/127/45 
f 220/126/44 221/130/44 222/131/44 223/127/44 
f 222/131/44 224/132/44 225/128/44 223/127/44 
s 4
f 214/133/47 222/134/47 221/135/47 215/136/47 
s 2
f 219/137/42 218/138/42 225/139/42 224/140/42 
s 4
f 218/141/48 217/142/48 223/143/48 225/144/48 
f 217/142/48 216/145/48 220/146/48 223/143/48 
# 15 polygons - 1 triangles

#
# object RoomCeiling
#

v  6.9936 3.4890 -7.4327
v  6.9936 3.4890 7.3493
v  -6.9936 3.4890 7.3493
v  -6.9936 3.4890 -7.4327
# 4 vertices

vn 0.0000 -1.0000 -0.0000
# 1 vertex normals

vt 0.0000 1.0000 0.0000
vt 0.0000 0.0000 0.0000
vt 1.0000 0.0000 0.0000
vt 1.0000 1.0000 0.0000
# 4 texture coords

o RoomCeiling
g RoomCeiling
usemtl RoomPrefab
s 1
f 226/147/49 227/148/49 228/149/49 229/150/49 
# 1 polygons

#
# object RoomWall_09
#

v  -3.8963 3.5198 0.5923
v  -2.3123 3.5198 0.5923
v  -2.3123 2.6655 0.5923
v  -3.8963 2.6655 0.5923
v  -2.3123 2.6655 1.0572
v  -2.3123 3.5198 1.0572
v  -3.8963 3.5198 1.0572
v  -3.8963 2.6655 1.0572
# 8 vertices

vn 0.0000 0.0000 -1.0000
vn 0.0000 0.0000 1.0000
vn 0.0000 -1.0000 -0.0000
vn 0.0000 1.0000 -0.0000
# 4 vertex normals

vt -0.7500 3.2998 0.0000
vt -4.1490 3.2998 0.0000
vt -4.1490 2.4455 0.0000
vt -0.7500 2.4455 0.0000
vt 4.1490 2.4455 0.0000
vt 4.1490 3.2998 0.0000
vt 0.7500 3.2998 0.0000
vt 0.7500 2.4455 0.0000
vt 4.1490 0.0000 0.0000
vt 0.7500 0.0000 0.0000
vt 0.7500 -2.2765 0.0000
vt 4.1490 -2.2765 0.0000
vt -4.1490 -2.2765 0.0000
vt -0.7500 -2.2765 0.0000
vt -0.7500 0.0000 0.0000
vt -4.1490 0.0000 0.0000
# 16 texture coords

o RoomWall_09
g RoomWall_09
usemtl RoomPrefab
s 1
f 230/151/50 231/152/50 232/153/50 233/154/50 
f 234/155/51 235/156/51 236/157/51 237/158/51 
s 2
f 234/159/52 237/160/52 233/161/52 232/162/52 
f 231/163/53 230/164/53 236/165/53 235/166/53 
# 4 polygons

#
# object RoomWall_10
#

v  -6.6099 3.4895 0.6518
v  -4.1224 3.4895 0.6518
v  -4.1224 0.1700 0.6518
v  -6.6099 0.1700 0.6518
v  -6.6099 3.4895 1.0219
v  -4.1224 3.4895 1.0219
v  -6.6099 0.1700 1.0219
v  -4.1224 0.1700 1.0219
v  -3.8963 2.6655 0.5923
v  -3.8963 0.2200 0.5923
v  -4.2458 0.2200 0.5923
v  -4.2458 2.6655 0.5923
v  -4.2458 3.5198 0.5923
v  -3.8963 3.5198 0.5923
v  -4.2458 0.2200 1.0572
v  -3.8963 0.2200 1.0572
v  -3.8963 2.6655 1.0572
v  -4.2458 2.6655 1.0572
v  -3.8963 3.5198 1.0572
v  -4.2458 3.5198 1.0572
# 20 vertices

vn 0.0000 0.0000 -1.0000
vn 0.0000 1.0000 -0.0000
vn 0.0000 0.0000 1.0000
vn 1.0000 0.0000 -0.0000
vn -1.0000 0.0000 -0.0000
# 5 vertex normals

vt 0.0000 0.4504 0.0000
vt 0.1918 0.4410 0.0000
vt 0.0000 0.4239 0.0000
vt 0.1825 0.4239 0.0000
vt -0.7500 2.4455 0.0000
vt -0.7500 0.0000 0.0000
vt -0.0000 0.0000 0.0000
vt -0.0000 2.4455 0.0000
vt -0.0000 3.2998 0.0000
vt -0.7500 3.2998 0.0000
vt 0.7500 0.0000 0.0000
vt 0.7500 2.4455 0.0000
vt 0.7500 3.2998 0.0000
vt 2.2765 2.4455 0.0000
vt 2.2765 0.0000 0.0000
vt -0.7500 -2.2765 0.0000
vt -0.0000 -2.2765 0.0000
vt -2.2765 3.2998 0.0000
vt -2.2765 2.4455 0.0000
vt -2.2765 0.0000 0.0000
# 20 texture coords

o RoomWall_10
g RoomWall_10
usemtl RoomPrefab
s 4
f 238/167/54 239/168/54 240/168/54 241/167/54 
s 1
f 239/168/55 238/167/55 242/169/55 243/170/55 
s 2
f 243/170/56 242/169/56 244/169/56 245/170/56 
s 1
f 246/171/54 247/172/54 248/173/54 249/174/54 
f 250/175/54 251/176/54 246/171/54 249/174/54 
f 252/173/56 253/177/56 254/178/56 255/174/56 
f 254/178/56 256/179/56 257/175/56 255/174/56 
s 4
f 246/180/57 254/174/57 253/173/57 247/181/57 
s 2
f 251/182/55 250/183/55 257/173/55 256/172/55 
s 4
f 250/184/58 249/185/58 255/174/58 257/175/58 
f 249/185/58 248/186/58 252/173/58 255/174/58 
# 11 polygons

