# 3ds Max Wavefront OBJ Exporter v0.99 - (c)2007 guruware
# File Created: 02.12.2025 11:34:30

mtllib E_013_Radio.mtl

#
# object E_013_Radio
#

v  0.0000 0.9609 0.0054
v  -0.5530 0.9607 0.0054
v  -0.4770 0.9605 0.4866
v  0.0000 0.9607 0.5563
v  0.0000 0.9607 -0.5476
v  -0.4770 0.9605 -0.4711
v  0.0000 0.9200 0.6236
v  -0.5344 0.9199 0.5410
v  0.0000 0.9200 -0.6195
v  -0.5344 0.9199 -0.5287
v  -0.6245 0.9200 0.0054
v  0.4770 0.9605 0.4866
v  0.5530 0.9607 0.0054
v  0.4770 0.9605 -0.4711
v  0.5344 0.9199 0.5410
v  0.5344 0.9199 -0.5287
v  0.6245 0.9200 0.0054
v  0.0000 0.8044 0.6337
v  -0.5425 0.8044 0.5459
v  0.0000 0.8044 -0.6337
v  -0.5425 0.8044 -0.5371
v  -0.6384 0.8044 0.0054
v  0.5425 0.8044 0.5459
v  0.5425 0.8044 -0.5371
v  0.6384 0.8044 0.0054
v  -0.3047 0.2765 0.3245
v  -0.4342 0.2765 0.3245
v  -0.4342 0.8211 0.3245
v  -0.3047 0.8211 0.3245
v  -0.4342 0.2765 0.4546
v  -0.4342 0.8211 0.4546
v  -0.3047 0.2765 0.4546
v  -0.3047 0.8211 0.4546
v  0.4522 0.2765 0.3245
v  0.3226 0.2765 0.3245
v  0.3226 0.8211 0.3245
v  0.4522 0.8211 0.3245
v  0.3226 0.2765 0.4546
v  0.3226 0.8211 0.4546
v  0.4522 0.2765 0.4546
v  0.4522 0.8211 0.4546
v  -0.3047 0.2765 -0.4063
v  -0.4342 0.2765 -0.4063
v  -0.4342 0.8211 -0.4063
v  -0.3047 0.8211 -0.4063
v  -0.4342 0.2765 -0.2763
v  -0.4342 0.8211 -0.2763
v  -0.3047 0.2765 -0.2763
v  -0.3047 0.8211 -0.2763
v  0.4522 0.2765 -0.4063
v  0.3226 0.2765 -0.4063
v  0.3226 0.8211 -0.4063
v  0.4522 0.8211 -0.4063
v  0.3226 0.2765 -0.2763
v  0.3226 0.8211 -0.2763
v  0.4522 0.2765 -0.2763
v  0.4522 0.8211 -0.2763
v  0.1140 1.0438 -0.4203
v  0.1140 1.1697 -0.4203
v  0.2278 1.1697 -0.4104
v  0.2278 1.0438 -0.4104
v  0.1061 0.9588 -0.3301
v  0.1109 0.9912 -0.3859
v  0.2248 0.9912 -0.3759
v  0.2200 0.9588 -0.3202
v  0.1140 1.2956 -0.4203
v  0.1109 1.3482 -0.3859
v  0.2248 1.3482 -0.3759
v  0.2278 1.2956 -0.4104
v  0.2167 1.2894 -0.3878
v  0.2102 1.2894 -0.3143
v  0.2102 1.1697 -0.3143
v  0.2167 1.1697 -0.3878
v  0.2201 1.3806 -0.3219
v  0.1062 1.3806 -0.3319
v  0.0763 1.3806 0.0097
v  0.1902 1.3806 0.0196
v  0.2142 1.0072 -0.3597
v  0.2167 1.0500 -0.3878
v  0.2102 1.0500 -0.3143
v  0.2102 0.9808 -0.3143
v  0.2142 1.3322 -0.3597
v  0.2102 1.3586 -0.3143
v  0.1809 1.3586 0.0206
v  0.1809 1.2894 0.0206
v  0.1809 1.1697 0.0206
v  0.1809 0.9808 0.0206
v  0.1809 1.0500 0.0206
v  0.1901 0.9588 0.0214
v  0.0762 0.9588 0.0114
v  0.0384 1.0438 0.4432
v  0.1523 1.0438 0.4532
v  0.1523 1.1697 0.4532
v  0.0384 1.1697 0.4432
v  0.0463 0.9588 0.3530
v  0.1602 0.9588 0.3630
v  0.1553 0.9912 0.4187
v  0.0414 0.9912 0.4087
v  0.0384 1.2956 0.4432
v  0.1523 1.2956 0.4532
v  0.1553 1.3482 0.4187
v  0.0414 1.3482 0.4087
v  0.1452 1.2894 0.4290
v  0.1452 1.1697 0.4290
v  0.1516 1.1697 0.3555
v  0.1516 1.2894 0.3555
v  0.1602 1.3806 0.3630
v  0.0465 1.3806 0.3512
v  0.1477 1.0072 0.4009
v  0.1516 0.9808 0.3555
v  0.1516 1.0500 0.3555
v  0.1452 1.0500 0.4290
v  0.1477 1.3322 0.4009
v  0.1516 1.3586 0.3555
v  0.0001 1.0438 -0.4303
v  0.0001 1.1697 -0.4303
v  -0.0078 0.9588 -0.3401
v  -0.0030 0.9912 -0.3958
v  0.0001 1.2956 -0.4303
v  -0.0030 1.3482 -0.3958
v  0.0072 1.2894 -0.4061
v  0.0072 1.1697 -0.4061
v  0.0007 1.1697 -0.3327
v  0.0007 1.2894 -0.3327
v  -0.0077 1.3806 -0.3418
v  -0.0376 1.3806 -0.0003
v  0.0047 1.0072 -0.3781
v  0.0007 0.9808 -0.3327
v  0.0007 1.0500 -0.3327
v  0.0072 1.0500 -0.4061
v  0.0047 1.3322 -0.3781
v  0.0007 1.3586 -0.3327
v  -0.0286 1.3586 0.0023
v  -0.0286 1.2894 0.0023
v  -0.0286 1.1697 0.0023
v  -0.0286 0.9808 0.0023
v  -0.0286 1.0500 0.0023
v  -0.0377 0.9588 0.0015
v  -0.0755 1.1697 0.4332
v  -0.0755 1.0438 0.4332
v  -0.0725 0.9912 0.3988
v  -0.0676 0.9588 0.3430
v  -0.0725 1.3482 0.3988
v  -0.0755 1.2956 0.4332
v  -0.0643 1.2894 0.4107
v  -0.0579 1.2894 0.3372
v  -0.0579 1.1697 0.3372
v  -0.0643 1.1697 0.4107
v  -0.0674 1.3806 0.3413
v  -0.0618 1.0072 0.3826
v  -0.0643 1.0500 0.4107
v  -0.0579 1.0500 0.3372
v  -0.0579 0.9808 0.3372
v  -0.0618 1.3322 0.3826
v  -0.0579 1.3586 0.3372
v  0.1901 0.9698 0.0214
v  0.2197 0.9698 -0.3168
v  0.1605 0.9698 0.3596
v  0.1561 0.9992 0.4102
v  0.1533 1.0469 0.4415
v  0.1533 1.1697 0.4415
v  0.1533 1.2925 0.4415
v  0.1561 1.3402 0.4102
v  0.1605 1.3696 0.3596
v  0.1901 1.3696 0.0214
v  0.2197 1.3696 -0.3168
v  0.2241 1.3402 -0.3674
v  0.2268 1.2925 -0.3987
v  0.2268 1.1697 -0.3987
v  0.2268 1.0469 -0.3987
v  0.2241 0.9992 -0.3674
v  -0.0010 1.1697 -0.4186
v  -0.0010 1.0469 -0.4186
v  -0.0010 1.2925 -0.4186
v  -0.0037 1.3402 -0.3874
v  -0.0081 1.3696 -0.3368
v  -0.0377 1.3696 0.0015
v  -0.0673 1.3696 0.3397
v  -0.0717 1.3402 0.3903
v  -0.0745 1.2925 0.4215
v  -0.0745 1.1697 0.4215
v  -0.0745 1.0469 0.4215
v  -0.0717 0.9992 0.3903
v  -0.0673 0.9698 0.3397
v  -0.0377 0.9698 0.0015
v  -0.0081 0.9698 -0.3368
v  -0.0037 0.9992 -0.3874
v  0.2593 1.1213 -0.3328
v  0.0217 1.1213 -0.3536
v  0.0225 1.1682 -0.3629
v  0.2601 1.1682 -0.3421
v  0.2570 1.0815 -0.3063
v  0.0194 1.0815 -0.3271
v  0.2535 1.0549 -0.2667
v  0.0159 1.0549 -0.2875
v  0.2494 1.0455 -0.2199
v  0.0118 1.0455 -0.2407
v  0.2453 1.0549 -0.1732
v  0.0077 1.0549 -0.1939
v  0.2418 1.0815 -0.1335
v  0.0042 1.0815 -0.1543
v  0.2395 1.1213 -0.1070
v  0.0019 1.1213 -0.1278
v  0.2387 1.1682 -0.0977
v  0.0011 1.1682 -0.1185
v  0.2395 1.2152 -0.1070
v  0.0019 1.2152 -0.1278
v  0.2418 1.2550 -0.1335
v  0.0042 1.2550 -0.1543
v  0.2453 1.2816 -0.1732
v  0.0077 1.2816 -0.1939
v  0.2494 1.2909 -0.2199
v  0.0118 1.2909 -0.2407
v  0.2535 1.2816 -0.2667
v  0.0159 1.2816 -0.2875
v  0.2570 1.2550 -0.3063
v  0.0194 1.2550 -0.3271
v  0.2593 1.2152 -0.3328
v  0.0217 1.2152 -0.3536
v  0.2672 1.1682 -0.3282
v  0.2662 1.1682 -0.3168
v  0.2655 1.1307 -0.3094
v  0.2665 1.1264 -0.3199
v  0.2637 1.0989 -0.2882
v  0.2644 1.0909 -0.2963
v  0.2609 1.0777 -0.2566
v  0.2613 1.0671 -0.2609
v  0.2576 1.0702 -0.2192
v  0.2576 1.0588 -0.2192
v  0.2544 1.0777 -0.1818
v  0.2540 1.0671 -0.1775
v  0.2516 1.0989 -0.1502
v  0.2509 1.0909 -0.1421
v  0.2498 1.1307 -0.1290
v  0.2488 1.1264 -0.1185
v  0.2491 1.1682 -0.1216
v  0.2481 1.1682 -0.1102
v  0.2498 1.2057 -0.1290
v  0.2488 1.2101 -0.1185
v  0.2516 1.2375 -0.1502
v  0.2509 1.2456 -0.1421
v  0.2544 1.2588 -0.1818
v  0.2540 1.2693 -0.1775
v  0.2576 1.2662 -0.2192
v  0.2576 1.2776 -0.2192
v  0.2609 1.2588 -0.2566
v  0.2613 1.2693 -0.2609
v  0.2637 1.2375 -0.2882
v  0.2644 1.2456 -0.2963
v  0.2655 1.2057 -0.3094
v  0.2665 1.2101 -0.3199
v  0.2422 1.1682 -0.3119
v  0.2416 1.1334 -0.3050
v  0.2399 1.1039 -0.2853
v  0.2373 1.0842 -0.2559
v  0.2343 1.0772 -0.2212
v  0.2313 1.0842 -0.1866
v  0.2287 1.1039 -0.1572
v  0.2270 1.1334 -0.1375
v  0.2264 1.1682 -0.1306
v  0.2270 1.2030 -0.1375
v  0.2287 1.2325 -0.1572
v  0.2313 1.2523 -0.1866
v  0.2343 1.2592 -0.2212
v  0.2373 1.2523 -0.2559
v  0.2399 1.2325 -0.2853
v  0.2416 1.2030 -0.3050
v  0.2343 1.1682 -0.2212
v  0.2219 1.0493 -0.1188
v  0.2216 1.0364 -0.1154
v  0.1862 1.0364 -0.1185
v  0.1865 1.0493 -0.1219
v  0.2208 1.0270 -0.1060
v  0.1854 1.0270 -0.1091
v  0.2196 1.0235 -0.0932
v  0.1843 1.0235 -0.0963
v  0.2185 1.0270 -0.0803
v  0.1832 1.0270 -0.0834
v  0.2177 1.0364 -0.0709
v  0.1823 1.0364 -0.0740
v  0.2174 1.0493 -0.0675
v  0.1820 1.0493 -0.0706
v  0.2177 1.0622 -0.0709
v  0.1823 1.0622 -0.0740
v  0.2185 1.0716 -0.0803
v  0.1832 1.0716 -0.0834
v  0.2196 1.0751 -0.0932
v  0.1843 1.0751 -0.0963
v  0.2208 1.0716 -0.1060
v  0.1854 1.0716 -0.1091
v  0.2216 1.0622 -0.1154
v  0.1862 1.0622 -0.1185
v  0.2196 1.0493 -0.0932
v  0.2125 1.0434 -0.0367
v  0.2123 1.0354 -0.0341
v  0.1936 1.0354 -0.0357
v  0.1938 1.0434 -0.0383
v  0.2117 1.0304 -0.0273
v  0.1930 1.0304 -0.0289
v  0.2110 1.0304 -0.0189
v  0.1923 1.0304 -0.0205
v  0.2104 1.0354 -0.0121
v  0.1917 1.0354 -0.0138
v  0.2101 1.0434 -0.0095
v  0.1915 1.0434 -0.0112
v  0.2104 1.0514 -0.0121
v  0.1917 1.0514 -0.0138
v  0.2110 1.0563 -0.0189
v  0.1923 1.0563 -0.0205
v  0.2117 1.0563 -0.0273
v  0.1930 1.0563 -0.0289
v  0.2123 1.0514 -0.0341
v  0.1936 1.0514 -0.0357
v  0.2113 1.0434 -0.0231
v  0.2085 1.3206 -0.1048
v  0.1974 1.3206 0.0220
v  0.1974 1.2591 0.0220
v  0.2085 1.2591 -0.1048
v  0.1939 1.2591 -0.1061
v  0.1939 1.3206 -0.1061
v  0.1828 1.3206 0.0208
v  0.1828 1.2591 0.0208
v  0.2036 1.2369 -0.0966
v  0.2016 1.2369 -0.0734
v  0.2016 1.2222 -0.0734
v  0.2036 1.2222 -0.0966
v  0.1890 1.2222 -0.0979
v  0.1890 1.2369 -0.0979
v  0.1870 1.2222 -0.0747
v  0.1963 1.2369 -0.0132
v  0.1963 1.2222 -0.0132
v  0.1984 1.2222 -0.0364
v  0.1984 1.2369 -0.0364
v  0.2010 1.2369 -0.0667
v  0.1864 1.2369 -0.0680
v  0.1844 1.2369 -0.0448
v  0.1990 1.2369 -0.0435
v  0.1818 1.2222 -0.0145
v  0.1838 1.2222 -0.0377
v  0.1838 1.2369 -0.0377
v  0.1818 1.2369 -0.0145
v  0.1990 1.2222 -0.0435
v  0.2010 1.2222 -0.0667
v  0.1844 1.2222 -0.0448
v  0.1864 1.2222 -0.0680
v  0.1870 1.2369 -0.0747
v  0.2033 1.1875 -0.0446
v  0.1974 1.1875 0.0220
v  0.1974 1.1784 0.0220
v  0.2033 1.1784 -0.0446
v  0.1887 1.1784 -0.0459
v  0.1887 1.1875 -0.0459
v  0.1828 1.1875 0.0208
v  0.1828 1.1784 0.0208
v  0.1967 1.1213 0.3822
v  0.1959 1.1682 0.3916
v  -0.0417 1.1682 0.3708
v  -0.0409 1.1213 0.3615
v  0.1990 1.0815 0.3558
v  -0.0386 1.0815 0.3350
v  0.2025 1.0549 0.3161
v  -0.0351 1.0549 0.2953
v  0.2066 1.0455 0.2693
v  -0.0310 1.0455 0.2486
v  0.2107 1.0549 0.2226
v  -0.0269 1.0549 0.2018
v  0.2142 1.0815 0.1829
v  -0.0235 1.0815 0.1621
v  0.2165 1.1213 0.1564
v  -0.0211 1.1213 0.1357
v  0.2173 1.1682 0.1471
v  -0.0203 1.1682 0.1263
v  0.2165 1.2152 0.1564
v  -0.0211 1.2152 0.1357
v  0.2142 1.2550 0.1829
v  -0.0235 1.2550 0.1621
v  0.2107 1.2816 0.2226
v  -0.0269 1.2816 0.2018
v  0.2066 1.2909 0.2693
v  -0.0310 1.2909 0.2486
v  0.2025 1.2816 0.3161
v  -0.0351 1.2816 0.2953
v  0.1990 1.2550 0.3558
v  -0.0386 1.2550 0.3350
v  0.1967 1.2152 0.3822
v  -0.0409 1.2152 0.3615
v  0.2053 1.1682 0.3790
v  0.2060 1.1264 0.3708
v  0.2069 1.1307 0.3603
v  0.2063 1.1682 0.3677
v  0.2081 1.0909 0.3471
v  0.2088 1.0989 0.3391
v  0.2112 1.0671 0.3118
v  0.2116 1.0777 0.3074
v  0.2148 1.0588 0.2701
v  0.2148 1.0702 0.2701
v  0.2185 1.0671 0.2284
v  0.2181 1.0777 0.2327
v  0.2216 1.0909 0.1930
v  0.2209 1.0989 0.2010
v  0.2237 1.1264 0.1694
v  0.2227 1.1307 0.1799
v  0.2244 1.1682 0.1611
v  0.2234 1.1682 0.1724
v  0.2237 1.2101 0.1694
v  0.2227 1.2057 0.1799
v  0.2216 1.2456 0.1930
v  0.2209 1.2375 0.2010
v  0.2185 1.2693 0.2284
v  0.2181 1.2588 0.2327
v  0.2148 1.2776 0.2701
v  0.2148 1.2662 0.2701
v  0.2112 1.2693 0.3118
v  0.2116 1.2588 0.3074
v  0.2081 1.2456 0.3471
v  0.2088 1.2375 0.3391
v  0.2060 1.2101 0.3708
v  0.2069 1.2057 0.3603
v  0.1842 1.1334 0.3518
v  0.1836 1.1682 0.3587
v  0.1859 1.1039 0.3321
v  0.1885 1.0842 0.3027
v  0.1915 1.0772 0.2680
v  0.1945 1.0842 0.2333
v  0.1971 1.1039 0.2039
v  0.1988 1.1334 0.1843
v  0.1994 1.1682 0.1774
v  0.1988 1.2030 0.1843
v  0.1971 1.2325 0.2039
v  0.1945 1.2523 0.2333
v  0.1915 1.2592 0.2680
v  0.1885 1.2523 0.3027
v  0.1859 1.2325 0.3321
v  0.1842 1.2030 0.3518
v  0.1915 1.1682 0.2680
v  0.1970 1.0493 0.1650
v  0.1617 1.0493 0.1619
v  0.1620 1.0364 0.1585
v  0.1973 1.0364 0.1616
v  0.1628 1.0270 0.1491
v  0.1982 1.0270 0.1522
v  0.1640 1.0235 0.1363
v  0.1993 1.0235 0.1393
v  0.1651 1.0270 0.1234
v  0.2004 1.0270 0.1265
v  0.1659 1.0364 0.1140
v  0.2012 1.0364 0.1171
v  0.1662 1.0493 0.1106
v  0.2015 1.0493 0.1137
v  0.1659 1.0622 0.1140
v  0.2012 1.0622 0.1171
v  0.1651 1.0716 0.1234
v  0.2004 1.0716 0.1265
v  0.1640 1.0751 0.1363
v  0.1993 1.0751 0.1393
v  0.1628 1.0716 0.1491
v  0.1982 1.0716 0.1522
v  0.1620 1.0622 0.1585
v  0.1973 1.0622 0.1616
v  0.1993 1.0493 0.1393
v  0.2021 1.0434 0.0825
v  0.1834 1.0434 0.0809
v  0.1836 1.0354 0.0783
v  0.2023 1.0354 0.0799
v  0.1842 1.0304 0.0715
v  0.2029 1.0304 0.0731
v  0.1850 1.0304 0.0631
v  0.2037 1.0304 0.0647
v  0.1855 1.0354 0.0563
v  0.2042 1.0354 0.0579
v  0.1858 1.0434 0.0537
v  0.2045 1.0434 0.0553
v  0.1855 1.0514 0.0563
v  0.2042 1.0514 0.0579
v  0.1850 1.0563 0.0631
v  0.2037 1.0563 0.0647
v  0.1842 1.0563 0.0715
v  0.2029 1.0563 0.0731
v  0.1836 1.0514 0.0783
v  0.2023 1.0514 0.0799
v  0.2033 1.0434 0.0689
v  0.1863 1.3206 0.1489
v  0.1863 1.2591 0.1489
v  0.1717 1.3206 0.1476
v  0.1717 1.2591 0.1476
v  0.1829 1.2369 0.1400
v  0.1829 1.2222 0.1400
v  0.1850 1.2222 0.1168
v  0.1850 1.2369 0.1168
v  0.1684 1.2369 0.1387
v  0.1684 1.2222 0.1387
v  0.1704 1.2222 0.1155
v  0.1902 1.2369 0.0566
v  0.1882 1.2369 0.0798
v  0.1882 1.2222 0.0798
v  0.1902 1.2222 0.0566
v  0.1856 1.2369 0.1101
v  0.1876 1.2369 0.0869
v  0.1730 1.2369 0.0856
v  0.1710 1.2369 0.1088
v  0.1736 1.2222 0.0785
v  0.1756 1.2222 0.0553
v  0.1756 1.2369 0.0553
v  0.1736 1.2369 0.0785
v  0.1856 1.2222 0.1101
v  0.1876 1.2222 0.0869
v  0.1710 1.2222 0.1088
v  0.1730 1.2222 0.0856
v  0.1704 1.2369 0.1155
v  0.1916 1.1875 0.0887
v  0.1916 1.1784 0.0887
v  0.1770 1.1875 0.0874
v  0.1770 1.1784 0.0874
v  0.1505 1.3887 -0.1613
v  0.0917 1.3887 -0.1665
v  0.0763 1.3887 0.0097
v  0.1351 1.3887 0.0149
v  0.1196 1.3887 0.1920
v  0.0609 1.3887 0.1859
v  0.0330 1.3887 -0.1716
v  0.0176 1.3887 0.0046
v  0.0022 1.3887 0.1808
v  0.1351 1.3738 0.0149
v  0.1505 1.3738 -0.1613
v  0.0917 1.3738 -0.1665
v  0.0609 1.3738 0.1859
v  0.1196 1.3738 0.1920
v  0.0330 1.3738 -0.1716
v  0.0176 1.3738 0.0046
v  0.0022 1.3738 0.1808
v  0.1979 1.2369 0.0168
v  0.1979 1.2222 0.0168
v  0.1999 1.2222 -0.0064
v  0.1999 1.2369 -0.0064
v  0.1970 1.2369 0.0273
v  0.1949 1.2369 0.0505
v  0.1949 1.2222 0.0505
v  0.1970 1.2222 0.0273
v  0.1787 1.2369 0.0151
v  0.1787 1.2222 0.0151
v  0.1807 1.2222 -0.0081
v  0.1807 1.2369 -0.0081
v  0.1778 1.2369 0.0256
v  0.1757 1.2369 0.0488
v  0.1778 1.2222 0.0256
v  0.1757 1.2222 0.0488
v  0.1103 1.3865 -0.2651
v  0.1001 1.3828 -0.2616
v  0.0906 1.3865 -0.2668
v  0.0913 1.3938 -0.2755
v  0.1016 1.3975 -0.2790
v  0.1111 1.3938 -0.2738
v  0.0692 1.7336 0.0109
v  0.0764 1.7362 0.0084
v  0.0686 1.7283 0.0171
v  0.0754 1.7257 0.0208
v  0.0826 1.7283 0.0183
v  0.0832 1.7336 0.0121
v  0.0713 1.7327 0.0121
v  0.0763 1.7345 0.0104
v  0.0709 1.7292 0.0163
v  0.0755 1.7274 0.0188
v  0.0805 1.7292 0.0171
v  0.0809 1.7327 0.0129
v  0.0646 1.8377 0.1007
v  0.0685 1.8391 0.0994
v  0.0644 1.8349 0.1040
v  0.0679 1.8336 0.1059
v  0.0718 1.8349 0.1046
v  0.0720 1.8377 0.1013
v  0.0680 1.8395 0.1053
v  0.1021 1.3723 -0.2845
v  0.0828 1.3723 -0.2756
v  0.0828 1.4073 -0.2756
v  0.1021 1.4073 -0.2845
v  0.0810 1.3723 -0.2544
v  0.0810 1.4073 -0.2544
v  0.0984 1.3723 -0.2423
v  0.0984 1.4073 -0.2423
v  0.1176 1.3723 -0.2512
v  0.1176 1.4073 -0.2512
v  0.1195 1.3723 -0.2724
v  0.1195 1.4073 -0.2724
v  0.1002 1.4149 -0.2634
# 584 vertices

vn 0.0000 0.0000 -1.0000
vn 0.0000 0.0007 -1.0000
vn 0.0000 0.0003 -1.0000
vn 0.0000 -0.0007 -1.0000
vn 0.0000 -0.0003 -1.0000
vn 0.0000 0.5191 -0.8547
vn 0.0000 0.5174 -0.8558
vn -0.0826 0.5373 -0.8394
vn -0.0838 0.5378 -0.8389
vn 0.0000 -0.4944 -0.8692
vn -0.0865 -0.5131 -0.8540
vn -0.0879 -0.5118 -0.8546
vn 0.0000 -0.4930 -0.8700
vn -0.4960 -0.0003 -0.8683
vn -0.5184 0.0874 -0.8507
vn -0.5165 0.0869 -0.8519
vn -0.4934 -0.0007 -0.8698
vn -0.5134 -0.0861 -0.8538
vn -0.5133 -0.0868 -0.8538
vn 0.0838 0.5378 -0.8389
vn 0.0826 0.5373 -0.8394
vn 0.0879 -0.5118 -0.8546
vn 0.0878 -0.5130 -0.8539
vn 0.4960 -0.0003 -0.8683
vn 0.4934 -0.0007 -0.8698
vn 0.5165 0.0869 -0.8519
vn 0.5184 0.0874 -0.8507
vn 0.5143 -0.0867 -0.8532
vn 0.5134 -0.0861 -0.8538
vn 0.0000 0.9966 -0.0825
vn 0.0000 0.9961 -0.0878
vn -0.1583 0.9858 -0.0559
vn -0.1596 0.9857 -0.0532
vn -0.1743 -0.9806 -0.0892
vn 0.0000 -0.9925 -0.1224
vn 0.0000 -0.9931 -0.1171
vn -0.1743 -0.9811 -0.0838
vn -0.9814 0.1731 -0.0826
vn -0.9928 0.0000 -0.1198
vn -0.9934 0.0000 -0.1145
vn -0.9816 0.1745 -0.0773
vn -0.9811 -0.1724 -0.0879
vn -0.9815 -0.1735 -0.0812
vn 0.1583 0.9858 -0.0559
vn 0.1596 0.9857 -0.0532
vn 0.1743 -0.9806 -0.0892
vn 0.1743 -0.9811 -0.0838
vn 0.9934 0.0000 -0.1145
vn 0.9928 0.0000 -0.1198
vn 0.9814 0.1731 -0.0826
vn 0.9816 0.1745 -0.0773
vn 0.9811 -0.1724 -0.0879
vn 0.9815 -0.1735 -0.0812
vn 0.0000 -1.0000 -0.0000
vn -1.0000 0.0000 -0.0000
vn 0.0000 1.0000 -0.0000
vn 1.0000 0.0000 -0.0000
vn 0.0835 -0.2871 -0.9543
vn 0.0872 0.0000 -0.9962
vn 0.7660 0.0000 -0.6428
vn 0.7090 -0.2187 -0.6705
vn 0.0226 -0.9656 -0.2589
vn 0.0599 -0.7268 -0.6842
vn 0.7015 -0.5467 -0.4572
vn 0.6677 -0.7313 -0.1391
vn 0.0835 0.2871 -0.9543
vn 0.0603 0.7220 -0.6892
vn 0.7031 0.5422 -0.4601
vn 0.7090 0.2187 -0.6705
vn 0.9962 0.0000 0.0872
vn 0.6669 0.7310 -0.1446
vn 0.0232 0.9638 -0.2656
vn 0.7044 0.7071 0.0616
vn 0.9962 -0.0000 0.0872
vn 0.7044 -0.7071 0.0616
vn -0.0835 -0.2871 0.9543
vn 0.5818 -0.2187 0.7834
vn 0.6428 0.0000 0.7660
vn -0.0872 0.0000 0.9962
vn -0.0226 -0.9656 0.2589
vn 0.6334 -0.7313 0.2530
vn 0.6114 -0.5467 0.5721
vn -0.0599 -0.7268 0.6842
vn -0.0835 0.2871 0.9543
vn 0.5818 0.2187 0.7834
vn 0.6110 0.5488 0.5705
vn -0.0605 0.7302 0.6805
vn 0.6325 0.7323 0.2524
vn -0.0231 0.9672 0.2528
vn -0.5818 -0.2187 -0.7834
vn -0.6428 0.0000 -0.7661
vn -0.6334 -0.7313 -0.2530
vn -0.6114 -0.5467 -0.5721
vn -0.5818 0.2187 -0.7834
vn -0.6125 0.5422 -0.5752
vn -0.9962 -0.0000 -0.0872
vn -0.9962 0.0000 -0.0872
vn -0.6316 0.7310 -0.2582
vn -0.7044 0.7071 -0.0616
vn -0.7044 -0.7071 -0.0616
vn -0.7660 0.0000 0.6428
vn -0.7090 -0.2187 0.6705
vn -0.7015 -0.5467 0.4572
vn -0.6677 -0.7313 0.1391
vn -0.7000 0.5509 0.4545
vn -0.7090 0.2187 0.6705
vn -0.6685 0.7316 0.1339
vn 0.7644 0.6036 0.2267
vn 0.7649 0.6407 0.0669
vn 0.9366 0.3407 0.0819
vn 0.9500 0.2699 0.1570
vn 0.7921 0.6036 -0.0905
vn 0.9628 0.2699 0.0103
vn 0.8192 0.4533 -0.3512
vn 0.9725 0.2045 -0.1112
vn 0.8445 0.1766 -0.5056
vn 0.9830 0.0747 -0.1677
vn 0.8380 0.0000 -0.5457
vn 0.9701 0.0000 -0.2425
vn 0.8445 -0.1766 -0.5056
vn 0.9830 -0.0747 -0.1677
vn 0.8192 -0.4533 -0.3512
vn 0.9725 -0.2045 -0.1112
vn 0.7921 -0.6036 -0.0905
vn 0.9628 -0.2699 0.0103
vn 0.7649 -0.6407 0.0669
vn 0.9366 -0.3407 0.0819
vn 0.7644 -0.6036 0.2267
vn 0.9500 -0.2699 0.1570
vn 0.7458 -0.4533 0.4882
vn 0.9384 -0.2045 0.2784
vn 0.7439 -0.1766 0.6446
vn 0.9390 -0.0747 0.3358
vn 0.7305 0.0000 0.6829
vn 0.9133 0.0000 0.4073
vn 0.7439 0.1766 0.6446
vn 0.9390 0.0747 0.3358
vn 0.7458 0.4533 0.4882
vn 0.9384 0.2045 0.2784
vn -0.8445 0.1766 0.5056
vn -0.8380 0.0000 0.5457
vn -0.9702 0.0000 0.2425
vn -0.9830 0.0747 0.1677
vn -0.8445 -0.1766 0.5056
vn -0.9830 -0.0747 0.1677
vn -0.8192 -0.4533 0.3512
vn -0.9725 -0.2045 0.1112
vn -0.7921 -0.6036 0.0905
vn -0.9628 -0.2699 -0.0104
vn -0.7649 -0.6407 -0.0669
vn -0.9366 -0.3407 -0.0819
vn -0.7644 -0.6036 -0.2267
vn -0.9500 -0.2699 -0.1570
vn -0.7458 -0.4533 -0.4882
vn -0.9384 -0.2045 -0.2784
vn -0.7439 -0.1766 -0.6446
vn -0.9390 -0.0747 -0.3358
vn -0.7305 0.0000 -0.6829
vn -0.9133 0.0000 -0.4073
vn -0.7439 0.1766 -0.6446
vn -0.9390 0.0747 -0.3358
vn -0.7458 0.4533 -0.4882
vn -0.9384 0.2045 -0.2784
vn -0.7644 0.6036 -0.2267
vn -0.9500 0.2699 -0.1570
vn -0.7649 0.6407 -0.0669
vn -0.9366 0.3407 -0.0819
vn -0.7921 0.6036 0.0905
vn -0.9628 0.2699 -0.0104
vn -0.8192 0.4533 0.3512
vn -0.9725 0.2045 0.1112
vn 0.5310 -0.3395 -0.7764
vn 0.0805 -0.3827 -0.9204
vn 0.5369 -0.0000 -0.8436
vn 0.5142 -0.6274 -0.5848
vn 0.0616 -0.7071 -0.7044
vn 0.4892 -0.8197 -0.2980
vn 0.0334 -0.9239 -0.3812
vn 0.4596 -0.8872 0.0402
vn -0.0000 -1.0000 0.0000
vn 0.4300 -0.8197 0.3784
vn -0.0334 -0.9239 0.3812
vn 0.4049 -0.6274 0.6652
vn -0.0616 -0.7071 0.7044
vn 0.3881 -0.3395 0.8568
vn -0.0805 -0.3827 0.9204
vn 0.3822 -0.0000 0.9241
vn -0.0872 -0.0000 0.9962
vn 0.3881 0.3395 0.8568
vn -0.0805 0.3827 0.9204
vn 0.4049 0.6274 0.6652
vn -0.0616 0.7071 0.7044
vn 0.4300 0.8197 0.3784
vn -0.0334 0.9239 0.3812
vn 0.4596 0.8872 0.0402
vn -0.0000 1.0000 0.0000
vn 0.4892 0.8197 -0.2980
vn 0.0334 0.9239 -0.3812
vn 0.5142 0.6274 -0.5848
vn 0.0616 0.7071 -0.7044
vn 0.5310 0.3395 -0.7764
vn 0.0805 0.3827 -0.9204
vn 0.9750 0.0000 -0.2222
vn 0.7882 0.0000 0.6155
vn 0.7918 0.2084 0.5742
vn 0.9730 -0.1172 -0.1989
vn 0.8020 0.3850 0.4566
vn 0.9672 -0.2166 -0.1328
vn 0.8174 0.5030 0.2807
vn 0.9585 -0.2830 -0.0338
vn 0.8356 0.5445 0.0731
vn 0.9483 -0.3063 0.0830
vn 0.8538 0.5030 -0.1345
vn 0.9381 -0.2830 0.1997
vn 0.8691 0.3850 -0.3104
vn 0.9294 -0.2166 0.2987
vn 0.8794 0.2084 -0.4280
vn 0.9237 -0.1172 0.3649
vn 0.8830 0.0000 -0.4693
vn 0.9216 -0.0000 0.3881
vn 0.8794 -0.2084 -0.4280
vn 0.9237 0.1172 0.3649
vn 0.8691 -0.3850 -0.3104
vn 0.9294 0.2166 0.2987
vn 0.8538 -0.5030 -0.1345
vn 0.9381 0.2830 0.1997
vn 0.8356 -0.5445 0.0731
vn 0.9483 0.3063 0.0830
vn 0.8174 -0.5030 0.2807
vn 0.9585 0.2830 -0.0338
vn 0.8020 -0.3850 0.4566
vn 0.9672 0.2166 -0.1328
vn 0.7918 -0.2084 0.5742
vn 0.9730 0.1172 -0.1989
vn 0.2032 0.0000 0.9791
vn 0.2095 0.3665 0.9065
vn 0.2276 0.6772 0.6997
vn 0.2547 0.8848 0.3902
vn 0.2866 0.9577 0.0251
vn 0.3186 0.8848 -0.3400
vn 0.3457 0.6772 -0.6495
vn 0.3638 0.3665 -0.8564
vn 0.3701 0.0000 -0.9290
vn 0.3638 -0.3665 -0.8564
vn 0.3457 -0.6772 -0.6495
vn 0.3186 -0.8848 -0.3400
vn 0.2866 -0.9577 0.0251
vn 0.2547 -0.8848 0.3902
vn 0.2276 -0.6772 0.6997
vn 0.2095 -0.3665 0.9065
vn 0.9962 0.0000 0.0871
vn 0.9962 -0.0000 0.0871
vn 0.0755 -0.5000 -0.8627
vn 0.0436 -0.8660 -0.4981
vn -0.0436 -0.8660 0.4981
vn -0.0755 -0.5000 0.8627
vn -0.0755 0.5000 0.8627
vn -0.0436 0.8660 0.4981
vn 0.0436 0.8660 -0.4981
vn 0.0755 0.5000 -0.8627
vn 0.0871 0.0000 -0.9962
vn 0.0705 -0.5878 -0.8059
vn 0.0269 -0.9511 -0.3078
vn -0.0269 -0.9511 0.3078
vn -0.0705 -0.5878 0.8059
vn -0.0871 0.0000 0.9962
vn -0.0705 0.5878 0.8059
vn -0.0269 0.9511 0.3078
vn 0.0269 0.9511 -0.3078
vn 0.0705 0.5878 -0.8059
vn 0.5143 -0.6274 -0.5848
vn 0.0872 -0.0000 -0.9962
vn 0.5143 0.6274 -0.5848
vn 0.9216 0.0000 0.3881
vn 0.9236 -0.1172 0.3649
vn 0.8831 0.0000 -0.4693
vn 0.9750 -0.0000 -0.2222
vn 0.7881 0.0000 0.6155
vn 0.9236 0.1172 0.3649
vn 0.3457 0.6772 -0.6496
vn 0.3457 -0.6772 -0.6496
vn 0.6369 0.0000 0.7710
vn -0.0948 0.0000 0.9955
vn -0.6428 0.0000 -0.7660
vn -0.7661 0.0000 0.6428
vn 0.0560 -0.7661 -0.6403
vn 0.0663 0.6485 -0.7584
vn -0.8297 0.3271 -0.4523
vn -0.8965 -0.3157 0.3108
vn -0.0672 -0.6371 0.7679
vn 0.8289 -0.3157 0.4618
vn 0.8957 0.3271 -0.3013
vn -0.0560 0.7660 0.6403
vn -0.0560 0.7660 0.6404
vn -0.0561 0.7660 0.6403
vn -0.0560 0.7661 0.6403
vn -0.4407 0.5628 -0.6993
vn -0.9966 0.0061 -0.0820
vn -0.5564 -0.5505 0.6224
vn 0.4398 -0.5505 0.7096
vn 0.9957 0.0061 0.0923
vn 0.5554 0.5628 -0.6122
vn -0.3653 0.9258 -0.0973
vn -0.7793 0.5112 0.3625
vn -0.4514 0.0966 0.8871
vn 0.2905 0.0967 0.9520
vn 0.7045 0.5112 0.4922
vn 0.3766 0.9258 -0.0324
vn -0.8192 0.0000 -0.5736
vn -0.9063 0.0000 0.4226
vn 0.8191 0.0000 0.5736
vn 0.9063 0.0000 -0.4226
vn -0.1606 0.9250 -0.3444
vn -0.3785 0.9250 -0.0331
vn -0.2179 0.9250 0.3113
vn 0.1606 0.9250 0.3444
vn 0.3785 0.9250 0.0331
vn 0.2179 0.9250 -0.3112
# 318 vertex normals

vt 0.9062 0.4703 0.0000
vt 0.9011 0.4703 0.0000
vt 0.9018 0.4628 0.0000
vt 0.9062 0.4617 0.0000
vt 0.9062 0.4788 0.0000
vt 0.9018 0.4776 0.0000
vt 0.9062 0.4611 0.0000
vt 0.9015 0.4623 0.0000
vt 0.9062 0.4796 0.0000
vt 0.9015 0.4782 0.0000
vt 0.9007 0.4703 0.0000
vt 0.9106 0.4628 0.0000
vt 0.9113 0.4703 0.0000
vt 0.9106 0.4776 0.0000
vt 0.9109 0.4623 0.0000
vt 0.9109 0.4782 0.0000
vt 0.9117 0.4703 0.0000
vt 0.9053 0.4596 0.0000
vt 0.9053 0.4603 0.0000
vt 0.9005 0.4615 0.0000
vt 0.9002 0.4610 0.0000
vt 0.9005 0.4775 0.0000
vt 0.9053 0.4788 0.0000
vt 0.9053 0.4796 0.0000
vt 0.9002 0.4781 0.0000
vt 0.8997 0.4695 0.0000
vt 0.8993 0.4695 0.0000
vt 0.9100 0.4615 0.0000
vt 0.9104 0.4610 0.0000
vt 0.9100 0.4775 0.0000
vt 0.9104 0.4781 0.0000
vt 0.9113 0.4695 0.0000
vt 0.9108 0.4695 0.0000
vt 0.9097 0.4769 0.0000
vt 0.9009 0.4769 0.0000
vt 0.9009 0.4621 0.0000
vt 0.9097 0.4621 0.0000
vt 0.9018 0.4892 0.0000
vt 0.9286 0.4892 0.0000
vt 0.9279 0.4509 0.0000
vt 0.8946 0.4502 0.0000
vt 0.8974 0.4490 0.0000
vt 0.9295 0.4470 0.0000
vt 0.7563 0.9827 0.0000
vt 0.7658 0.9827 0.0000
vt 0.7658 0.9677 0.0000
vt 0.7563 0.9677 0.0000
vt 0.8978 0.4496 0.0000
vt 0.9284 0.4496 0.0000
vt 0.7600 0.9473 0.0000
vt 0.7563 0.9527 0.0000
vt 0.7658 0.9527 0.0000
vt 0.7658 0.9440 0.0000
vt 0.7600 0.9880 0.0000
vt 0.7658 0.9914 0.0000
vt 0.8088 0.9914 0.0000
vt 0.8088 0.9827 0.0000
vt 0.8088 0.9677 0.0000
vt 0.8088 0.9440 0.0000
vt 0.8088 0.9527 0.0000
vt 0.9271 0.4495 0.0000
vt 0.8980 0.4496 0.0000
vt 0.9285 0.4496 0.0000
vt 0.9287 0.4496 0.0000
vt 0.8982 0.4496 0.0000
vt 0.9287 0.4523 0.0000
vt 0.8986 0.4892 0.0000
vt 0.9285 0.4892 0.0000
vt 0.9285 0.4694 0.0000
vt 0.8983 0.4694 0.0000
vt 0.9253 0.4855 0.0000
vt 0.8982 0.4850 0.0000
vt 0.8964 0.4676 0.0000
vt 0.9266 0.4682 0.0000
vt 0.9279 0.4831 0.0000
vt 0.9018 0.4847 0.0000
vt 0.8996 0.4668 0.0000
vt 0.9287 0.4651 0.0000
vt 0.9031 0.4510 0.0000
vt 0.9286 0.4510 0.0000
vt 0.9286 0.4701 0.0000
vt 0.9024 0.4701 0.0000
vt 0.9221 0.4518 0.0000
vt 0.9230 0.4564 0.0000
vt 0.9194 0.4479 0.0000
vt 0.9154 0.4452 0.0000
vt 0.9107 0.4443 0.0000
vt 0.9060 0.4452 0.0000
vt 0.9020 0.4479 0.0000
vt 0.8993 0.4518 0.0000
vt 0.8983 0.4564 0.0000
vt 0.8993 0.4610 0.0000
vt 0.9020 0.4650 0.0000
vt 0.9060 0.4676 0.0000
vt 0.9107 0.4685 0.0000
vt 0.9154 0.4676 0.0000
vt 0.9194 0.4650 0.0000
vt 0.9221 0.4610 0.0000
vt 0.9217 0.4564 0.0000
vt 0.9205 0.4564 0.0000
vt 0.9198 0.4527 0.0000
vt 0.9208 0.4523 0.0000
vt 0.9176 0.4496 0.0000
vt 0.9184 0.4488 0.0000
vt 0.9144 0.4475 0.0000
vt 0.9149 0.4464 0.0000
vt 0.9107 0.4467 0.0000
vt 0.9107 0.4456 0.0000
vt 0.9069 0.4475 0.0000
vt 0.9065 0.4464 0.0000
vt 0.9037 0.4496 0.0000
vt 0.9029 0.4488 0.0000
vt 0.9016 0.4527 0.0000
vt 0.9005 0.4523 0.0000
vt 0.9008 0.4564 0.0000
vt 0.8997 0.4564 0.0000
vt 0.9016 0.4601 0.0000
vt 0.9005 0.4605 0.0000
vt 0.9037 0.4632 0.0000
vt 0.9029 0.4640 0.0000
vt 0.9069 0.4653 0.0000
vt 0.9065 0.4664 0.0000
vt 0.9107 0.4661 0.0000
vt 0.9107 0.4672 0.0000
vt 0.9144 0.4653 0.0000
vt 0.9149 0.4664 0.0000
vt 0.9176 0.4632 0.0000
vt 0.9184 0.4640 0.0000
vt 0.9198 0.4601 0.0000
vt 0.9208 0.4605 0.0000
vt 0.9198 0.4564 0.0000
vt 0.9191 0.4530 0.0000
vt 0.9171 0.4501 0.0000
vt 0.9142 0.4481 0.0000
vt 0.9107 0.4474 0.0000
vt 0.9072 0.4481 0.0000
vt 0.9042 0.4501 0.0000
vt 0.9022 0.4530 0.0000
vt 0.9015 0.4564 0.0000
vt 0.9022 0.4598 0.0000
vt 0.9042 0.4628 0.0000
vt 0.9072 0.4647 0.0000
vt 0.9107 0.4654 0.0000
vt 0.9142 0.4647 0.0000
vt 0.9171 0.4628 0.0000
vt 0.9191 0.4598 0.0000
vt 0.0524 0.9658 0.0000
vt 0.0538 0.9726 0.0000
vt 0.0357 0.9726 0.0000
vt 0.0485 0.9601 0.0000
vt 0.0426 0.9562 0.0000
vt 0.0357 0.9549 0.0000
vt 0.0288 0.9562 0.0000
vt 0.0230 0.9601 0.0000
vt 0.0191 0.9658 0.0000
vt 0.0177 0.9726 0.0000
vt 0.0191 0.9793 0.0000
vt 0.0230 0.9851 0.0000
vt 0.0288 0.9889 0.0000
vt 0.0357 0.9902 0.0000
vt 0.0426 0.9889 0.0000
vt 0.0485 0.9851 0.0000
vt 0.0524 0.9793 0.0000
vt 0.2292 0.9688 0.0000
vt 0.2274 0.9625 0.0000
vt 0.2227 0.9578 0.0000
vt 0.2163 0.9561 0.0000
vt 0.2098 0.9578 0.0000
vt 0.2051 0.9625 0.0000
vt 0.2033 0.9688 0.0000
vt 0.2051 0.9751 0.0000
vt 0.2098 0.9798 0.0000
vt 0.2163 0.9815 0.0000
vt 0.2227 0.9798 0.0000
vt 0.2274 0.9751 0.0000
vt 0.2163 0.9688 0.0000
vt 0.2407 0.9619 0.0000
vt 0.2394 0.9580 0.0000
vt 0.2360 0.9555 0.0000
vt 0.2318 0.9555 0.0000
vt 0.2284 0.9580 0.0000
vt 0.2271 0.9619 0.0000
vt 0.2284 0.9659 0.0000
vt 0.2318 0.9683 0.0000
vt 0.2360 0.9683 0.0000
vt 0.2394 0.9659 0.0000
vt 0.2339 0.9619 0.0000
vt 0.1373 0.9270 0.0000
vt 0.1777 0.9270 0.0000
vt 0.1777 0.9015 0.0000
vt 0.1373 0.9015 0.0000
vt 0.3591 0.9666 0.0000
vt 0.3475 0.9666 0.0000
vt 0.3475 0.9594 0.0000
vt 0.3591 0.9594 0.0000
vt 0.2624 0.8958 0.0000
vt 0.2959 0.8958 0.0000
vt 0.2959 0.8913 0.0000
vt 0.2624 0.8913 0.0000
vt 0.3305 0.9666 0.0000
vt 0.3305 0.9594 0.0000
vt 0.3422 0.9594 0.0000
vt 0.3422 0.9666 0.0000
vt 0.2120 0.4710 0.0000
vt 0.2331 0.4710 0.0000
vt 0.2121 0.4710 0.0000
vt 0.2331 0.4637 0.0000
vt 0.2120 0.4637 0.0000
vt 0.2121 0.4637 0.0000
vt 0.4625 0.9606 1.0000
vt 0.4653 0.9606 1.0000
vt 0.4681 0.9606 1.0000
vt 0.4710 0.9606 1.0000
vt 0.4738 0.9606 1.0000
vt 0.4596 0.9606 1.0000
vt 0.4710 0.9777 1.0000
vt 0.4738 0.9777 1.0000
vt 0.4681 0.9777 1.0000
vt 0.4653 0.9777 1.0000
vt 0.4625 0.9777 1.0000
vt 0.4596 0.9777 1.0000
vt 0.4767 0.9606 1.0000
vt 0.4767 0.9777 1.0000
vt 0.4667 0.9777 1.0000
# 224 texture coords

o E_013_Radio
g E_013_Radio
usemtl Material__20
s off
f 1/1/1 2/2/1 3/3/2 
f 3/3/2 4/4/3 1/1/1 
f 1/1/1 5/5/4 6/6/5 
f 6/6/5 2/2/1 1/1/1 
f 7/7/6 4/4/7 3/3/8 
f 3/3/8 8/8/9 7/7/6 
f 9/9/10 10/10/11 6/6/12 
f 6/6/12 5/5/13 9/9/10 
f 11/11/14 8/8/15 3/3/16 
f 3/3/16 2/2/17 11/11/14 
f 11/11/14 2/2/17 6/6/18 
f 6/6/18 10/10/19 11/11/14 
f 1/1/1 4/4/3 12/12/2 
f 12/12/2 13/13/1 1/1/1 
f 1/1/1 13/13/1 14/14/5 
f 14/14/5 5/5/4 1/1/1 
f 7/7/6 15/15/20 12/12/21 
f 12/12/21 4/4/7 7/7/6 
f 9/9/10 5/5/13 14/14/22 
f 14/14/22 16/16/23 9/9/10 
f 17/17/24 13/13/25 12/12/26 
f 12/12/26 15/15/27 17/17/24 
f 17/17/24 16/16/28 14/14/29 
f 14/14/29 13/13/25 17/17/24 
f 18/18/30 7/19/31 8/20/32 
f 8/20/32 19/21/33 18/18/30 
f 10/22/34 9/23/35 20/24/36 
f 20/24/36 21/25/37 10/22/34 
f 8/20/38 11/26/39 22/27/40 
f 22/27/40 19/21/41 8/20/38 
f 22/27/40 11/26/39 10/22/42 
f 10/22/42 21/25/43 22/27/40 
f 15/28/44 7/19/31 18/18/30 
f 18/18/30 23/29/45 15/28/44 
f 20/24/36 9/23/35 16/30/46 
f 16/30/46 24/31/47 20/24/36 
f 25/32/48 17/33/49 15/28/50 
f 15/28/50 23/29/51 25/32/48 
f 16/30/52 17/33/49 25/32/48 
f 25/32/48 24/31/53 16/30/52 
f 26/34/54 27/35/54 28/35/54 
f 28/35/54 29/34/54 26/34/54 
f 28/35/55 27/35/55 30/36/55 
f 30/36/55 31/36/55 28/35/55 
f 30/36/56 32/37/56 33/37/56 
f 33/37/56 31/36/56 30/36/56 
f 32/37/57 26/34/57 29/34/57 
f 29/34/57 33/37/57 32/37/57 
f 34/34/54 35/35/54 36/35/54 
f 36/35/54 37/34/54 34/34/54 
f 36/35/55 35/35/55 38/36/55 
f 38/36/55 39/36/55 36/35/55 
f 38/36/56 40/37/56 41/37/56 
f 41/37/56 39/36/56 38/36/56 
f 40/37/57 34/34/57 37/34/57 
f 37/34/57 41/37/57 40/37/57 
f 42/34/54 43/35/54 44/35/54 
f 44/35/54 45/34/54 42/34/54 
f 44/35/55 43/35/55 46/36/55 
f 46/36/55 47/36/55 44/35/55 
f 46/36/56 48/37/56 49/37/56 
f 49/37/56 47/36/56 46/36/56 
f 48/37/57 42/34/57 45/34/57 
f 45/34/57 49/37/57 48/37/57 
f 50/34/54 51/35/54 52/35/54 
f 52/35/54 53/34/54 50/34/54 
f 52/35/55 51/35/55 54/36/55 
f 54/36/55 55/36/55 52/35/55 
f 54/36/56 56/37/56 57/37/56 
f 57/37/56 55/36/56 54/36/56 
f 56/37/57 50/34/57 53/34/57 
f 53/34/57 57/37/57 56/37/57 
s 1
f 58/38/58 59/39/59 60/39/60 
f 60/39/60 61/38/61 58/38/58 
f 62/40/62 63/41/63 64/41/64 
f 64/41/64 65/40/65 62/40/62 
f 66/42/66 67/43/67 68/43/68 
f 68/43/68 69/42/69 66/42/66 
s 2
f 70/44/70 71/45/70 72/46/70 
f 72/46/70 73/47/70 70/44/70 
s 1
f 74/48/71 75/48/72 76/49/56 
f 76/49/56 77/49/73 74/48/71 
s 2
f 78/50/74 79/51/74 80/52/74 
f 80/52/74 81/53/74 78/50/74 
f 82/54/70 83/55/70 71/45/70 
f 71/45/70 70/44/70 82/54/70 
f 84/56/70 85/57/70 71/45/70 
f 71/45/70 83/55/70 84/56/70 
f 85/57/70 86/58/70 72/46/70 
f 72/46/70 71/45/70 85/57/70 
f 87/59/70 81/53/74 80/52/74 
f 80/52/74 88/60/70 87/59/70 
f 73/47/70 72/46/70 80/52/74 
f 80/52/74 79/51/74 73/47/70 
f 72/46/70 86/58/70 88/60/70 
f 88/60/70 80/52/74 72/46/70 
s 1
f 74/61/71 68/41/68 67/41/67 
f 67/41/67 75/61/72 74/61/71 
f 61/42/61 64/43/64 63/43/63 
f 63/43/63 58/42/58 61/42/61 
f 69/38/69 60/39/60 59/39/59 
f 59/39/59 66/38/66 69/38/69 
f 65/62/65 89/63/75 90/63/54 
f 90/63/54 62/62/62 65/62/65 
f 91/38/76 92/38/77 93/39/78 
f 93/39/78 94/39/79 91/38/76 
f 95/40/80 96/40/81 97/41/82 
f 97/41/82 98/41/83 95/40/80 
f 99/42/84 100/42/85 101/43/86 
f 101/43/86 102/43/87 99/42/84 
s 2
f 103/44/74 104/47/70 105/46/70 
f 105/46/70 106/45/74 103/44/74 
s 1
f 107/62/88 77/64/73 76/64/56 
f 76/64/56 108/65/89 107/62/88 
s 2
f 109/50/70 110/53/70 111/52/70 
f 111/52/70 112/51/70 109/50/70 
f 113/54/74 103/44/74 106/45/74 
f 106/45/74 114/55/74 113/54/74 
f 84/56/70 114/55/74 106/45/74 
f 106/45/74 85/57/70 84/56/70 
f 85/57/70 106/45/74 105/46/70 
f 105/46/70 86/58/70 85/57/70 
f 87/59/70 88/60/70 111/52/70 
f 111/52/70 110/53/70 87/59/70 
f 104/47/70 112/51/70 111/52/70 
f 111/52/70 105/46/70 104/47/70 
f 105/46/70 111/52/70 88/60/70 
f 88/60/70 86/58/70 105/46/70 
s 1
f 107/40/88 108/66/89 102/41/87 
f 102/41/87 101/41/86 107/40/88 
f 92/42/77 91/42/76 98/43/83 
f 98/43/83 97/43/82 92/42/77 
f 100/38/85 99/38/84 94/39/79 
f 94/39/79 93/39/78 100/38/85 
f 96/62/81 95/62/80 90/63/54 
f 90/63/54 89/63/75 96/62/81 
f 58/38/58 115/38/90 116/39/91 
f 116/39/91 59/39/59 58/38/58 
f 62/40/62 117/40/92 118/41/93 
f 118/41/93 63/41/63 62/40/62 
f 66/42/66 119/42/94 120/43/95 
f 120/43/95 67/43/67 66/42/66 
s 2
f 121/44/96 122/47/97 123/46/97 
f 123/46/97 124/45/96 121/44/96 
s 1
f 125/48/98 126/49/99 76/49/56 
f 76/49/56 75/48/72 125/48/98 
s 2
f 127/50/97 128/53/97 129/52/97 
f 129/52/97 130/51/97 127/50/97 
f 131/54/96 121/44/96 124/45/96 
f 124/45/96 132/55/96 131/54/96 
f 133/56/97 132/55/96 124/45/96 
f 124/45/96 134/57/97 133/56/97 
f 134/57/97 124/45/96 123/46/97 
f 123/46/97 135/58/97 134/57/97 
f 136/59/97 137/60/97 129/52/97 
f 129/52/97 128/53/97 136/59/97 
f 122/47/97 130/51/97 129/52/97 
f 129/52/97 123/46/97 122/47/97 
f 123/46/97 129/52/97 137/60/97 
f 137/60/97 135/58/97 123/46/97 
s 1
f 125/61/98 75/61/72 67/41/67 
f 67/41/67 120/41/95 125/61/98 
f 115/42/90 58/42/58 63/43/63 
f 63/43/63 118/43/93 115/42/90 
f 119/38/94 66/38/66 59/39/59 
f 59/39/59 116/39/91 119/38/94 
f 117/62/92 62/62/62 90/63/54 
f 90/63/54 138/63/100 117/62/92 
f 91/38/76 94/39/79 139/39/101 
f 139/39/101 140/38/102 91/38/76 
f 95/40/80 98/41/83 141/41/103 
f 141/41/103 142/40/104 95/40/80 
f 99/42/84 102/43/87 143/43/105 
f 143/43/105 144/42/106 99/42/84 
s 2
f 145/44/97 146/45/97 147/46/97 
f 147/46/97 148/47/97 145/44/97 
s 1
f 149/65/107 108/65/89 76/64/56 
f 76/64/56 126/64/99 149/65/107 
s 2
f 150/50/96 151/51/96 152/52/96 
f 152/52/96 153/53/96 150/50/96 
f 154/54/97 155/55/97 146/45/97 
f 146/45/97 145/44/97 154/54/97 
f 133/56/97 134/57/97 146/45/97 
f 146/45/97 155/55/97 133/56/97 
f 134/57/97 135/58/97 147/46/97 
f 147/46/97 146/45/97 134/57/97 
f 136/59/97 153/53/96 152/52/96 
f 152/52/96 137/60/97 136/59/97 
f 148/47/97 147/46/97 152/52/96 
f 152/52/96 151/51/96 148/47/97 
f 147/46/97 135/58/97 137/60/97 
f 137/60/97 152/52/96 147/46/97 
s 1
f 149/66/107 143/41/105 102/41/87 
f 102/41/87 108/66/89 149/66/107 
f 140/42/102 141/43/103 98/43/83 
f 98/43/83 91/42/76 140/42/102 
f 144/38/106 139/39/101 94/39/79 
f 94/39/79 99/38/84 144/38/106 
f 142/62/104 138/63/100 90/63/54 
f 90/63/54 95/62/80 142/62/104 
f 81/67/108 87/68/109 156/69/110 
f 156/69/110 157/70/111 81/67/108 
f 87/68/109 110/67/112 158/70/113 
f 158/70/113 156/69/110 87/68/109 
f 110/71/112 109/72/114 159/73/115 
f 159/73/115 158/74/113 110/71/112 
f 109/75/114 112/76/116 160/77/117 
f 160/77/117 159/78/115 109/75/114 
f 112/79/116 104/80/118 161/81/119 
f 161/81/119 160/82/117 112/79/116 
f 104/80/118 103/79/120 162/82/121 
f 162/82/121 161/81/119 104/80/118 
f 103/76/120 113/75/122 163/78/123 
f 163/78/123 162/77/121 103/76/120 
f 113/72/122 114/71/124 164/74/125 
f 164/74/125 163/73/123 113/72/122 
f 114/67/124 84/68/126 165/69/127 
f 165/69/127 164/70/125 114/67/124 
f 84/68/126 83/67/128 166/70/129 
f 166/70/129 165/69/127 84/68/126 
f 83/71/128 82/72/130 167/73/131 
f 167/73/131 166/74/129 83/71/128 
f 82/75/130 70/76/132 168/77/133 
f 168/77/133 167/78/131 82/75/130 
f 70/79/132 73/80/134 169/81/135 
f 169/81/135 168/82/133 70/79/132 
f 73/80/134 79/79/136 170/82/137 
f 170/82/137 169/81/135 73/80/134 
f 79/76/136 78/75/138 171/78/139 
f 171/78/139 170/77/137 79/76/136 
f 78/72/138 81/71/108 157/74/111 
f 157/74/111 171/73/139 78/72/138 
f 130/79/140 122/80/141 172/81/142 
f 172/81/142 173/82/143 130/79/140 
f 122/80/141 121/79/144 174/82/145 
f 174/82/145 172/81/142 122/80/141 
f 121/76/144 131/75/146 175/78/147 
f 175/78/147 174/77/145 121/76/144 
f 131/72/146 132/71/148 176/74/149 
f 176/74/149 175/73/147 131/72/146 
f 132/67/148 133/68/150 177/69/151 
f 177/69/151 176/70/149 132/67/148 
f 133/68/150 155/67/152 178/70/153 
f 178/70/153 177/69/151 133/68/150 
f 155/71/152 154/72/154 179/73/155 
f 179/73/155 178/74/153 155/71/152 
f 154/75/154 145/76/156 180/77/157 
f 180/77/157 179/78/155 154/75/154 
f 145/79/156 148/80/158 181/81/159 
f 181/81/159 180/82/157 145/79/156 
f 148/80/158 151/79/160 182/82/161 
f 182/82/161 181/81/159 148/80/158 
f 151/76/160 150/75/162 183/78/163 
f 183/78/163 182/77/161 151/76/160 
f 150/72/162 153/71/164 184/74/165 
f 184/74/165 183/73/163 150/72/162 
f 153/67/164 136/68/166 185/69/167 
f 185/69/167 184/70/165 153/67/164 
f 136/68/166 128/67/168 186/70/169 
f 186/70/169 185/69/167 136/68/166 
f 128/71/168 127/72/170 187/73/171 
f 187/73/171 186/74/169 128/71/168 
f 127/75/170 130/76/140 173/77/143 
f 173/77/143 187/78/171 127/75/170 
f 157/70/111 156/69/110 89/63/75 
f 89/63/75 65/62/65 157/70/111 
f 156/69/110 158/70/113 96/62/81 
f 96/62/81 89/63/75 156/69/110 
f 158/74/113 159/73/115 97/41/82 
f 97/41/82 96/40/81 158/74/113 
f 159/78/115 160/77/117 92/42/77 
f 92/42/77 97/43/82 159/78/115 
f 160/82/117 161/81/119 93/39/78 
f 93/39/78 92/38/77 160/82/117 
f 161/81/119 162/82/121 100/38/85 
f 100/38/85 93/39/78 161/81/119 
f 162/77/121 163/78/123 101/43/86 
f 101/43/86 100/42/85 162/77/121 
f 163/73/123 164/74/125 107/40/88 
f 107/40/88 101/41/86 163/73/123 
f 164/70/125 165/69/127 77/64/73 
f 77/64/73 107/62/88 164/70/125 
f 165/69/127 166/70/129 74/48/71 
f 74/48/71 77/49/73 165/69/127 
f 166/74/129 167/73/131 68/41/68 
f 68/41/68 74/61/71 166/74/129 
f 167/78/131 168/77/133 69/42/69 
f 69/42/69 68/43/68 167/78/131 
f 168/82/133 169/81/135 60/39/60 
f 60/39/60 69/38/69 168/82/133 
f 169/81/135 170/82/137 61/38/61 
f 61/38/61 60/39/60 169/81/135 
f 170/77/137 171/78/139 64/43/64 
f 64/43/64 61/42/61 170/77/137 
f 171/73/139 157/74/111 65/40/65 
f 65/40/65 64/41/64 171/73/139 
f 173/82/143 172/81/142 116/39/91 
f 116/39/91 115/38/90 173/82/143 
f 172/81/142 174/82/145 119/38/94 
f 119/38/94 116/39/91 172/81/142 
f 174/77/145 175/78/147 120/43/95 
f 120/43/95 119/42/94 174/77/145 
f 175/73/147 176/74/149 125/61/98 
f 125/61/98 120/41/95 175/73/147 
f 176/70/149 177/69/151 126/49/99 
f 126/49/99 125/48/98 176/70/149 
f 177/69/151 178/70/153 149/65/107 
f 149/65/107 126/64/99 177/69/151 
f 178/74/153 179/73/155 143/41/105 
f 143/41/105 149/66/107 178/74/153 
f 179/78/155 180/77/157 144/42/106 
f 144/42/106 143/43/105 179/78/155 
f 180/82/157 181/81/159 139/39/101 
f 139/39/101 144/38/106 180/82/157 
f 181/81/159 182/82/161 140/38/102 
f 140/38/102 139/39/101 181/81/159 
f 182/77/161 183/78/163 141/43/103 
f 141/43/103 140/42/102 182/77/161 
f 183/73/163 184/74/165 142/40/104 
f 142/40/104 141/41/103 183/73/163 
f 184/70/165 185/69/167 138/63/100 
f 138/63/100 142/62/104 184/70/165 
f 185/69/167 186/70/169 117/62/92 
f 117/62/92 138/63/100 185/69/167 
f 186/74/169 187/73/171 118/41/93 
f 118/41/93 117/40/92 186/74/169 
f 187/78/171 173/77/143 115/42/90 
f 115/42/90 118/43/93 187/78/171 
f 188/83/172 189/83/173 190/84/59 
f 190/84/59 191/84/174 188/83/172 
f 192/85/175 193/85/176 189/83/173 
f 189/83/173 188/83/172 192/85/175 
f 194/86/177 195/86/178 193/85/176 
f 193/85/176 192/85/175 194/86/177 
f 196/87/179 197/87/180 195/86/178 
f 195/86/178 194/86/177 196/87/179 
f 198/88/181 199/88/182 197/87/180 
f 197/87/180 196/87/179 198/88/181 
f 200/89/183 201/89/184 199/88/182 
f 199/88/182 198/88/181 200/89/183 
f 202/90/185 203/90/186 201/89/184 
f 201/89/184 200/89/183 202/90/185 
f 204/91/187 205/91/188 203/90/186 
f 203/90/186 202/90/185 204/91/187 
f 206/92/189 207/92/190 205/91/188 
f 205/91/188 204/91/187 206/92/189 
f 208/93/191 209/93/192 207/92/190 
f 207/92/190 206/92/189 208/93/191 
f 210/94/193 211/94/194 209/93/192 
f 209/93/192 208/93/191 210/94/193 
f 212/95/195 213/95/196 211/94/194 
f 211/94/194 210/94/193 212/95/195 
f 214/96/197 215/96/198 213/95/196 
f 213/95/196 212/95/195 214/96/197 
f 216/97/199 217/97/200 215/96/198 
f 215/96/198 214/96/197 216/97/199 
f 218/98/201 219/98/202 217/97/200 
f 217/97/200 216/97/199 218/98/201 
f 191/84/174 190/84/59 219/98/202 
f 219/98/202 218/98/201 191/84/174 
f 220/99/203 221/100/204 222/101/205 
f 222/101/205 223/102/206 220/99/203 
f 223/102/206 222/101/205 224/103/207 
f 224/103/207 225/104/208 223/102/206 
f 225/104/208 224/103/207 226/105/209 
f 226/105/209 227/106/210 225/104/208 
f 227/106/210 226/105/209 228/107/211 
f 228/107/211 229/108/212 227/106/210 
f 229/108/212 228/107/211 230/109/213 
f 230/109/213 231/110/214 229/108/212 
f 231/110/214 230/109/213 232/111/215 
f 232/111/215 233/112/216 231/110/214 
f 233/112/216 232/111/215 234/113/217 
f 234/113/217 235/114/218 233/112/216 
f 235/114/218 234/113/217 236/115/219 
f 236/115/219 237/116/220 235/114/218 
f 237/116/220 236/115/219 238/117/221 
f 238/117/221 239/118/222 237/116/220 
f 239/118/222 238/117/221 240/119/223 
f 240/119/223 241/120/224 239/118/222 
f 241/120/224 240/119/223 242/121/225 
f 242/121/225 243/122/226 241/120/224 
f 243/122/226 242/121/225 244/123/227 
f 244/123/227 245/124/228 243/122/226 
f 245/124/228 244/123/227 246/125/229 
f 246/125/229 247/126/230 245/124/228 
f 247/126/230 246/125/229 248/127/231 
f 248/127/231 249/128/232 247/126/230 
f 249/128/232 248/127/231 250/129/233 
f 250/129/233 251/130/234 249/128/232 
f 251/130/234 250/129/233 221/100/204 
f 221/100/204 220/99/203 251/130/234 
f 222/101/205 221/100/204 252/131/235 
f 252/131/235 253/132/236 222/101/205 
f 224/103/207 222/101/205 253/132/236 
f 253/132/236 254/133/237 224/103/207 
f 226/105/209 224/103/207 254/133/237 
f 254/133/237 255/134/238 226/105/209 
f 228/107/211 226/105/209 255/134/238 
f 255/134/238 256/135/239 228/107/211 
f 230/109/213 228/107/211 256/135/239 
f 256/135/239 257/136/240 230/109/213 
f 232/111/215 230/109/213 257/136/240 
f 257/136/240 258/137/241 232/111/215 
f 234/113/217 232/111/215 258/137/241 
f 258/137/241 259/138/242 234/113/217 
f 236/115/219 234/113/217 259/138/242 
f 259/138/242 260/139/243 236/115/219 
f 238/117/221 236/115/219 260/139/243 
f 260/139/243 261/140/244 238/117/221 
f 240/119/223 238/117/221 261/140/244 
f 261/140/244 262/141/245 240/119/223 
f 242/121/225 240/119/223 262/141/245 
f 262/141/245 263/142/246 242/121/225 
f 244/123/227 242/121/225 263/142/246 
f 263/142/246 264/143/247 244/123/227 
f 246/125/229 244/123/227 264/143/247 
f 264/143/247 265/144/248 246/125/229 
f 248/127/231 246/125/229 265/144/248 
f 265/144/248 266/145/249 248/127/231 
f 250/129/233 248/127/231 266/145/249 
f 266/145/249 267/146/250 250/129/233 
f 221/100/204 250/129/233 267/146/250 
f 267/146/250 252/131/235 221/100/204 
s 2
f 253/147/70 252/148/74 268/149/70 
f 254/150/74 253/147/70 268/149/70 
f 255/151/74 254/150/74 268/149/70 
f 256/152/251 255/151/74 268/149/70 
f 257/153/252 256/152/251 268/149/70 
f 258/154/70 257/153/252 268/149/70 
f 259/155/70 258/154/70 268/149/70 
f 260/156/74 259/155/70 268/149/70 
f 261/157/74 260/156/74 268/149/70 
f 262/158/74 261/157/74 268/149/70 
f 263/159/251 262/158/74 268/149/70 
f 264/160/251 263/159/251 268/149/70 
f 265/161/70 264/160/251 268/149/70 
f 266/162/70 265/161/70 268/149/70 
f 267/163/74 266/162/70 268/149/70 
f 252/148/74 267/163/74 268/149/70 
s 1
f 188/83/172 191/84/174 220/99/203 
f 220/99/203 223/102/206 188/83/172 
f 192/85/175 188/83/172 223/102/206 
f 223/102/206 225/104/208 192/85/175 
f 194/86/177 192/85/175 225/104/208 
f 225/104/208 227/106/210 194/86/177 
f 196/87/179 194/86/177 227/106/210 
f 227/106/210 229/108/212 196/87/179 
f 198/88/181 196/87/179 229/108/212 
f 229/108/212 231/110/214 198/88/181 
f 200/89/183 198/88/181 231/110/214 
f 231/110/214 233/112/216 200/89/183 
f 202/90/185 200/89/183 233/112/216 
f 233/112/216 235/114/218 202/90/185 
f 204/91/187 202/90/185 235/114/218 
f 235/114/218 237/116/220 204/91/187 
f 206/92/189 204/91/187 237/116/220 
f 237/116/220 239/118/222 206/92/189 
f 208/93/191 206/92/189 239/118/222 
f 239/118/222 241/120/224 208/93/191 
f 210/94/193 208/93/191 241/120/224 
f 241/120/224 243/122/226 210/94/193 
f 212/95/195 210/94/193 243/122/226 
f 243/122/226 245/124/228 212/95/195 
f 214/96/197 212/95/195 245/124/228 
f 245/124/228 247/126/230 214/96/197 
f 216/97/199 214/96/197 247/126/230 
f 247/126/230 249/128/232 216/97/199 
f 216/97/199 249/128/232 251/130/234 
f 251/130/234 218/98/201 216/97/199 
f 191/84/174 218/98/201 251/130/234 
f 251/130/234 220/99/203 191/84/174 
f 269/164/59 270/165/253 271/165/253 
f 271/165/253 272/164/59 269/164/59 
f 270/165/253 273/166/254 274/166/254 
f 274/166/254 271/165/253 270/165/253 
f 273/166/254 275/167/180 276/167/180 
f 276/167/180 274/166/254 273/166/254 
f 275/167/180 277/168/255 278/168/255 
f 278/168/255 276/167/180 275/167/180 
f 277/168/255 279/169/256 280/169/256 
f 280/169/256 278/168/255 277/168/255 
f 279/169/256 281/170/188 282/170/188 
f 282/170/188 280/169/256 279/169/256 
f 281/170/188 283/171/257 284/171/257 
f 284/171/257 282/170/188 281/170/188 
f 283/171/257 285/172/258 286/172/258 
f 286/172/258 284/171/257 283/171/257 
f 285/172/258 287/173/196 288/173/196 
f 288/173/196 286/172/258 285/172/258 
f 287/173/196 289/174/259 290/174/259 
f 290/174/259 288/173/196 287/173/196 
f 289/174/259 291/175/260 292/175/260 
f 292/175/260 290/174/259 289/174/259 
f 291/175/260 269/164/59 272/164/59 
f 272/164/59 292/175/260 291/175/260 
s 2
f 270/165/74 269/164/70 293/176/70 
f 273/166/70 270/165/74 293/176/70 
f 275/167/70 273/166/70 293/176/70 
f 277/168/252 275/167/70 293/176/70 
f 279/169/251 277/168/252 293/176/70 
f 281/170/251 279/169/251 293/176/70 
f 283/171/252 281/170/251 293/176/70 
f 285/172/251 283/171/252 293/176/70 
f 287/173/70 285/172/251 293/176/70 
f 289/174/74 287/173/70 293/176/70 
f 291/175/70 289/174/74 293/176/70 
f 269/164/70 291/175/70 293/176/70 
s 1
f 294/177/261 295/178/262 296/178/262 
f 296/178/262 297/177/261 294/177/261 
f 295/178/262 298/179/263 299/179/263 
f 299/179/263 296/178/262 295/178/262 
f 298/179/263 300/180/264 301/180/264 
f 301/180/264 299/179/263 298/179/263 
f 300/180/264 302/181/265 303/181/265 
f 303/181/265 301/180/264 300/180/264 
f 302/181/265 304/182/266 305/182/266 
f 305/182/266 303/181/265 302/181/265 
f 304/182/266 306/183/267 307/183/267 
f 307/183/267 305/182/266 304/182/266 
f 306/183/267 308/184/268 309/184/268 
f 309/184/268 307/183/267 306/183/267 
f 308/184/268 310/185/269 311/185/269 
f 311/185/269 309/184/268 308/184/268 
f 310/185/269 312/186/270 313/186/270 
f 313/186/270 311/185/269 310/185/269 
f 312/186/270 294/177/261 297/177/261 
f 297/177/261 313/186/270 312/186/270 
s 2
f 295/178/70 294/177/70 314/187/70 
f 298/179/70 295/178/70 314/187/70 
f 300/180/70 298/179/70 314/187/70 
f 302/181/70 300/180/70 314/187/70 
f 304/182/251 302/181/70 314/187/70 
f 306/183/74 304/182/251 314/187/70 
f 308/184/74 306/183/74 314/187/70 
f 310/185/74 308/184/74 314/187/70 
f 312/186/74 310/185/74 314/187/70 
f 294/177/70 312/186/74 314/187/70 
f 315/188/70 316/189/70 317/190/70 
f 317/190/70 318/191/70 315/188/70 
s 1
f 315/188/200 318/191/176 319/191/176 
f 319/191/176 320/188/200 315/188/200 
f 316/189/56 315/188/200 320/188/200 
f 320/188/200 321/189/56 316/189/56 
f 318/191/176 317/190/54 322/190/54 
f 322/190/54 319/191/176 318/191/176 
s 2
f 323/192/251 324/193/251 325/194/251 
f 325/194/251 326/195/251 323/192/251 
s 1
f 323/192/200 326/195/176 327/195/176 
f 327/195/176 328/192/200 323/192/200 
f 325/194/184 329/194/184 327/195/176 
f 327/195/176 326/195/176 325/194/184 
s 2
f 330/193/251 331/194/251 332/195/251 
f 332/195/251 333/192/251 330/193/251 
s 1
f 334/192/200 335/192/200 336/193/192 
f 336/193/192 337/193/192 334/192/200 
f 331/194/184 338/194/184 339/195/176 
f 339/195/176 332/195/176 331/194/184 
f 333/192/200 340/192/200 341/193/192 
f 341/193/192 330/193/192 333/192/200 
s 2
f 337/193/251 342/194/251 343/195/251 
f 343/195/251 334/192/251 337/193/251 
s 1
f 342/194/184 344/194/184 345/195/176 
f 345/195/176 343/195/176 342/194/184 
f 323/192/200 328/192/200 346/193/192 
f 346/193/192 324/193/192 323/192/200 
f 346/193/192 329/194/184 325/194/184 
f 325/194/184 324/193/192 346/193/192 
f 345/195/176 335/192/200 334/192/200 
f 334/192/200 343/195/176 345/195/176 
f 339/195/176 340/192/200 333/192/200 
f 333/192/200 332/195/176 339/195/176 
f 341/193/192 338/194/184 331/194/184 
f 331/194/184 330/193/192 341/193/192 
f 336/193/192 344/194/184 342/194/184 
f 342/194/184 337/193/192 336/193/192 
s 2
f 347/196/70 348/197/70 349/198/70 
f 349/198/70 350/199/70 347/196/70 
s 1
f 347/196/200 350/199/176 351/199/176 
f 351/199/176 352/196/200 347/196/200 
f 348/197/56 347/196/200 352/196/200 
f 352/196/200 353/197/56 348/197/56 
f 350/199/176 349/198/54 354/198/54 
f 354/198/54 351/199/176 350/199/176 
f 355/90/185 356/91/187 357/91/188 
f 357/91/188 358/90/186 355/90/185 
f 359/89/183 355/90/185 358/90/186 
f 358/90/186 360/89/184 359/89/183 
f 361/88/181 359/89/183 360/89/184 
f 360/89/184 362/88/182 361/88/181 
f 363/87/179 361/88/181 362/88/182 
f 362/88/182 364/87/54 363/87/179 
f 365/86/177 363/87/179 364/87/54 
f 364/87/54 366/86/178 365/86/177 
f 367/85/271 365/86/177 366/86/178 
f 366/86/178 368/85/176 367/85/271 
f 369/83/172 367/85/271 368/85/176 
f 368/85/176 370/83/173 369/83/172 
f 371/84/174 369/83/172 370/83/173 
f 370/83/173 372/84/272 371/84/174 
f 373/98/201 371/84/174 372/84/272 
f 372/84/272 374/98/202 373/98/201 
f 375/97/273 373/98/201 374/98/202 
f 374/98/202 376/97/200 375/97/273 
f 377/96/197 375/97/273 376/97/200 
f 376/97/200 378/96/198 377/96/197 
f 379/95/195 377/96/197 378/96/198 
f 378/96/198 380/95/56 379/95/195 
f 381/94/193 379/95/195 380/95/56 
f 380/95/56 382/94/194 381/94/193 
f 383/93/191 381/94/193 382/94/194 
f 382/94/194 384/93/192 383/93/191 
f 385/92/189 383/93/191 384/93/192 
f 384/93/192 386/92/190 385/92/189 
f 356/91/187 385/92/189 386/92/190 
f 386/92/190 357/91/188 356/91/187 
f 387/116/274 388/114/275 389/113/217 
f 389/113/217 390/115/276 387/116/274 
f 388/114/275 391/112/216 392/111/215 
f 392/111/215 389/113/217 388/114/275 
f 391/112/216 393/110/214 394/109/213 
f 394/109/213 392/111/215 391/112/216 
f 393/110/214 395/108/212 396/107/211 
f 396/107/211 394/109/213 393/110/214 
f 395/108/212 397/106/210 398/105/209 
f 398/105/209 396/107/211 395/108/212 
f 397/106/210 399/104/208 400/103/207 
f 400/103/207 398/105/209 397/106/210 
f 399/104/208 401/102/206 402/101/205 
f 402/101/205 400/103/207 399/104/208 
f 401/102/206 403/99/277 404/100/278 
f 404/100/278 402/101/205 401/102/206 
f 403/99/277 405/130/234 406/129/233 
f 406/129/233 404/100/278 403/99/277 
f 405/130/234 407/128/232 408/127/231 
f 408/127/231 406/129/233 405/130/234 
f 407/128/232 409/126/230 410/125/229 
f 410/125/229 408/127/231 407/128/232 
f 409/126/230 411/124/228 412/123/227 
f 412/123/227 410/125/229 409/126/230 
f 411/124/228 413/122/226 414/121/225 
f 414/121/225 412/123/227 411/124/228 
f 413/122/226 415/120/224 416/119/223 
f 416/119/223 414/121/225 413/122/226 
f 415/120/224 417/118/279 418/117/221 
f 418/117/221 416/119/223 415/120/224 
f 417/118/279 387/116/274 390/115/276 
f 390/115/276 418/117/221 417/118/279 
f 389/113/217 419/138/242 420/139/243 
f 420/139/243 390/115/276 389/113/217 
f 392/111/215 421/137/280 419/138/242 
f 419/138/242 389/113/217 392/111/215 
f 394/109/213 422/136/240 421/137/280 
f 421/137/280 392/111/215 394/109/213 
f 396/107/211 423/135/239 422/136/240 
f 422/136/240 394/109/213 396/107/211 
f 398/105/209 424/134/238 423/135/239 
f 423/135/239 396/107/211 398/105/209 
f 400/103/207 425/133/237 424/134/238 
f 424/134/238 398/105/209 400/103/207 
f 402/101/205 426/132/236 425/133/237 
f 425/133/237 400/103/207 402/101/205 
f 404/100/278 427/131/235 426/132/236 
f 426/132/236 402/101/205 404/100/278 
f 406/129/233 428/146/250 427/131/235 
f 427/131/235 404/100/278 406/129/233 
f 408/127/231 429/145/249 428/146/250 
f 428/146/250 406/129/233 408/127/231 
f 410/125/229 430/144/248 429/145/249 
f 429/145/249 408/127/231 410/125/229 
f 412/123/227 431/143/247 430/144/248 
f 430/144/248 410/125/229 412/123/227 
f 414/121/225 432/142/246 431/143/247 
f 431/143/247 412/123/227 414/121/225 
f 416/119/223 433/141/281 432/142/246 
f 432/142/246 414/121/225 416/119/223 
f 418/117/221 434/140/244 433/141/281 
f 433/141/281 416/119/223 418/117/221 
f 390/115/276 420/139/243 434/140/244 
f 434/140/244 418/117/221 390/115/276 
s 2
f 419/155/74 435/149/70 420/156/74 
f 421/154/74 435/149/70 419/155/74 
f 422/153/74 435/149/70 421/154/74 
f 423/152/70 435/149/70 422/153/74 
f 424/151/70 435/149/70 423/152/70 
f 425/150/251 435/149/70 424/151/70 
f 426/147/70 435/149/70 425/150/251 
f 427/148/70 435/149/70 426/147/70 
f 428/163/74 435/149/70 427/148/70 
f 429/162/252 435/149/70 428/163/74 
f 430/161/74 435/149/70 429/162/252 
f 431/160/70 435/149/70 430/161/74 
f 432/159/70 435/149/70 431/160/70 
f 433/158/70 435/149/70 432/159/70 
f 434/157/70 435/149/70 433/158/70 
f 420/156/74 435/149/70 434/157/70 
s 1
f 355/90/185 388/114/275 387/116/274 
f 387/116/274 356/91/187 355/90/185 
f 359/89/183 391/112/216 388/114/275 
f 388/114/275 355/90/185 359/89/183 
f 361/88/181 393/110/214 391/112/216 
f 391/112/216 359/89/183 361/88/181 
f 363/87/179 395/108/212 393/110/214 
f 393/110/214 361/88/181 363/87/179 
f 365/86/177 397/106/210 395/108/212 
f 395/108/212 363/87/179 365/86/177 
f 367/85/271 399/104/208 397/106/210 
f 397/106/210 365/86/177 367/85/271 
f 369/83/172 401/102/206 399/104/208 
f 399/104/208 367/85/271 369/83/172 
f 371/84/174 403/99/277 401/102/206 
f 401/102/206 369/83/172 371/84/174 
f 373/98/201 405/130/234 403/99/277 
f 403/99/277 371/84/174 373/98/201 
f 375/97/273 407/128/232 405/130/234 
f 405/130/234 373/98/201 375/97/273 
f 377/96/197 409/126/230 407/128/232 
f 407/128/232 375/97/273 377/96/197 
f 379/95/195 411/124/228 409/126/230 
f 409/126/230 377/96/197 379/95/195 
f 381/94/193 413/122/226 411/124/228 
f 411/124/228 379/95/195 381/94/193 
f 383/93/191 415/120/224 413/122/226 
f 413/122/226 381/94/193 383/93/191 
f 383/93/191 385/92/189 417/118/279 
f 417/118/279 415/120/224 383/93/191 
f 356/91/187 387/116/274 417/118/279 
f 417/118/279 385/92/189 356/91/187 
f 436/170/79 437/170/79 438/169/256 
f 438/169/256 439/169/256 436/170/79 
f 439/169/256 438/169/256 440/168/255 
f 440/168/255 441/168/255 439/169/256 
f 441/168/255 440/168/255 442/167/54 
f 442/167/54 443/167/54 441/168/255 
f 443/167/54 442/167/54 444/166/254 
f 444/166/254 445/166/254 443/167/54 
f 445/166/254 444/166/254 446/165/253 
f 446/165/253 447/165/253 445/166/254 
f 447/165/253 446/165/253 448/164/272 
f 448/164/272 449/164/272 447/165/253 
f 449/164/272 448/164/272 450/175/260 
f 450/175/260 451/175/260 449/164/272 
f 451/175/260 450/175/260 452/174/259 
f 452/174/259 453/174/259 451/175/260 
f 453/174/259 452/174/259 454/173/56 
f 454/173/56 455/173/56 453/174/259 
f 455/173/56 454/173/56 456/172/258 
f 456/172/258 457/172/258 455/173/56 
f 457/172/258 456/172/258 458/171/257 
f 458/171/257 459/171/257 457/172/258 
f 459/171/257 458/171/257 437/170/79 
f 437/170/79 436/170/79 459/171/257 
s 2
f 439/169/70 460/176/74 436/170/74 
f 441/168/70 460/176/74 439/169/70 
f 443/167/251 460/176/74 441/168/70 
f 445/166/74 460/176/74 443/167/251 
f 447/165/70 460/176/74 445/166/74 
f 449/164/251 460/176/74 447/165/70 
f 451/175/74 460/176/74 449/164/251 
f 453/174/70 460/176/74 451/175/74 
f 455/173/251 460/176/74 453/174/70 
f 457/172/74 460/176/74 455/173/251 
f 459/171/74 460/176/74 457/172/74 
f 436/170/74 460/176/74 459/171/74 
s 1
f 461/182/266 462/182/266 463/181/265 
f 463/181/265 464/181/265 461/182/266 
f 464/181/265 463/181/265 465/180/264 
f 465/180/264 466/180/264 464/181/265 
f 466/180/264 465/180/264 467/179/263 
f 467/179/263 468/179/263 466/180/264 
f 468/179/263 467/179/263 469/178/262 
f 469/178/262 470/178/262 468/179/263 
f 470/178/262 469/178/262 471/177/261 
f 471/177/261 472/177/261 470/178/262 
f 472/177/261 471/177/261 473/186/270 
f 473/186/270 474/186/270 472/177/261 
f 474/186/270 473/186/270 475/185/269 
f 475/185/269 476/185/269 474/186/270 
f 476/185/269 475/185/269 477/184/268 
f 477/184/268 478/184/268 476/185/269 
f 478/184/268 477/184/268 479/183/267 
f 479/183/267 480/183/267 478/184/268 
f 480/183/267 479/183/267 462/182/266 
f 462/182/266 461/182/266 480/183/267 
s 2
f 464/181/74 481/187/74 461/182/70 
f 466/180/74 481/187/74 464/181/74 
f 468/179/74 481/187/74 466/180/74 
f 470/178/70 481/187/74 468/179/74 
f 472/177/251 481/187/74 470/178/70 
f 474/186/74 481/187/74 472/177/251 
f 476/185/70 481/187/74 474/186/74 
f 478/184/70 481/187/74 476/185/70 
f 480/183/70 481/187/74 478/184/70 
f 461/182/70 481/187/74 480/183/70 
f 482/188/70 483/191/70 317/190/70 
f 317/190/70 316/189/70 482/188/70 
s 1
f 482/188/192 484/188/192 485/191/184 
f 485/191/184 483/191/184 482/188/192 
f 316/189/56 321/189/56 484/188/192 
f 484/188/192 482/188/192 316/189/56 
f 483/191/184 485/191/184 322/190/54 
f 322/190/54 317/190/54 483/191/184 
s 2
f 486/200/251 487/201/251 488/202/251 
f 488/202/251 489/203/251 486/200/251 
s 1
f 486/200/192 490/200/192 491/201/184 
f 491/201/184 487/201/184 486/200/192 
f 488/202/176 487/201/184 491/201/184 
f 491/201/184 492/202/176 488/202/176 
s 2
f 493/203/70 494/200/70 495/201/70 
f 495/201/70 496/202/70 493/203/70 
s 1
f 497/200/192 498/203/200 499/203/200 
f 499/203/200 500/200/192 497/200/192 
f 496/202/176 495/201/184 501/201/184 
f 501/201/184 502/202/176 496/202/176 
f 494/200/192 493/203/200 503/203/200 
f 503/203/200 504/200/192 494/200/192 
s 2
f 498/203/251 497/200/251 505/201/251 
f 505/201/251 506/202/251 498/203/251 
s 1
f 506/202/176 505/201/184 507/201/184 
f 507/201/184 508/202/176 506/202/176 
f 486/200/192 489/203/200 509/203/200 
f 509/203/200 490/200/192 486/200/192 
f 509/203/200 489/203/200 488/202/176 
f 488/202/176 492/202/176 509/203/200 
f 507/201/184 505/201/184 497/200/192 
f 497/200/192 500/200/192 507/201/184 
f 501/201/184 495/201/184 494/200/192 
f 494/200/192 504/200/192 501/201/184 
f 503/203/200 493/203/200 496/202/176 
f 496/202/176 502/202/176 503/203/200 
f 499/203/200 498/203/200 506/202/176 
f 506/202/176 508/202/176 499/203/200 
s 2
f 510/196/70 511/199/70 349/198/70 
f 349/198/70 348/197/70 510/196/70 
s 1
f 510/196/192 512/196/192 513/199/184 
f 513/199/184 511/199/184 510/196/192 
f 348/197/56 353/197/56 512/196/192 
f 512/196/192 510/196/192 348/197/56 
f 511/199/184 513/199/184 354/198/54 
f 354/198/54 349/198/54 511/199/184 
s 2
f 514/204/56 515/204/56 516/205/56 
f 516/205/56 517/205/56 514/204/56 
f 518/204/56 517/205/56 516/205/56 
f 516/205/56 519/206/56 518/204/56 
f 520/204/56 521/205/56 516/205/56 
f 516/205/56 515/204/56 520/204/56 
f 522/206/56 519/206/56 516/205/56 
f 516/205/56 521/205/56 522/206/56 
s 1
f 514/204/60 517/205/70 523/207/70 
f 523/207/70 524/208/60 514/204/60 
f 515/204/59 514/204/60 524/208/60 
f 524/208/60 525/208/59 515/204/59 
f 518/204/282 519/206/283 526/209/283 
f 526/209/283 527/208/282 518/204/282 
f 517/205/70 518/204/282 527/208/282 
f 527/208/282 523/207/70 517/205/70 
f 520/204/284 515/204/59 525/208/59 
f 525/208/59 528/208/284 520/204/284 
f 521/205/96 520/204/284 528/208/284 
f 528/208/284 529/207/96 521/205/96 
f 522/206/285 521/205/96 529/207/96 
f 529/207/96 530/209/101 522/206/285 
f 519/206/283 522/206/285 530/209/101 
f 530/209/101 526/209/283 519/206/283 
s 2
f 531/193/251 532/194/251 533/195/251 
f 533/195/251 534/192/251 531/193/251 
f 535/203/251 536/200/251 537/201/251 
f 537/201/251 538/202/251 535/203/251 
s 1
f 532/194/184 531/193/192 539/193/192 
f 539/193/192 540/194/184 532/194/184 
f 533/195/176 532/194/184 540/194/184 
f 540/194/184 541/195/176 533/195/176 
f 531/193/192 534/192/200 542/192/200 
f 542/192/200 539/193/192 531/193/192 
f 534/192/200 533/195/176 541/195/176 
f 541/195/176 542/192/200 534/192/200 
f 536/200/192 535/203/200 543/203/200 
f 543/203/200 544/200/192 536/200/192 
f 535/203/200 538/202/176 545/202/176 
f 545/202/176 543/203/200 535/203/200 
f 538/202/176 537/201/184 546/201/184 
f 546/201/184 545/202/176 538/202/176 
f 537/201/184 536/200/192 544/200/192 
f 544/200/192 546/201/184 537/201/184 
f 547/210/286 548/211/286 549/212/286 
f 549/212/286 550/213/286 551/214/286 
f 547/210/286 549/212/286 551/214/286 
f 552/215/286 547/210/286 551/214/286 
s 8
f 551/214/287 550/213/288 553/216/288 
f 553/216/288 554/217/287 551/214/287 
f 550/213/288 549/212/289 555/218/289 
f 555/218/289 553/216/288 550/213/288 
f 549/212/289 548/211/290 556/219/290 
f 556/219/290 555/218/289 549/212/289 
f 548/211/290 547/210/291 557/220/291 
f 557/220/291 556/219/290 548/211/290 
f 547/210/291 552/215/292 558/221/292 
f 558/221/292 557/220/291 547/210/291 
f 552/222/292 551/214/287 554/217/287 
f 554/217/287 558/223/292 552/222/292 
s off
f 554/217/293 553/216/293 559/216/293 
f 559/216/293 560/217/293 554/217/293 
f 553/216/294 555/218/294 561/218/294 
f 561/218/294 559/216/294 553/216/294 
f 555/218/295 556/219/295 562/219/295 
f 562/219/295 561/218/295 555/218/295 
f 556/219/294 557/220/294 563/220/294 
f 563/220/294 562/219/294 556/219/294 
f 557/220/296 558/221/296 564/221/296 
f 564/221/296 563/220/296 557/220/296 
f 558/223/296 554/217/296 560/217/296 
f 560/217/296 564/223/296 558/223/296 
f 560/217/297 559/216/297 565/216/297 
f 565/216/297 566/217/297 560/217/297 
f 559/216/298 561/218/298 567/218/298 
f 567/218/298 565/216/298 559/216/298 
f 561/218/299 562/219/299 568/219/299 
f 568/219/299 567/218/299 561/218/299 
f 562/219/300 563/220/300 569/220/300 
f 569/220/300 568/219/300 562/219/300 
f 563/220/301 564/221/301 570/221/301 
f 570/221/301 569/220/301 563/220/301 
f 564/223/302 560/217/302 566/217/302 
f 566/217/302 570/223/302 564/223/302 
f 566/217/303 565/216/303 571/224/303 
f 565/216/304 567/218/304 571/224/304 
f 567/218/305 568/219/305 571/224/305 
f 568/219/306 569/220/306 571/224/306 
f 569/220/307 570/221/307 571/224/307 
f 570/223/308 566/217/308 571/223/308 
s 8
f 572/214/59 573/213/309 574/216/309 
f 574/216/309 575/217/59 572/214/59 
f 573/213/309 576/212/310 577/218/310 
f 577/218/310 574/216/309 573/213/309 
f 576/212/310 578/211/266 579/219/266 
f 579/219/266 577/218/310 576/212/310 
f 578/211/266 580/210/311 581/220/311 
f 581/220/311 579/219/266 578/211/266 
f 580/210/311 582/215/312 583/221/312 
f 583/221/312 581/220/311 580/210/311 
f 582/222/312 572/214/59 575/217/59 
f 575/217/59 583/223/312 582/222/312 
s off
f 575/217/313 574/216/313 584/224/313 
f 574/216/314 577/218/314 584/224/314 
f 577/218/315 579/219/315 584/224/315 
f 579/219/316 581/220/316 584/224/316 
f 581/220/317 583/221/317 584/224/317 
f 583/223/318 575/217/318 584/223/318 
# 948 faces

